<?xml version="1.0" encoding="UTF-8" standalone="no"?>
<!-- Created with Inkscape (http://www.inkscape.org/) -->

<svg
   xmlns:dc="http://purl.org/dc/elements/1.1/"
   xmlns:cc="http://creativecommons.org/ns#"
   xmlns:rdf="http://www.w3.org/1999/02/22-rdf-syntax-ns#"
   xmlns:svg="http://www.w3.org/2000/svg"
   xmlns="http://www.w3.org/2000/svg"
   xmlns:sodipodi="http://sodipodi.sourceforge.net/DTD/sodipodi-0.dtd"
   xmlns:inkscape="http://www.inkscape.org/namespaces/inkscape"
   inkscape:export-ydpi="90.000000"
   inkscape:export-xdpi="90.000000"
   width="24"
   height="24"
   id="svg11300"
   sodipodi:version="0.32"
   inkscape:version="0.48.5 r10040"
   sodipodi:docname="highlighted-2.svg"
   inkscape:output_extension="org.inkscape.output.svg.inkscape"
   version="1.0"
   style="display:inline;enable-background:new">
  <sodipodi:namedview
     stroke="#ef2929"
     fill="#f57900"
     id="base"
     pagecolor="#8c8c8c"
     bordercolor="#ff5e00"
     borderopacity="1"
     inkscape:pageopacity="0"
     inkscape:pageshadow="2"
     inkscape:zoom="256"
     inkscape:cx="22.52167"
     inkscape:cy="22.727771"
     inkscape:current-layer="layer1"
     showgrid="true"
     inkscape:grid-bbox="true"
     inkscape:document-units="px"
     inkscape:showpageshadow="false"
     inkscape:window-width="1920"
     inkscape:window-height="1005"
     inkscape:window-x="0"
     inkscape:window-y="25"
     width="400px"
     height="300px"
     inkscape:snap-nodes="true"
     inkscape:snap-bbox="true"
     gridtolerance="10000"
     inkscape:object-nodes="false"
     inkscape:snap-grids="true"
     showguides="true"
     inkscape:guide-bbox="true"
     inkscape:window-maximized="1"
     inkscape:bbox-nodes="true"
     inkscape:bbox-paths="false"
     inkscape:snap-bbox-edge-midpoints="false"
     inkscape:snap-bbox-midpoints="false"
     objecttolerance="10000"
     guidetolerance="10000"
     borderlayer="true"
     showborder="true"
     guidecolor="#ff0b00"
     guideopacity="1"
     guidehicolor="#001aff"
     guidehiopacity="0.49803922">
    <inkscape:grid
       type="xygrid"
       id="grid3123"
       empspacing="4"
       visible="true"
       enabled="true"
       snapvisiblegridlinesonly="true" />
  </sodipodi:namedview>
  <defs
     id="defs3" />
  <metadata
     id="metadata4">
    <rdf:RDF>
      <cc:Work
         rdf:about="">
        <dc:format>image/svg+xml</dc:format>
        <dc:type
           rdf:resource="http://purl.org/dc/dcmitype/StillImage" />
        <dc:creator>
          <cc:Agent>
            <dc:title />
          </cc:Agent>
        </dc:creator>
        <dc:source />
        <cc:license
           rdf:resource="" />
        <dc:title />
        <dc:subject>
          <rdf:Bag />
        </dc:subject>
        <dc:date />
        <dc:rights>
          <cc:Agent>
            <dc:title />
          </cc:Agent>
        </dc:rights>
        <dc:publisher>
          <cc:Agent>
            <dc:title />
          </cc:Agent>
        </dc:publisher>
        <dc:identifier />
        <dc:relation />
        <dc:language />
        <dc:coverage />
        <dc:description />
        <dc:contributor>
          <cc:Agent>
            <dc:title />
          </cc:Agent>
        </dc:contributor>
      </cc:Work>
      <cc:Work
         rdf:about="">
        <dc:format>image/svg+xml</dc:format>
        <dc:type
           rdf:resource="http://purl.org/dc/dcmitype/StillImage" />
      </cc:Work>
    </rdf:RDF>
  </metadata>
  <g
     style="display:inline"
     inkscape:groupmode="layer"
     inkscape:label="Base"
     id="layer1"
     transform="translate(0,-276)">
    <rect
       style="fill:#6598cb;fill-opacity:1"
       id="rect2997"
       width="3"
       height="24"
       x="21"
       y="276" />
    <path
       style="fill:#668000;fill-opacity:1"
       d="m 21.028587,12.009355 0,-11.97809462 1.470039,0 1.470039,0 0,11.97809462 0,11.978094 -1.470039,0 -1.470039,0 0,-11.978094 z"
       id="path2984"
       inkscape:connector-curvature="0"
       transform="translate(0,276)" />
    <path
       style="fill:#668000;fill-opacity:1"
       d="m 21.001358,22.255823 0,-1.742188 0.01171,0 0.01171,0 9.8e-4,1.737305 9.81e-4,1.737305 1.47168,9.81e-4 1.47168,9.82e-4 0,-1.738286 0,-1.738287 0.01367,0 0.01367,0 0,1.742188 0,1.742187 -1.498046,0 -1.498047,0 0,-1.742187 z"
       id="path2986"
       inkscape:connector-curvature="0"
       transform="translate(0,276)" />
    <path
       style="fill:#668000;fill-opacity:1"
       d="m 23.970108,19.263635 0,-1.25 0.01367,0 0.01367,0 0,1.25 0,1.25 -0.01367,0 -0.01367,0 0,-1.25 z"
       id="path2988"
       inkscape:connector-curvature="0"
       transform="translate(0,276)" />
    <path
       style="fill:#668000;fill-opacity:1"
       d="m 21.001358,19.263635 0,-1.25 0.01172,0 0.01172,0 0,1.25 0,1.25 -0.01172,0 -0.01172,0 0,-1.25 z"
       id="path2990"
       inkscape:connector-curvature="0"
       transform="translate(0,276)" />
    <path
       style="fill:#668000;fill-opacity:1"
       d="m 21.001358,16.607385 0,-1.40625 0.01172,0 0.01172,0 0,1.40625 0,1.40625 -0.01172,0 -0.01172,0 0,-1.40625 z"
       id="path2992"
       inkscape:connector-curvature="0"
       transform="translate(0,276)" />
    <path
       style="fill:#668000;fill-opacity:1"
       d="m 23.970108,16.607385 0,-1.40625 0.01367,0 0.01367,0 0,1.40625 0,1.40625 -0.01367,0 -0.01367,0 0,-1.40625 z"
       id="path2994"
       inkscape:connector-curvature="0"
       transform="translate(0,276)" />
    <path
       style="fill:#668000;fill-opacity:1"
       d="m 23.970108,13.638635 0,-1.5625 0.01367,0 0.01367,0 0,1.5625 0,1.5625 -0.01367,0 -0.01367,0 0,-1.5625 z"
       id="path2996"
       inkscape:connector-curvature="0"
       transform="translate(0,276)" />
    <path
       style="fill:#668000;fill-opacity:1"
       d="m 21.001358,13.638635 0,-1.5625 0.01172,0 0.01172,0 0,1.5625 0,1.5625 -0.01172,0 -0.01172,0 0,-1.5625 z"
       id="path2998"
       inkscape:connector-curvature="0"
       transform="translate(0,276)" />
    <path
       style="fill:#668000;fill-opacity:1"
       d="m 21.001358,10.513635 0,-1.5624998 0.01172,0 0.01172,0 0,1.5624998 0,1.5625 -0.01172,0 -0.01172,0 0,-1.5625 z"
       id="path3000"
       inkscape:connector-curvature="0"
       transform="translate(0,276)" />
    <path
       style="fill:#668000;fill-opacity:1"
       d="m 23.970108,10.513635 0,-1.5624998 0.01367,0 0.01367,0 0,1.5624998 0,1.5625 -0.01367,0 -0.01367,0 0,-1.5625 z"
       id="path3002"
       inkscape:connector-curvature="0"
       transform="translate(0,276)" />
    <path
       style="fill:#668000;fill-opacity:1"
       d="m 23.970108,7.2323852 0,-1.71875 0.01367,0 0.01367,0 0,1.71875 0,1.71875 -0.01367,0 -0.01367,0 0,-1.71875 z"
       id="path3004"
       inkscape:connector-curvature="0"
       transform="translate(0,276)" />
    <path
       style="fill:#668000;fill-opacity:1"
       d="m 21.001358,7.2323852 0,-1.71875 0.01172,0 0.01172,0 0,1.71875 0,1.71875 -0.01172,0 -0.01172,0 0,-1.71875 z"
       id="path3006"
       inkscape:connector-curvature="0"
       transform="translate(0,276)" />
    <path
       style="fill:#668000;fill-opacity:1"
       d="m 21.001358,3.7948852 0,-1.71875 0.01172,0 0.01172,0 0,1.71875 0,1.71875 -0.01172,0 -0.01172,0 0,-1.71875 z"
       id="path3008"
       inkscape:connector-curvature="0"
       transform="translate(0,276)" />
    <path
       style="fill:#668000;fill-opacity:1"
       d="m 23.970108,3.7948852 0,-1.71875 0.01367,0 0.01367,0 0,1.71875 0,1.71875 -0.01367,0 -0.01367,0 0,-1.71875 z"
       id="path3010"
       inkscape:connector-curvature="0"
       transform="translate(0,276)" />
    <path
       style="fill:#668000;fill-opacity:1"
       d="m 21.001358,1.0390258 0,-1.03710938 1.498047,0 1.498046,0 0,1.03710938 0,1.0371094 -0.01367,0 -0.01367,0 0,-1.0234426 0,-1.02344269 -1.47168,9.8169e-4 -1.47168,9.817e-4 -9.84e-4,1.0224609 -9.83e-4,1.022461 -0.01171,0 -0.01171,0 0,-1.0371094 z"
       id="path3012"
       inkscape:connector-curvature="0"
       transform="translate(0,276)" />
  </g>
</svg>
