<?xml version="1.0" encoding="UTF-8" standalone="no"?>
<!-- Created with Inkscape (http://www.inkscape.org/) -->

<svg
   xmlns:dc="http://purl.org/dc/elements/1.1/"
   xmlns:cc="http://creativecommons.org/ns#"
   xmlns:rdf="http://www.w3.org/1999/02/22-rdf-syntax-ns#"
   xmlns:svg="http://www.w3.org/2000/svg"
   xmlns="http://www.w3.org/2000/svg"
   xmlns:sodipodi="http://sodipodi.sourceforge.net/DTD/sodipodi-0.dtd"
   xmlns:inkscape="http://www.inkscape.org/namespaces/inkscape"
   inkscape:export-ydpi="90.000000"
   inkscape:export-xdpi="90.000000"
   width="24"
   height="24"
   id="svg11300"
   sodipodi:version="0.32"
   inkscape:version="0.48.5 r10040"
   sodipodi:docname="highlighted.svg"
   inkscape:output_extension="org.inkscape.output.svg.inkscape"
   version="1.0"
   style="display:inline;enable-background:new">
  <sodipodi:namedview
     stroke="#ef2929"
     fill="#f57900"
     id="base"
     pagecolor="#8c8c8c"
     bordercolor="#ff5e00"
     borderopacity="1"
     inkscape:pageopacity="0"
     inkscape:pageshadow="2"
     inkscape:zoom="220.40234"
     inkscape:cx="-1.2745702"
     inkscape:cy="23.653659"
     inkscape:current-layer="layer1"
     showgrid="true"
     inkscape:grid-bbox="true"
     inkscape:document-units="px"
     inkscape:showpageshadow="false"
     inkscape:window-width="1920"
     inkscape:window-height="1005"
     inkscape:window-x="0"
     inkscape:window-y="25"
     width="400px"
     height="300px"
     inkscape:snap-nodes="true"
     inkscape:snap-bbox="true"
     gridtolerance="10000"
     inkscape:object-nodes="false"
     inkscape:snap-grids="true"
     showguides="true"
     inkscape:guide-bbox="true"
     inkscape:window-maximized="1"
     inkscape:bbox-nodes="true"
     inkscape:bbox-paths="false"
     inkscape:snap-bbox-edge-midpoints="false"
     inkscape:snap-bbox-midpoints="false"
     objecttolerance="10000"
     guidetolerance="10000"
     borderlayer="true"
     showborder="true"
     guidecolor="#ff0b00"
     guideopacity="1"
     guidehicolor="#001aff"
     guidehiopacity="0.49803922">
    <inkscape:grid
       type="xygrid"
       id="grid3123"
       empspacing="4"
       visible="true"
       enabled="true"
       snapvisiblegridlinesonly="true" />
  </sodipodi:namedview>
  <defs
     id="defs3" />
  <metadata
     id="metadata4">
    <rdf:RDF>
      <cc:Work
         rdf:about="">
        <dc:format>image/svg+xml</dc:format>
        <dc:type
           rdf:resource="http://purl.org/dc/dcmitype/StillImage" />
        <dc:creator>
          <cc:Agent>
            <dc:title />
          </cc:Agent>
        </dc:creator>
        <dc:source />
        <cc:license
           rdf:resource="" />
        <dc:title />
        <dc:subject>
          <rdf:Bag />
        </dc:subject>
        <dc:date />
        <dc:rights>
          <cc:Agent>
            <dc:title />
          </cc:Agent>
        </dc:rights>
        <dc:publisher>
          <cc:Agent>
            <dc:title />
          </cc:Agent>
        </dc:publisher>
        <dc:identifier />
        <dc:relation />
        <dc:language />
        <dc:coverage />
        <dc:description />
        <dc:contributor>
          <cc:Agent>
            <dc:title />
          </cc:Agent>
        </dc:contributor>
      </cc:Work>
      <cc:Work
         rdf:about="">
        <dc:format>image/svg+xml</dc:format>
        <dc:type
           rdf:resource="http://purl.org/dc/dcmitype/StillImage" />
      </cc:Work>
    </rdf:RDF>
  </metadata>
  <g
     style="display:inline"
     inkscape:groupmode="layer"
     inkscape:label="Base"
     id="layer1"
     transform="translate(0,-276)">
    <rect
       style="fill:#6598cb;fill-opacity:1"
       id="rect2997"
       width="2"
       height="24"
       x="0"
       y="276" />
    <path
       style="fill:#668000;fill-opacity:1"
       d="m 5.083388e-4,11.994662 0,-11.94179743 0.9800259112,0 0.98002595,0 0,11.94179743 0,11.941797 -0.98002595,0 -0.9800259112,0 0,-11.941797 z"
       id="path2984"
       inkscape:connector-curvature="0"
       transform="translate(0,276)" />
    <path
       style="fill:#668000;fill-opacity:1"
       d="m 1.9640525,9.0613126 0,-3.062581 0.01588,0 0.01588,0 0,3.062581 0,3.0625814 -0.01588,0 -0.01588,0 0,-3.0625814 z"
       id="path2986"
       inkscape:connector-curvature="0"
       transform="translate(0,276)" />
    <path
       style="fill:#668000;fill-opacity:1"
       d="m 1.9640525,9.0613126 0,-3.062581 0.01588,0 0.01588,0 0,3.062581 0,3.0625814 -0.01588,0 -0.01588,0 0,-3.0625814 z"
       id="path2988"
       inkscape:connector-curvature="0"
       transform="translate(0,276)" />
    <path
       style="fill:#668000;fill-opacity:1"
       d="m 1.9640525,3.2764374 0,-2.72229417 0.01588,0 0.01588,0 0,2.72229417 0,2.7222942 -0.01588,0 -0.01588,0 0,-2.7222942 z"
       id="path2990"
       inkscape:connector-curvature="0"
       transform="translate(0,276)" />
    <path
       style="fill:#668000;fill-opacity:1"
       d="m 1.9640525,14.483215 0,-2.359321 0.01588,0 0.01588,0 0,2.359321 0,2.359322 -0.01588,0 -0.01588,0 0,-2.359322 z"
       id="path2992"
       inkscape:connector-curvature="0"
       transform="translate(0,276)" />
    <path
       style="fill:#668000;fill-opacity:1"
       d="m 1.9640525,19.201859 0,-2.359322 0.01588,0 0.01588,0 0,2.359322 0,2.359321 -0.01588,0 -0.01588,0 0,-2.359321 z"
       id="path2994"
       inkscape:connector-curvature="0"
       transform="translate(0,276)" />
    <path
       style="fill:#668000;fill-opacity:1"
       d="m 0.00400065,23.968142 0,-0.02949 0.98002591,0 0.98002594,0 0,-1.188735 0,-1.188735 0.01588,0 0.01588,0 0,1.218227 0,1.218226 -0.99590599,0 -0.99590596,0 0,-0.02949 z"
       id="path2996"
       inkscape:connector-curvature="0"
       transform="translate(0,276)" />
    <path
       style="fill:#668000;fill-opacity:1"
       d="m 1.9640525,0.30233101 0,-0.25181221 -0.98002594,0 -0.98002591,0 0,-0.02495436 0,-0.0249543661 0.99590596,0 0.99590599,0 0,0.27676657612 0,0.27676658 -0.01588,0 -0.01588,0 0,-0.25181222 z"
       id="path2998"
       inkscape:connector-curvature="0"
       transform="translate(0,276)" />
  </g>
</svg>
