<?xml version="1.0" encoding="UTF-8" standalone="no"?>
<!-- Created with Inkscape (http://www.inkscape.org/) -->

<svg
   xmlns:dc="http://purl.org/dc/elements/1.1/"
   xmlns:cc="http://creativecommons.org/ns#"
   xmlns:rdf="http://www.w3.org/1999/02/22-rdf-syntax-ns#"
   xmlns:svg="http://www.w3.org/2000/svg"
   xmlns="http://www.w3.org/2000/svg"
   xmlns:xlink="http://www.w3.org/1999/xlink"
   xmlns:sodipodi="http://sodipodi.sourceforge.net/DTD/sodipodi-0.dtd"
   xmlns:inkscape="http://www.inkscape.org/namespaces/inkscape"
   width="48"
   height="26"
   id="svg3482"
   version="1.1"
   inkscape:version="0.48.5 r10040"
   sodipodi:docname="on.svg">
  <defs
     id="defs3484">
    <linearGradient
       id="linearGradient3953">
      <stop
         style="stop-color:#828282;stop-opacity:0.68627453;"
         offset="0"
         id="stop3955" />
      <stop
         style="stop-color:#828282;stop-opacity:0;"
         offset="1"
         id="stop3957" />
    </linearGradient>
    <linearGradient
       id="linearGradient3965-6">
      <stop
         style="stop-color:#ffffff;stop-opacity:0.39285713;"
         offset="0"
         id="stop3967-3" />
      <stop
         style="stop-color:#ffffff;stop-opacity:0;"
         offset="1"
         id="stop3969-2" />
    </linearGradient>
    <linearGradient
       id="linearGradient4133-1">
      <stop
         style="stop-color:#000000;stop-opacity:0.1254902;"
         offset="0"
         id="stop4135-3" />
      <stop
         style="stop-color:#000000;stop-opacity:0.0627451;"
         offset="1"
         id="stop4137-6" />
    </linearGradient>
    <linearGradient
       id="linearGradient4125-9">
      <stop
         style="stop-color:#ffffff;stop-opacity:0.48627451;"
         offset="0"
         id="stop4127-6" />
      <stop
         style="stop-color:#ffffff;stop-opacity:0;"
         offset="1"
         id="stop4129-9" />
    </linearGradient>
    <linearGradient
       id="linearGradient4125-4">
      <stop
         id="stop4127-9"
         offset="0"
         style="stop-color:#ffffff;stop-opacity:0.48627451;" />
      <stop
         id="stop4129-7"
         offset="1"
         style="stop-color:#ffffff;stop-opacity:0;" />
    </linearGradient>
    <linearGradient
       inkscape:collect="always"
       xlink:href="#linearGradient4125-4"
       id="linearGradient4831"
       gradientUnits="userSpaceOnUse"
       gradientTransform="matrix(1.5416678,0,0,1.0499999,-290.56778,-32.61382)"
       x1="428.21423"
       y1="548.57648"
       x2="428.21423"
       y2="541.57648" />
    <radialGradient
       inkscape:collect="always"
       xlink:href="#linearGradient3953"
       id="radialGradient4947"
       gradientUnits="userSpaceOnUse"
       gradientTransform="matrix(0.99367928,0,0,0.99367805,299.57387,551.11759)"
       cx="66"
       cy="-19"
       fx="66"
       fy="-19"
       r="7" />
    <radialGradient
       inkscape:collect="always"
       xlink:href="#linearGradient3965-6"
       id="radialGradient4949"
       gradientUnits="userSpaceOnUse"
       gradientTransform="matrix(0.99367928,0,0,0.99367805,299.57387,551.11759)"
       cx="66"
       cy="-19"
       fx="66"
       fy="-19"
       r="7" />
    <radialGradient
       inkscape:collect="always"
       xlink:href="#linearGradient3953"
       id="radialGradient4951"
       gradientUnits="userSpaceOnUse"
       gradientTransform="matrix(-0.85407272,0.26776335,0.27911963,1.0701372,426.82867,534.89817)"
       cx="66"
       cy="-19"
       fx="66"
       fy="-19"
       r="7" />
    <radialGradient
       inkscape:collect="always"
       xlink:href="#linearGradient3965-6"
       id="radialGradient4953"
       gradientUnits="userSpaceOnUse"
       gradientTransform="matrix(0.88830637,0,0,0.88830728,-42.766347,80.46574)"
       cx="459.21423"
       cy="508.57648"
       fx="459.21423"
       fy="508.57648"
       r="7.8299899" />
    <linearGradient
       inkscape:collect="always"
       xlink:href="#linearGradient4133-1"
       id="linearGradient5031"
       gradientUnits="userSpaceOnUse"
       gradientTransform="matrix(1.4583389,0,0,0.85000434,-1004.5778,-989.73349)"
       x1="428.21423"
       y1="548.57648"
       x2="428.21423"
       y2="541.57648" />
    <linearGradient
       inkscape:collect="always"
       xlink:href="#linearGradient4125-9"
       id="linearGradient5035"
       gradientUnits="userSpaceOnUse"
       gradientTransform="matrix(1.4656473,0,0,0.85877468,-1007.7329,70.279873)"
       x1="428.21423"
       y1="548.57648"
       x2="428.21423"
       y2="541.57648" />
  </defs>
  <sodipodi:namedview
     id="base"
     pagecolor="#8c8c8c"
     bordercolor="#666666"
     borderopacity="1.0"
     inkscape:pageopacity="1"
     inkscape:pageshadow="2"
     inkscape:zoom="13.057693"
     inkscape:cx="-4.5573875"
     inkscape:cy="20.315291"
     inkscape:document-units="px"
     inkscape:current-layer="layer1"
     showgrid="true"
     fit-margin-top="0"
     fit-margin-left="0"
     fit-margin-right="0"
     fit-margin-bottom="0"
     inkscape:window-width="1920"
     inkscape:window-height="1005"
     inkscape:window-x="0"
     inkscape:window-y="25"
     inkscape:window-maximized="1"
     inkscape:snap-center="false"
     inkscape:snap-object-midpoints="false"
     objecttolerance="10000"
     guidetolerance="10000"
     inkscape:snap-bbox="true"
     borderlayer="true"
     inkscape:showpageshadow="false">
    <inkscape:grid
       type="xygrid"
       id="grid3016"
       empspacing="4"
       visible="true"
       enabled="true"
       snapvisiblegridlinesonly="true" />
  </sodipodi:namedview>
  <metadata
     id="metadata3487">
    <rdf:RDF>
      <cc:Work
         rdf:about="">
        <dc:format>image/svg+xml</dc:format>
        <dc:type
           rdf:resource="http://purl.org/dc/dcmitype/StillImage" />
        <dc:title />
      </cc:Work>
    </rdf:RDF>
  </metadata>
  <g
     inkscape:label="Layer 1"
     inkscape:groupmode="layer"
     id="layer1"
     transform="translate(-350.99212,-519.36632)">
    <rect
       ry="10.499955"
       rx="10.514378"
       y="521.86633"
       x="356.49216"
       height="20.999908"
       width="36.999901"
       id="rect4189"
       style="fill:none;stroke:url(#linearGradient4831);stroke-width:1.00010014000000003;stroke-linecap:square;stroke-linejoin:round;stroke-miterlimit:4;stroke-opacity:1;stroke-dasharray:none;opacity:0.7" />
    <rect
       ry="9.9999924"
       rx="10.43409"
       y="522.36633"
       x="-393.99213"
       height="19.999987"
       width="37.999992"
       id="rect4018"
       style="fill:#336699;fill-opacity:1;stroke:none"
       transform="scale(-1,1)" />
    <rect
       style="fill:none;stroke:url(#linearGradient5035);stroke-width:0.82458252;stroke-linecap:square;stroke-linejoin:round;stroke-miterlimit:4;stroke-opacity:1;stroke-dasharray:none"
       id="rect3204"
       width="35.175411"
       height="17.175419"
       x="-392.57983"
       y="523.77863"
       rx="8.5877104"
       ry="8.5877104"
       transform="scale(-1,1)" />
    <rect
       style="fill:#6699cc;fill-opacity:1;stroke:none"
       id="rect4022"
       width="36"
       height="18"
       x="-392.99213"
       y="523.36633"
       rx="9.0000067"
       ry="9"
       transform="scale(-1,1)" />
    <rect
       style="fill:none;stroke:url(#linearGradient5031);stroke-width:1;stroke-linecap:square;stroke-linejoin:round;stroke-miterlimit:4;stroke-opacity:1;stroke-dasharray:none"
       id="rect4032"
       width="35"
       height="17.000013"
       x="-392.49213"
       y="-540.86633"
       rx="8.5000067"
       ry="8.5000067"
       transform="scale(-1,-1)" />
    <path
       transform="matrix(-1.0666664,0,0,-1.0666664,455.99212,509.43297)"
       d="m 75,-21.5 c 0,4.142136 -3.357864,7.5 -7.5,7.5 -4.142136,0 -7.5,-3.357864 -7.5,-7.5 0,-4.142136 3.357864,-7.5 7.5,-7.5 4.142136,0 7.5,3.357864 7.5,7.5 z"
       sodipodi:ry="7.5"
       sodipodi:rx="7.5"
       sodipodi:cy="-21.5"
       sodipodi:cx="67.5"
       id="path4444"
       style="fill:#336699;fill-opacity:1;stroke:none"
       sodipodi:type="arc" />
    <g
       id="g3892"
       transform="matrix(-1,0,0,1,748.98426,-3.3e-5)">
      <path
         sodipodi:type="arc"
         style="fill:#ececec;fill-opacity:1;stroke:none"
         id="path4436"
         sodipodi:cx="66"
         sodipodi:cy="-19.5"
         sodipodi:rx="6"
         sodipodi:ry="6.5"
         d="m 72,-19.5 c 0,3.589851 -2.686292,6.5 -6,6.5 -3.313708,0 -6,-2.910149 -6,-6.5 0,-3.589851 2.686292,-6.5 6,-6.5 3.313708,0 6,2.910149 6,6.5 z"
         transform="matrix(1.1666667,0,0,1.076923,287.99212,553.36632)" />
      <path
         style="fill:url(#radialGradient4947);fill-opacity:1;stroke:url(#radialGradient4949);stroke-width:0.92950141px;stroke-linecap:butt;stroke-linejoin:miter;stroke-opacity:1"
         d="m 365.15666,532.23777 -6.95575,3.47788 4.96839,3.47786 3.97472,-13.9115 4.96839,3.47787 -6.95575,3.47789 z"
         id="path4438"
         inkscape:connector-curvature="0" />
      <path
         inkscape:connector-curvature="0"
         id="path4440"
         d="m 365.15665,532.23776 6.95545,1.87115 -3.29347,5.08429 -7.32397,-13.91088 -3.29345,5.08428 6.95544,1.87116 z"
         style="fill:url(#radialGradient4951);fill-opacity:1;stroke:url(#radialGradient4953);stroke-width:0.93012023" />
      <path
         transform="matrix(0.87836359,0,0,-0.87836412,305.70258,513.48149)"
         d="m 75,-21.5 c 0,4.142136 -3.357864,7.5 -7.5,7.5 -4.142136,0 -7.5,-3.357864 -7.5,-7.5 0,-4.142136 3.357864,-7.5 7.5,-7.5 4.142136,0 7.5,3.357864 7.5,7.5 z"
         sodipodi:ry="7.5"
         sodipodi:rx="7.5"
         sodipodi:cy="-21.5"
         sodipodi:cx="67.5"
         id="path4442"
         style="fill:none;stroke:#ffffff;stroke-width:0.93872386;stroke-linecap:square;stroke-linejoin:round;stroke-miterlimit:4;stroke-opacity:0.54901961;stroke-dasharray:none"
         sodipodi:type="arc" />
    </g>
    <path
       style="fill:#668000;fill-opacity:1"
       d="M 13.862651,22.847359 C 12.39662,22.621262 11.177564,22.195189 9.990326,21.493941 7.9883102,20.31144 6.4821851,18.541757 5.6557987,16.400911 4.9648679,14.610978 4.8520408,12.494426 5.3454702,10.579383 6.2378304,7.1160548 9.0582109,4.340258 12.639482,3.4006722 14.041526,3.0328308 13.411204,3.0521846 23.989169,3.0521846 c 10.242181,0 9.861549,-0.00941 11.074188,0.2737202 3.30945,0.7726936 6.065996,3.1225382 7.245404,6.1764157 0.872901,2.2602275 0.866017,4.8133775 -0.01898,7.0412415 -0.532192,1.339715 -1.294511,2.462932 -2.372914,3.4963 -1.604746,1.53773 -3.528569,2.46946 -5.801174,2.809575 -0.642272,0.09612 -1.161781,0.101117 -10.153595,0.09763 -8.792191,-0.0034 -9.52167,-0.01061 -10.099442,-0.09971 l 0,0 z m 20.605028,-0.935334 c 0.628798,-0.123116 1.254274,-0.290186 1.664554,-0.444615 3.089179,-1.162763 5.261013,-3.825274 5.789376,-7.097352 0.09038,-0.559703 0.08955,-2.209484 -0.0014,-2.734701 C 41.570336,9.6141097 40.735997,7.9737194 39.362057,6.6057226 38.03077,5.2801951 36.371358,4.4357534 34.44876,4.1054436 33.854836,4.0034051 33.503733,3.9998535 24.010281,3.9998535 c -10.57678,0 -10.176466,-0.00972 -11.296526,0.2744283 -3.4143715,0.866208 -6.057291,3.7830638 -6.6206936,7.3069222 -0.1082471,0.677043 -0.1223301,1.989512 -0.028472,2.653473 0.3448343,2.439396 1.600444,4.554958 3.5729719,6.02006 1.3607089,1.01067 2.9601899,1.599192 4.7395389,1.743894 0.119135,0.0097 4.590778,0.01325 9.936985,0.0079 8.576442,-0.0086 9.771357,-0.01968 10.153594,-0.09452 z"
       id="path3016"
       inkscape:connector-curvature="0"
       transform="translate(350.99212,519.36632)" />
    <path
       style="fill:#88aa00;fill-opacity:1"
       d="M 7.7050531,18.279332 C 7.2490556,17.652161 6.8551021,16.918429 6.5773319,16.178969 6.2915504,15.418182 6.1079754,14.606412 6.0385609,13.79652 c -0.027562,-0.32158 -0.030806,-0.406456 -0.030006,-0.785212 9.43e-4,-0.446949 0.011897,-0.668226 0.050431,-1.018744 0.09883,-0.898991 0.3415335,-1.806174 0.6999376,-2.6162426 0.024708,-0.055845 0.049657,-0.1129588 0.055442,-0.12692 l 0.010519,-0.025384 0.5543283,0 c 0.3048805,0 0.5543282,0.00181 0.5543282,0.00402 0,0.00221 -0.027209,0.056279 -0.060464,0.1201509 -0.3979568,0.764343 -0.6826187,1.675107 -0.8021767,2.566531 -0.052278,0.389785 -0.06742,0.631026 -0.067766,1.079666 -2.809e-4,0.363808 0.00329,0.459177 0.027228,0.727674 0.1372033,1.538774 0.705875,2.984024 1.6538183,4.203095 0.093075,0.119696 0.2387511,0.29503 0.3139522,0.377869 l 0.053769,0.05923 -0.6432794,0 -0.6432793,0 -0.060289,-0.08292 0,0 z"
       id="path3020"
       inkscape:connector-curvature="0"
       transform="translate(350.99212,519.36632)" />
    <path
       style="fill:#88aa00;fill-opacity:1"
       d="M 7.1675758,8.5881027 C 7.4057476,8.1201133 8.1535136,7.1354622 8.6076588,6.6918151 L 8.81432,6.4899311 9.5560268,6.5003571 10.297734,6.5107831 10.090041,6.6679107 C 9.5436628,7.081268 8.8725853,7.7772597 8.4601113,8.358353 l -0.2514178,0.3541974 -0.5522262,0 -0.5522262,0 0.063335,-0.1244477 z"
       id="path3022"
       inkscape:connector-curvature="0"
       transform="translate(350.99212,519.36632)" />
    <path
       style="fill:#88aa00;fill-opacity:1"
       d="m 6.8764582,9.1671378 c 0,-0.023762 0.052958,-0.1357648 0.117685,-0.2488954 l 0.1176851,-0.205692 0.555541,0 0.5555411,0 -0.074369,0.1244477 c -0.040903,0.068446 -0.106333,0.1804492 -0.1453997,0.2488954 l -0.07103,0.1244477 -0.5278266,0 c -0.3663623,0 -0.5278264,-0.013216 -0.5278264,-0.043203 z"
       id="path3024"
       inkscape:connector-curvature="0"
       transform="translate(350.99212,519.36632)" />
    <path
       style="fill:#88aa00;fill-opacity:1"
       d="m 8.8676216,6.4565837 c 0,-0.093405 0.8946533,-0.7876062 1.4255494,-1.1061478 0.646523,-0.3879179 0.408668,-0.3528388 2.354221,-0.3472034 1.182323,0.00342 1.625866,0.015234 1.427888,0.038018 -1.157573,0.133218 -2.499344,0.6142328 -3.446245,1.2354525 L 10.303557,6.4902355 9.5855892,6.4909362 C 9.1761754,6.4913361 8.8676216,6.4765727 8.8676216,6.4565837 z"
       id="path3026"
       inkscape:connector-curvature="0"
       transform="translate(350.99212,519.36632)" />
    <path
       style="fill:#88aa00;fill-opacity:1"
       d="M 36.686472,5.8844715 C 36.04235,5.5527852 35.597031,5.3888696 34.848475,5.2079302 33.940943,4.9885634 34.408613,4.997474 23.844479,4.998268 18.50301,4.9986695 13.409006,4.997522 12.52447,4.9957182 l -1.608248,-0.00328 0.316372,-0.1485748 c 0.426373,-0.200234 0.982766,-0.3972576 1.508232,-0.5340781 0.865265,-0.2252973 0.958052,-0.232144 3.689387,-0.2722395 3.04122,-0.044645 16.88145,-0.00912 17.518409,0.044964 1.57283,0.1335513 3.313409,0.831257 4.611259,1.8484087 l 0.22687,0.1778025 -0.839536,-0.00368 -0.839535,-0.00368 -0.421208,-0.2168978 0,0 z"
       id="path3028"
       inkscape:connector-curvature="0"
       transform="translate(350.99212,519.36632)" />
    <path
       style="fill:#88aa00;fill-opacity:1"
       d="M 39.459156,8.2389188 C 39.178463,7.8464752 38.597952,7.231105 38.218136,6.9233774 38.070714,6.8039351 37.94148,6.6944291 37.930949,6.6800307 37.903929,6.6430854 37.191566,6.1629201 37.124646,6.1365454 c -0.03039,-0.011978 0.327394,-0.023138 0.795079,-0.024801 l 0.850338,-0.00302 0.317556,0.2854761 c 0.349075,0.3138096 0.715752,0.7095385 1.012782,1.0930216 0.204114,0.2635241 0.587544,0.8246481 0.587544,0.8598319 0,0.011481 -0.255716,0.020875 -0.568259,0.020875 l -0.568258,0 -0.09227,-0.1290071 z"
       id="path3030"
       inkscape:connector-curvature="0"
       transform="translate(350.99212,519.36632)" />
    <path
       style="fill:#88aa00;fill-opacity:1"
       d="M 14.477342,21.962785 C 12.661895,21.846926 11.155535,21.290036 9.5379839,20.136741 9.453885,20.076779 9.3651848,20.010488 9.3408725,19.989428 9.3165602,19.968367 9.1872094,19.856462 9.0534262,19.740748 8.6693043,19.408509 8.3653802,19.092966 7.9869147,18.633466 7.748778,18.344341 7.7224526,18.362035 8.3907538,18.362035 l 0.5991025,0 0.4079548,0.38705 c 1.2222869,1.159653 2.5077799,1.814006 4.2562609,2.16656 0.301252,0.06074 1.052273,0.06659 10.089838,0.07862 8.744753,0.01163 9.816339,0.0066 10.26215,-0.04792 0.783977,-0.09593 1.661924,-0.337941 2.167394,-0.597453 0.07587,-0.03895 0.1491,-0.05966 0.16274,-0.04602 0.01364,0.01364 0.0248,0.0037 0.0248,-0.02213 0,-0.02581 0.01723,-0.03628 0.03829,-0.02327 0.02106,0.01302 0.03829,0.0025 0.03829,-0.02327 0,-0.02581 0.01071,-0.03622 0.02381,-0.02312 0.02413,0.02413 0.400478,-0.150667 0.43569,-0.202364 0.01053,-0.01546 0.05792,-0.04021 0.105302,-0.055 0.04739,-0.01479 0.08616,-0.04397 0.08616,-0.06486 0,-0.02088 0.01462,-0.02894 0.03249,-0.01789 0.01787,0.01105 0.06604,-0.01117 0.107048,-0.04938 0.04101,-0.0382 0.091,-0.07665 0.111101,-0.08544 0.113342,-0.04956 0.323732,-0.199953 0.323732,-0.231411 0,-0.02022 0.01605,-0.02685 0.03567,-0.01472 0.01962,0.01213 0.06303,-0.01701 0.09647,-0.06475 0.03344,-0.04774 0.07068,-0.08076 0.08275,-0.07338 0.03361,0.02053 0.32161,-0.237622 0.783908,-0.702666 0.568573,-0.571951 0.609449,-0.6166 0.609449,-0.665693 0,-0.02349 0.01513,-0.0427 0.03363,-0.0427 0.0185,0 0.100344,-0.09896 0.181885,-0.219917 0.08154,-0.120954 0.169796,-0.242803 0.196121,-0.270776 0.02633,-0.02797 0.04787,-0.06758 0.04787,-0.08802 0,-0.02044 0.03387,-0.07351 0.07526,-0.117939 0.04139,-0.04443 0.06622,-0.0954 0.05518,-0.113274 -0.01105,-0.01787 -0.0038,-0.03249 0.01616,-0.03249 0.03201,0 0.398345,-0.707821 0.525182,-1.014728 0.02611,-0.06318 0.07304,-0.175184 0.104289,-0.248895 0.03125,-0.07371 0.08657,-0.237408 0.122946,-0.36377 0.03637,-0.126363 0.08142,-0.272828 0.100107,-0.325479 0.04632,-0.130514 0.172498,-0.790062 0.227089,-1.18704 0.02462,-0.179013 0.04476,-0.609794 0.04476,-0.95729 0,-0.347496 -0.02014,-0.778277 -0.04476,-0.95729 -0.05348,-0.388932 -0.179876,-1.045865 -0.232066,-1.206186 -0.02057,-0.06318 -0.07233,-0.226877 -0.115031,-0.36377 -0.0427,-0.136892 -0.09658,-0.291973 -0.119729,-0.344624 -0.02315,-0.05265 -0.05622,-0.1301917 -0.07348,-0.1723125 C 40.268968,9.5968424 39.897669,8.8787717 39.792874,8.750842 39.766997,8.7192514 39.699089,8.6201719 39.641967,8.5306652 l -0.103857,-0.1627393 0.588956,0 0.588956,0 0.251454,0.4885512 c 0.712381,1.3840889 0.982689,2.5241779 0.982689,4.1447329 0,1.130904 -0.09503,1.797682 -0.386014,2.708553 -0.232381,0.727416 -0.60141,1.536899 -0.918719,2.015251 -0.08192,0.123497 -0.148945,0.230427 -0.148945,0.237622 0,0.04202 -0.390072,0.563366 -0.650957,0.870029 -0.183447,0.215636 -0.8338,0.861456 -1.017657,1.010564 -0.08263,0.06701 -0.205941,0.167374 -0.274023,0.223024 -0.3147,0.257231 -1.137435,0.769651 -1.59369,0.992588 -0.958711,0.468449 -1.972118,0.759492 -3.003972,0.862718 -0.489005,0.04892 -18.752599,0.08757 -19.478846,0.04123 l 0,0 z"
       id="path3032"
       inkscape:connector-curvature="0"
       transform="translate(350.99212,519.36632)" />
    <path
       style="fill:#88aa00;fill-opacity:1"
       d="m 14.033119,21.90437 c -0.849065,-0.10326 -1.586406,-0.285068 -2.274481,-0.560824 -0.983196,-0.394031 -2.1408481,-1.111243 -2.8235491,-1.749302 -0.4050868,-0.378599 -1.063049,-1.097298 -1.063049,-1.16118 0,-0.01801 0.064617,-0.03545 0.1435935,-0.03875 0.127827,-0.0054 0.1225715,-0.0085 -0.047865,-0.02872 L 7.7763109,18.342889 7.518047,17.959973 C 7.1707108,17.444993 6.725661,16.540001 6.5165763,15.923519 6.1494265,14.840986 6.0135738,13.92536 6.0460607,12.752315 6.0788026,11.570058 6.2821799,10.592294 6.7150996,9.5358199 L 6.824937,9.2677786 7.3514178,9.257106 7.8778987,9.2464334 7.8508298,9.3336892 c -0.014888,0.047991 -0.074206,0.1820276 -0.131819,0.2978597 -0.2343089,0.4710861 -0.4796026,1.2574821 -0.6160275,1.9749451 -0.102443,0.538751 -0.140783,1.671167 -0.075751,2.237394 0.063514,0.553009 0.21261,1.240839 0.3731917,1.721656 0.2829814,0.847308 0.9021309,1.958677 1.4318184,2.570103 0.1026745,0.118519 0.1777032,0.224466 0.1667303,0.235439 -0.04433,0.04433 1.0401383,0.983838 1.4856053,1.287024 0.754067,0.513222 1.717597,0.929253 2.729141,1.178383 0.642859,0.158327 1.580941,0.170951 11.621502,0.156389 8.311831,-0.01206 9.276478,-0.01963 9.534609,-0.07488 0.562567,-0.120408 0.941929,-0.2179 1.206186,-0.309976 0.343316,-0.119623 1.150409,-0.467525 1.302116,-0.561285 0.06415,-0.03965 0.159277,-0.09524 0.211386,-0.123527 0.05211,-0.02829 0.195992,-0.119738 0.319738,-0.203216 0.123746,-0.08348 0.253612,-0.169009 0.288592,-0.190069 0.173851,-0.104672 0.835639,-0.706852 1.209537,-1.100592 0.579748,-0.610515 0.834189,-0.977897 1.253271,-1.80957 0.615121,-1.220719 0.840805,-2.183547 0.843689,-3.599411 0.0028,-1.368318 -0.213553,-2.346773 -0.771476,-3.489197 C 39.750064,8.5425502 39.358543,7.9966708 38.615135,7.2756288 38.107165,6.7829418 37.950281,6.6531376 37.510847,6.3619537 l -0.324373,-0.2149408 0.695456,0 c 0.422333,0 0.704751,-0.015038 0.719122,-0.038292 0.01548,-0.025042 -0.242312,-0.038292 -0.745015,-0.038292 l -0.76868,0 -0.449338,-0.2242321 C 36.056931,5.5562183 35.781892,5.4487057 35.205266,5.286134 34.218395,5.0078996 35.124278,5.0323934 24.433159,4.9948728 19.125942,4.976247 13.94796,4.9564672 12.926532,4.9509176 L 11.069389,4.9408273 11.414013,4.79346 c 0.674754,-0.2885363 1.570722,-0.5500944 2.182622,-0.6371682 0.147422,-0.020978 1.008984,-0.057521 1.91458,-0.081206 2.109699,-0.055177 17.909455,-0.02009 18.513991,0.041115 1.527958,0.1546929 3.118734,0.7891372 4.42268,1.7638836 0.665995,0.4978555 1.468019,1.3552389 1.998713,2.1366741 l 0.19948,0.2937299 -0.256681,0.017458 -0.256681,0.017458 0.285378,0.020834 0.285379,0.020834 0.25859,0.5169367 c 0.461185,0.9219347 0.685962,1.5755516 0.846784,2.4623196 0.07558,0.416734 0.08467,0.59473 0.08445,1.654028 -2.68e-4,1.320794 -0.02648,1.552505 -0.272916,2.412371 -0.327318,1.142094 -0.896254,2.265939 -1.579856,3.120766 -0.323869,0.40499 -1.183419,1.250153 -1.554348,1.528332 -1.286885,0.965102 -2.634268,1.536561 -4.172929,1.769847 -0.484304,0.07343 -0.776758,0.07605 -10.167277,0.09116 -8.157442,0.01313 -9.738061,0.0071 -10.112853,-0.03846 l 0,0 z"
       id="path3034"
       inkscape:connector-curvature="0"
       transform="translate(350.99212,519.36632)" />
    <path
       style="fill:#668000;fill-opacity:1"
       d="m 32.013938,20.929042 c -0.269127,-0.03442 -0.860915,-0.155517 -1.154531,-0.236259 -2.031556,-0.558659 -3.804598,-1.95764 -4.839372,-3.818401 -0.472971,-0.850511 -0.768658,-1.732075 -0.931368,-2.776791 -0.0844,-0.541915 -0.08254,-1.662213 0.0037,-2.220592 0.206948,-1.340124 0.675354,-2.4977193 1.435241,-3.5469896 C 27.756205,6.633515 29.539838,5.5154436 31.6342,5.12893 c 0.62617,-0.1155595 2.307246,-0.090142 2.953797,0.04466 2.592357,0.5404923 4.735958,2.2902929 5.758607,4.7006953 0.853942,2.0127557 0.851071,4.2627407 -0.008,6.2734667 -1.073707,2.513083 -3.423071,4.333259 -6.122634,4.743527 -0.32274,0.04905 -0.482471,0.05574 -1.245508,0.05221 -0.481409,-0.0022 -0.911843,-0.0087 -0.956518,-0.01445 z m 1.740716,-0.957021 c 1.280238,-0.135623 2.519507,-0.63968 3.579767,-1.456026 0.318038,-0.244872 1.002278,-0.938772 1.24312,-1.260669 0.822218,-1.098932 1.292932,-2.325026 1.40993,-3.672524 C 40.124925,11.999725 39.696379,10.365765 38.801536,9.0610682 38.236249,8.2368698 37.458976,7.4949343 36.657515,7.0145238 36.560717,6.9565015 36.410827,6.8510356 36.324425,6.7801552 36.163376,6.6480373 36.130684,6.6326769 36.103648,6.6764228 36.095102,6.6902505 35.985374,6.6541 35.859808,6.5960885 35.570259,6.4623163 35.15724,6.3183646 34.775722,6.2182458 34.163443,6.0575702 33.686938,5.9984716 33.002221,5.9982871 c -0.933044,-2.516e-4 -1.711439,0.1425832 -2.54984,0.4678935 -2.286072,0.8870241 -3.953046,2.9329376 -4.366352,5.3589184 -0.108838,0.638846 -0.121084,1.529178 -0.02969,2.158528 0.289723,1.995062 1.393051,3.743364 3.06821,4.861795 0.875296,0.584398 1.952274,0.98263 3.011232,1.113456 0.350358,0.04329 1.264306,0.0507 1.618873,0.01314 l 0,0 z"
       id="path3036"
       inkscape:connector-curvature="0"
       transform="translate(350.99212,519.36632)" />
    <path
       style="fill:#aad400;fill-opacity:1"
       d="m 14.874669,20.945562 c -0.883883,-0.01796 -1.008818,-0.02628 -1.340274,-0.08929 -0.759718,-0.144431 -1.423929,-0.36822 -2.111948,-0.71157 C 10.225317,19.54728 9.2645261,18.722 8.4798913,17.617164 7.4352566,16.146225 6.9208791,14.339861 7.0334598,12.537663 7.10718,11.357546 7.367051,10.394005 7.8907831,9.358907 8.2863197,8.5771733 8.6668735,8.0553213 9.3240374,7.3934914 9.5772004,7.1385309 9.8879004,6.8478783 10.014482,6.7475969 10.986149,5.9778143 12.21979,5.4092868 13.453166,5.1628674 c 0.747565,-0.1493578 0.569533,-0.1443612 5.496479,-0.1542622 4.760612,-0.00957 12.985619,0.022253 12.915373,0.049965 -0.02234,0.00881 -0.214234,0.048814 -0.426435,0.088892 -3.09567,0.5846744 -5.616431,3.0670474 -6.27103,6.17553 -0.136622,0.648773 -0.163565,0.925635 -0.163263,1.677671 3.01e-4,0.750847 0.02732,1.028001 0.163552,1.677671 0.550496,2.625248 2.435286,4.827262 4.969373,5.805753 0.483699,0.186771 1.402849,0.426098 1.690591,0.440192 0.930054,0.04556 -14.787195,0.06529 -16.953137,0.02128 z"
       id="path3038"
       inkscape:connector-curvature="0"
       transform="translate(350.99212,519.36632)" />
  </g>
</svg>
