<?xml version="1.0" encoding="UTF-8" standalone="no"?>
<!-- Created with Inkscape (http://www.inkscape.org/) -->

<svg
   xmlns:dc="http://purl.org/dc/elements/1.1/"
   xmlns:cc="http://creativecommons.org/ns#"
   xmlns:rdf="http://www.w3.org/1999/02/22-rdf-syntax-ns#"
   xmlns:svg="http://www.w3.org/2000/svg"
   xmlns="http://www.w3.org/2000/svg"
   xmlns:xlink="http://www.w3.org/1999/xlink"
   xmlns:sodipodi="http://sodipodi.sourceforge.net/DTD/sodipodi-0.dtd"
   xmlns:inkscape="http://www.inkscape.org/namespaces/inkscape"
   inkscape:export-ydpi="90.000000"
   inkscape:export-xdpi="90.000000"
   width="16"
   height="16"
   id="svg11300"
   sodipodi:version="0.32"
   inkscape:version="0.48.5 r10040"
   sodipodi:docname="radiobutton-checked.svg"
   inkscape:output_extension="org.inkscape.output.svg.inkscape"
   version="1.0"
   style="display:inline;enable-background:new">
  <sodipodi:namedview
     stroke="#ef2929"
     fill="#f57900"
     id="base"
     pagecolor="#8c8c8c"
     bordercolor="#ff5e00"
     borderopacity="1"
     inkscape:pageopacity="1"
     inkscape:pageshadow="2"
     inkscape:zoom="8"
     inkscape:cx="-5.8438834"
     inkscape:cy="-18.279505"
     inkscape:current-layer="layer1"
     showgrid="true"
     inkscape:grid-bbox="true"
     inkscape:document-units="px"
     inkscape:showpageshadow="false"
     inkscape:window-width="1920"
     inkscape:window-height="1005"
     inkscape:window-x="0"
     inkscape:window-y="25"
     width="400px"
     height="300px"
     inkscape:snap-nodes="true"
     inkscape:snap-bbox="true"
     gridtolerance="10000"
     inkscape:object-nodes="true"
     inkscape:snap-grids="true"
     showguides="true"
     inkscape:guide-bbox="true"
     inkscape:window-maximized="1"
     inkscape:bbox-nodes="true"
     inkscape:bbox-paths="false"
     inkscape:snap-bbox-edge-midpoints="false"
     inkscape:snap-bbox-midpoints="false"
     objecttolerance="10000"
     guidetolerance="10000"
     borderlayer="true"
     showborder="true"
     guidecolor="#ff0b00"
     guideopacity="1"
     guidehicolor="#001aff"
     guidehiopacity="0.49803922"
     inkscape:snap-smooth-nodes="true">
    <inkscape:grid
       type="xygrid"
       id="grid3123"
       empspacing="4"
       visible="true"
       enabled="true"
       snapvisiblegridlinesonly="true" />
  </sodipodi:namedview>
  <defs
     id="defs3">
    <linearGradient
       id="linearGradient4246">
      <stop
         style="stop-color:#548dc4;stop-opacity:1;"
         offset="0"
         id="stop4248" />
      <stop
         style="stop-color:#7ea9d2;stop-opacity:1;"
         offset="1"
         id="stop4250" />
    </linearGradient>
    <linearGradient
       id="linearGradient3771">
      <stop
         style="stop-color:#ffffff;stop-opacity:1;"
         offset="0"
         id="stop3773" />
      <stop
         style="stop-color:#eaeaea;stop-opacity:1;"
         offset="1"
         id="stop3775" />
    </linearGradient>
    <linearGradient
       inkscape:collect="always"
       xlink:href="#linearGradient3771"
       id="linearGradient4044"
       x1="17.333334"
       y1="13.83333"
       x2="17.333334"
       y2="0.99999666"
       gradientUnits="userSpaceOnUse" />
    <linearGradient
       inkscape:collect="always"
       xlink:href="#linearGradient4246"
       id="linearGradient4252"
       x1="17.333334"
       y1="14.999996"
       x2="17.333334"
       y2="0.99999666"
       gradientUnits="userSpaceOnUse" />
    <linearGradient
       inkscape:collect="always"
       xlink:href="#linearGradient3771"
       id="linearGradient4357"
       gradientUnits="userSpaceOnUse"
       x1="17.333334"
       y1="13.83333"
       x2="17.333334"
       y2="0.99999666" />
    <linearGradient
       inkscape:collect="always"
       xlink:href="#linearGradient3771"
       id="linearGradient4359"
       gradientUnits="userSpaceOnUse"
       x1="17.333334"
       y1="13.83333"
       x2="17.333334"
       y2="0.99999666"
       gradientTransform="matrix(0.42857102,0,0,0.42857102,4.5714318,4.57143)" />
  </defs>
  <metadata
     id="metadata4">
    <rdf:RDF>
      <cc:Work
         rdf:about="">
        <dc:format>image/svg+xml</dc:format>
        <dc:type
           rdf:resource="http://purl.org/dc/dcmitype/StillImage" />
        <dc:creator>
          <cc:Agent>
            <dc:title />
          </cc:Agent>
        </dc:creator>
        <dc:source />
        <cc:license
           rdf:resource="" />
        <dc:title />
        <dc:subject>
          <rdf:Bag />
        </dc:subject>
        <dc:date />
        <dc:rights>
          <cc:Agent>
            <dc:title />
          </cc:Agent>
        </dc:rights>
        <dc:publisher>
          <cc:Agent>
            <dc:title />
          </cc:Agent>
        </dc:publisher>
        <dc:identifier />
        <dc:relation />
        <dc:language />
        <dc:coverage />
        <dc:description />
        <dc:contributor>
          <cc:Agent>
            <dc:title />
          </cc:Agent>
        </dc:contributor>
      </cc:Work>
      <cc:Work
         rdf:about="">
        <dc:format>image/svg+xml</dc:format>
        <dc:type
           rdf:resource="http://purl.org/dc/dcmitype/StillImage" />
      </cc:Work>
    </rdf:RDF>
  </metadata>
  <g
     style="display:inline"
     inkscape:groupmode="layer"
     inkscape:label="Base"
     id="layer1"
     transform="translate(0,-284)">
    <path
       sodipodi:type="arc"
       style="opacity:0.6;fill:#000000;fill-opacity:1;stroke:none"
       id="path4034"
       sodipodi:cx="8"
       sodipodi:cy="8"
       sodipodi:rx="7"
       sodipodi:ry="7"
       d="m 15,8 c 0,3.865993 -3.134007,7 -7,7 C 4.1340068,15 1,11.865993 1,8 1,4.1340068 4.1340068,1 8,1 c 3.865993,0 7,3.1340068 7,7 z"
       transform="translate(0,284)" />
    <path
       style="opacity:0.29999999999999999;fill:#ffffff;fill-opacity:0.29803923;stroke:none"
       d="M 1.03125 8.5 C 1.0195795 8.6652555 1 8.8317746 1 9 C 1 12.865993 4.1340068 16 8 16 C 11.865993 16 15 12.865993 15 9 C 15 8.8317746 14.98042 8.6652555 14.96875 8.5 C 14.712221 12.132486 11.697768 15 8 15 C 4.3022322 15 1.2877786 12.132486 1.03125 8.5 z "
       transform="translate(0,284)"
       id="path4087" />
    <path
       sodipodi:type="arc"
       style="fill:url(#linearGradient4252);fill-opacity:1;stroke:none"
       id="path4236"
       sodipodi:cx="8"
       sodipodi:cy="8"
       sodipodi:rx="7"
       sodipodi:ry="7"
       d="m 15,8 c 0,3.865993 -3.134007,7 -7,7 C 4.1340068,15 1,11.865993 1,8 1,4.1340068 4.1340068,1 8,1 c 3.865993,0 7,3.1340068 7,7 z"
       transform="matrix(0.85714286,0,0,0.85714286,1.1428571,285.14286)" />
    <path
       style="opacity:0.15;fill:#ffffff;fill-opacity:1;stroke:none"
       d="m 8,286 c -3.3137085,0 -6,2.68629 -6,6 0,0.12447 0.023779,0.25241 0.03125,0.375 C 2.33851,289.34946 4.8933983,287 8,287 c 3.106602,0 5.66149,2.34946 5.96875,5.375 C 13.976221,292.25241 14,292.12447 14,292 c 0,-3.31371 -2.686291,-6 -6,-6 z"
       id="path4046"
       inkscape:connector-curvature="0" />
    <path
       inkscape:connector-curvature="0"
       id="path4064"
       d="m 8,298 c -3.313709,0 -6,-2.68629 -6,-6 0,-0.12447 0.02378,-0.25241 0.03125,-0.375 C 2.33851,294.65054 4.893398,297 8,297 c 3.106602,0 5.66149,-2.34946 5.96875,-5.375 C 13.97625,291.74759 14,291.87553 14,292 c 0,3.31371 -2.686291,6 -6,6 z"
       style="opacity:0.07999998;fill:#ffffff;fill-opacity:1;stroke:none" />
    <path
       transform="matrix(0.57142857,0,0,0.57142857,3.4285714,287.42857)"
       d="m 15,8 c 0,3.865993 -3.134007,7 -7,7 C 4.1340068,15 1,11.865993 1,8 1,4.1340068 4.1340068,1 8,1 c 3.865993,0 7,3.1340068 7,7 z"
       sodipodi:ry="7"
       sodipodi:rx="7"
       sodipodi:cy="8"
       sodipodi:cx="8"
       id="path4265"
       style="opacity:0.25;fill:#000000;fill-opacity:1;stroke:none"
       sodipodi:type="arc" />
    <path
       transform="matrix(0.42857102,0,0,0.42857102,4.5714318,288.57143)"
       d="m 15,8 c 0,3.865993 -3.134007,7 -7,7 C 4.1340068,15 1,11.865993 1,8 1,4.1340068 4.1340068,1 8,1 c 3.865993,0 7,3.1340068 7,7 z"
       sodipodi:ry="7"
       sodipodi:rx="7"
       sodipodi:cy="8"
       sodipodi:cx="8"
       id="path4036"
       style="fill:url(#linearGradient4044);fill-opacity:1;stroke:none"
       sodipodi:type="arc" />
    <path
       style="opacity:0.12;fill:#ffffff;fill-opacity:1;stroke:none"
       d="M 4.0625 7.5 C 4.0418868 7.6645321 4 7.8298802 4 8 C 4 10.209139 5.790861 12 8 12 C 10.209139 12 12 10.209139 12 8 C 12 7.8298802 11.958113 7.6645321 11.9375 7.5 C 11.690434 9.4720463 10.039019 11 8 11 C 5.9609808 11 4.3095659 9.4720463 4.0625 7.5 z "
       transform="translate(0,284)"
       id="path4348" />
    <path
       style="fill:#000000;fill-opacity:1;stroke:none;opacity:0.1"
       d="M 8 5 C 6.3431473 5 5 6.3431473 5 8 C 5 8.1747639 5.0338207 8.3334248 5.0625 8.5 C 5.3057155 7.0873555 6.5179112 6 8 6 C 9.4820888 6 10.694284 7.0873555 10.9375 8.5 C 10.966179 8.3334248 11 8.1747639 11 8 C 11 6.3431473 9.6568527 5 8 5 z "
       transform="translate(0,284)"
       id="path4353" />
    <path
       style="fill:#445500;fill-opacity:1"
       d="M 4.3876331,6.3123058 C 4.7519776,5.5199353 5.4777601,4.7848218 6.25399,4.4219542 l 0.1572193,-0.073496 1.5875842,0 1.5875841,0 0.1469227,0.06592 c 0.4847047,0.2174721 1.0887387,0.7095198 1.4355017,1.1693617 0.204422,0.2710842 0.425152,0.6465108 0.507578,0.8633067 l 0.02092,0.055015 L 11.153735,6.5014755 10.610174,6.5008892 10.51016,6.343395 C 10.094623,5.6890424 9.3668947,5.2026778 8.5644753,5.0430307 8.3238327,4.9951531 7.7085672,4.9890314 7.4828666,5.0322689 6.6564551,5.1905848 5.9491659,5.6525926 5.5045799,6.324504 l -0.1174852,0.1775577 -0.5433572,0 -0.5433571,0 0.087253,-0.1897559 z"
       id="path3002"
       inkscape:connector-curvature="0"
       transform="translate(0,284)" />
    <path
       style="fill:#445500;fill-opacity:1"
       d="m 6.4289754,4.3391695 c 0,-0.01688 0.3850673,-0.1489827 0.5779834,-0.1982848 0.3512566,-0.089768 0.5874938,-0.1178502 0.991398,-0.1178502 0.4039042,0 0.6401414,0.028082 0.9913981,0.1178502 0.1929159,0.049302 0.5779832,0.1814045 0.5779832,0.1982848 0,0.00511 -0.7062216,0.00929 -1.5693813,0.00929 -0.8631597,0 -1.5693814,-0.00418 -1.5693814,-0.00929 z"
       id="path3004"
       inkscape:connector-curvature="0"
       transform="translate(0,284)" />
    <path
       style="fill:#445500;fill-opacity:1"
       d="M 4.0917113,7.6533232 C 4.0763993,7.5808682 4.0652033,7.4682364 4.0668313,7.4030303 4.0702445,7.2663214 4.1562832,6.9095062 4.2440294,6.6681641 l 0.060391,-0.1661024 0.5353321,0 c 0.2944326,0 0.535332,0.00377 0.535332,0.00839 0,0.00461 -0.045757,0.1051339 -0.1016812,0.2233791 C 5.1480728,6.9988228 5.0614505,7.2925288 5.0261152,7.572295 l -0.026873,0.2127646 -0.4398455,0 -0.4398456,0 -0.02784,-0.1317364 z"
       id="path3006"
       inkscape:connector-curvature="0"
       transform="translate(0,284)" />
    <path
       style="fill:#445500;fill-opacity:1"
       d="M 4.4735296,8.8103124 C 4.3407017,8.5431316 4.2379166,8.2707402 4.1731091,8.0141664 4.1524208,7.9322607 4.1301874,7.8472048 4.1237016,7.8251533 4.1127572,7.7879423 4.14373,7.7850694 4.5544837,7.7851961 l 0.4425745,1.366e-4 0.00343,0.2690639 c 0.00388,0.3043944 0.049419,0.6034353 0.1290812,0.8475585 l 0.054203,0.1661024 -0.2910505,0 -0.2910505,0 -0.128137,-0.2577451 z"
       id="path3008"
       inkscape:connector-curvature="0"
       transform="translate(0,284)" />
    <path
       style="fill:#445500;fill-opacity:1"
       d="M 5.8130585,10.330067 C 5.3709944,10.03502 4.9560619,9.6058372 4.6538647,9.1310619 l -0.040103,-0.063004 0.2832907,2.11e-4 0.2832908,2.11e-4 0.08984,0.1964644 c 0.1732737,0.3789179 0.4765774,0.7756901 0.7965908,1.0420751 l 0.1303789,0.108529 -0.1162522,0.0078 c -0.1054875,0.0071 -0.1302892,-0.0015 -0.2678429,-0.09333 z"
       id="path3010"
       inkscape:connector-curvature="0"
       transform="translate(0,284)" />
    <path
       style="fill:#445500;fill-opacity:1"
       d="M 10.972103,7.5731359 C 10.939303,7.3063544 10.853704,7.0124665 10.725197,6.7254408 l -0.10001,-0.2233791 0.534976,0 0.534976,0 0.04937,0.1317364 c 0.129061,0.3443927 0.220858,0.792768 0.185836,0.9077018 -0.01202,0.039451 -0.02835,0.1103914 -0.03628,0.1576447 l -0.01442,0.085915 -0.440741,0 -0.440741,0 -0.02605,-0.2119237 z"
       id="path3012"
       inkscape:connector-curvature="0"
       transform="translate(0,284)" />
    <path
       style="fill:#445500;fill-opacity:1"
       d="m 10.827825,9.0569483 c 0,-0.00611 0.02641,-0.1014757 0.0587,-0.2119237 0.07062,-0.2416262 0.123533,-0.6128256 0.124143,-0.8709519 l 4.48e-4,-0.1890131 0.435739,0 0.435739,0 -0.01468,0.063004 c -0.08787,0.3771402 -0.213067,0.7223793 -0.369653,1.0193621 l -0.105784,0.2006314 -0.282324,0 c -0.155278,0 -0.282324,-0.005 -0.282324,-0.011109 z"
       id="path3014"
       inkscape:connector-curvature="0"
       transform="translate(0,284)" />
    <path
       style="fill:#445500;fill-opacity:1"
       d="M 9.9036133,10.331623 C 10.216213,10.083073 10.552339,9.6482087 10.725165,9.2687369 l 0.0912,-0.2002574 0.281462,-2.11e-4 0.281462,-2.11e-4 -0.02699,0.051549 c -0.156272,0.2984259 -0.713764,0.8937965 -1.074238,1.1472265 -0.208232,0.146397 -0.223299,0.152954 -0.3514453,0.152954 l -0.1338864,0 0.110883,-0.08816 z"
       id="path3016"
       inkscape:connector-curvature="0"
       transform="translate(0,284)" />
    <path
       style="fill:#445500;fill-opacity:1"
       d="m 7.3238972,10.939481 c -0.4247942,-0.0726 -0.8698975,-0.229897 -1.2433726,-0.439395 -0.1504434,-0.08439 -0.1472104,-0.07915 -0.046338,-0.07512 0.047761,0.0019 0.1068441,-2.18e-4 0.1312955,-0.0047 l 0.044457,-0.0082 0.052745,0.03832 c 0.2917534,0.211941 0.6764277,0.385943 1.0478024,0.473957 0.069927,0.01657 0.078522,0.02629 0.013411,0.01516 z"
       id="path3018"
       inkscape:connector-curvature="0"
       transform="translate(0,284)" />
    <path
       style="fill:#445500;fill-opacity:1"
       d="m 8.6239709,10.940156 c 0.00891,-0.0024 0.058459,-0.01486 0.1101082,-0.02761 0.3537124,-0.08733 0.7219392,-0.257737 1.0137872,-0.469161 0.025617,-0.01856 0.046576,-0.02933 0.046576,-0.02394 0,0.01199 0.2209668,0.0041 0.2557648,-0.0091 0.04835,-0.01838 0.02353,0.0012 -0.071089,0.05619 -0.3585651,0.208249 -0.779439,0.3684 -1.1809937,0.44939 -0.089996,0.01815 -0.2161543,0.03574 -0.1741532,0.02427 z"
       id="path3020"
       inkscape:connector-curvature="0"
       transform="translate(0,284)" />
    <path
       style="fill:#445500;fill-opacity:1"
       d="m 10.076093,10.404119 c 5e-6,-0.0027 0.01011,-0.01013 0.02246,-0.01655 0.04694,-0.02439 0.203958,-0.133573 0.286123,-0.198957 0.271061,-0.2156989 0.625262,-0.5813557 0.8337,-0.8606657 0.03091,-0.041425 0.04301,-0.049495 0.01464,-0.00977 -0.277494,0.3885734 -0.592819,0.7036483 -0.971384,0.9706133 -0.05556,0.03918 -0.179286,0.120207 -0.183555,0.120207 -0.0011,0 -0.002,-0.0022 -0.002,-0.0049 z"
       id="path3022"
       inkscape:connector-curvature="0"
       transform="translate(0,284)" />
    <path
       style="fill:#668000;fill-opacity:1"
       d="M 7.7339319,11.985813 C 7.169911,11.949345 6.634093,11.795701 6.1145183,11.521451 5.5513593,11.224196 5.0292906,10.748413 4.6739086,10.208564 4.6224103,10.130335 4.5622596,10.033553 4.5402403,9.9934941 l -0.040035,-0.072835 0.3892261,0 0.389226,0 0.078589,0.069755 c 0.3643551,0.3234015 0.7428515,0.5580925 1.1834432,0.7338055 0.4401957,0.175556 0.8566366,0.260671 1.3479223,0.275498 0.207232,0.0063 0.5576123,-0.01006 0.5854371,-0.02725 0.00614,-0.0038 0.023603,-0.0056 0.038799,-0.0041 0.074893,0.0076 0.5091743,-0.09029 0.7347348,-0.165663 0.5160586,-0.172448 0.9787406,-0.440767 1.3832946,-0.802201 l 0.09061,-0.080956 0.383823,8.232e-4 c 0.211102,4.528e-4 0.385971,0.00297 0.388596,0.0056 0.0096,0.00963 -0.191244,0.3247889 -0.295905,0.4642469 -0.820347,1.093091 -2.1024247,1.68363 -3.4640741,1.595591 z"
       id="path3024"
       inkscape:connector-curvature="0"
       transform="translate(0,284)" />
    <path
       style="fill:#668000;fill-opacity:1"
       d="m 10.926163,9.9123988 -0.188624,-0.00329 0.109402,-0.1152597 c 0.22044,-0.2322435 0.387137,-0.4494898 0.542269,-0.706709 0.09237,-0.153151 0.238441,-0.4447915 0.289465,-0.5779293 l 0.0307,-0.080102 0.131514,0 0.131514,0 -0.007,0.052481 c -0.06444,0.483013 -0.193692,0.910909 -0.398539,1.3193616 l -0.06004,0.1197112 -0.196019,-0.00248 c -0.107811,-0.00137 -0.2809,-0.00397 -0.384643,-0.00578 l 0,0 z"
       id="path3026"
       inkscape:connector-curvature="0"
       transform="translate(0,284)" />
    <path
       style="fill:#668000;fill-opacity:1"
       d="m 11.716932,8.4247168 c 0,-0.00241 0.01995,-0.064055 0.04433,-0.1369794 0.05892,-0.1762108 0.125321,-0.4414862 0.150607,-0.6016462 0.01127,-0.071401 0.02334,-0.1298204 0.02682,-0.1298204 0.0035,0 0.0179,0.083198 0.03205,0.1848845 0.0229,0.1645651 0.02491,0.2091894 0.01835,0.4060339 -0.0041,0.1216322 -0.01036,0.2348221 -0.014,0.251533 l -0.0066,0.030383 -0.12577,0 c -0.06917,0 -0.12577,-0.00197 -0.12577,-0.00439 z"
       id="path3028"
       inkscape:connector-curvature="0"
       transform="translate(0,284)" />
    <path
       style="fill:#668000;fill-opacity:1"
       d="M 4.4443421,9.8239843 C 4.4164253,9.7708132 4.3640506,9.6577037 4.3279538,9.5726299 4.1757527,9.213918 4.0935055,8.907769 4.0335347,8.4767121 l -0.00644,-0.046306 0.1314437,-0.00341 0.1314438,-0.00341 0.019786,0.055243 C 4.3851553,8.6893115 4.5377021,8.97995 4.7069993,9.2356494 4.8471855,9.4473808 4.9747184,9.6066095 5.1462422,9.784058 l 0.1320403,0.1366011 -0.3915912,0 -0.3915913,0 -0.050758,-0.096675 0,0 z"
       id="path3030"
       inkscape:connector-curvature="0"
       transform="translate(0,284)" />
    <path
       style="fill:#668000;fill-opacity:1"
       d="M 4.0229787,8.3813106 C 4.0192105,8.3559459 4.0129765,8.243214 4.0091255,8.130795 c -0.0061,-0.1780253 -0.0038,-0.2264386 0.017776,-0.3752203 0.025054,-0.1727226 0.042298,-0.246426 0.043738,-0.1869405 0.00252,0.1039285 0.09475,0.4985043 0.1660829,0.7104968 0.024385,0.07247 0.04314,0.1326968 0.041676,0.1338377 -0.00146,0.00114 -0.05799,0.00486 -0.1256146,0.00827 l -0.1229539,0.00619 -0.00685,-0.046117 z"
       id="path3032"
       inkscape:connector-curvature="0"
       transform="translate(0,284)" />
    <path
       style="fill:#88aa00;fill-opacity:1"
       d="M 2.4249582,9.2301251 C 2.2646853,8.7993066 2.1500249,8.3914485 2.1032106,8.0856377 2.0903988,8.001946 2.0980444,7.8928423 2.1226928,7.8076251 c 0.00527,-0.018218 0.059642,-0.019335 0.9412119,-0.019335 l 0.9356196,-3e-7 -0.00392,0.1324469 c -0.0077,0.26008 0.032143,0.6599131 0.093598,0.9392625 0.023845,0.1083865 0.09439,0.3717482 0.1115714,0.4165232 0.00436,0.011356 -0.1658756,0.014671 -0.8728696,0.017 l -0.8782828,0.00289 -0.024662,-0.066291 0,0 z"
       id="path3034"
       inkscape:connector-curvature="0"
       transform="translate(0,284)" />
    <path
       style="fill:#88aa00;fill-opacity:1"
       d="M 2.1269261,7.7827659 C 2.1272014,7.7597193 2.1927809,7.4898341 2.2302866,7.357397 2.2978054,7.11898 2.4022064,6.8290386 2.5067796,6.5895232 l 0.038591,-0.088388 0.8692521,-0.00283 c 0.8246976,-0.00268 0.8689381,-0.00183 0.8631251,0.016573 -0.00337,0.010671 -0.0312,0.091494 -0.061844,0.1796061 C 4.1120788,6.993013 4.0405959,7.3252908 4.0137069,7.6343652 l -0.01337,0.1536807 -0.9367714,0.00288 c -0.6191363,0.00191 -0.9367267,-8.62e-4 -0.9366395,-0.00816 z"
       id="path3036"
       inkscape:connector-curvature="0"
       transform="translate(0,284)" />
    <path
       style="fill:#88aa00;fill-opacity:1"
       d="m 2.5797864,6.421949 c 0,-0.00405 0.036662,-0.077388 0.081472,-0.1629661 C 2.9256626,5.7540205 3.2019688,5.3597402 3.5813418,4.9460524 l 0.1494482,-0.162966 0.9403584,0 c 0.517197,0 0.9356351,0.00415 0.9298622,0.00923 -0.00577,0.00508 -0.060147,0.048581 -0.1208309,0.096675 C 5.2357727,5.0826909 4.9293713,5.4092528 4.7294988,5.6890669 4.5965394,5.8752051 4.4234023,6.1772228 4.3447217,6.3602659 l -0.029682,0.069053 -0.8676265,0 c -0.4771945,0 -0.8676265,-0.00332 -0.8676265,-0.00737 z"
       id="path3038"
       inkscape:connector-curvature="0"
       transform="translate(0,284)" />
    <path
       style="fill:#88aa00;fill-opacity:1"
       d="M 10.74466,5.085055 C 10.353624,4.7218999 9.9397354,4.4593666 9.463029,4.272105 9.1475372,4.1481724 8.8564829,4.0756214 8.446563,4.018731 8.2836583,3.9961224 7.6839747,3.9999969 7.5074368,4.0247986 6.8328806,4.1195667 6.2918716,4.3234565 5.7547717,4.6853246 L 5.6096696,4.7830864 4.6720144,4.7826659 3.7343592,4.7822453 3.8674575,4.6528455 C 4.2523623,4.2786362 4.7576869,3.9225942 5.2826798,3.6557072 l 0.1730269,-0.087961 2.5446453,0 2.544645,0 0.190982,0.098131 c 0.591154,0.3037504 1.071678,0.6551171 1.529848,1.1186484 0.173236,0.1752641 0.389932,0.4153337 0.390132,0.4322153 5.6e-5,0.00456 -0.396406,0.00796 -0.881022,0.00756 L 10.893815,5.2235757 10.74466,5.085055 z"
       id="path3040"
       inkscape:connector-curvature="0"
       transform="translate(0,284)" />
    <path
       style="fill:#88aa00;fill-opacity:1"
       d="m 3.4109404,6.4983053 -0.8647974,-0.00283 0.017105,-0.033078 0.017105,-0.033078 0.8664522,0 0.8664522,0 -0.011562,0.033166 c -0.00636,0.018241 -0.014801,0.0344 -0.01876,0.035908 -0.00396,0.00151 -0.3963573,0.00147 -0.8719959,-8.77e-5 l 0,0 z"
       id="path3042"
       inkscape:connector-curvature="0"
       transform="translate(0,284)" />
    <path
       style="fill:#88aa00;fill-opacity:1"
       d="M 5.518699,3.5389447 C 5.8498444,3.3831672 6.3303649,3.2261284 6.7450873,3.138149 7.8530582,2.9031036 9.0263901,2.9861738 10.079934,3.3742514 c 0.119922,0.044174 0.443526,0.1789354 0.453883,0.1890149 0.0025,0.00246 -1.1385064,0.00443 -2.5356407,0.00437 L 5.457932,3.5675307 5.518699,3.5389447 z"
       id="path3044"
       inkscape:connector-curvature="0"
       transform="translate(0,284)" />
    <path
       style="fill:#88aa00;fill-opacity:1"
       d="m 11.705883,6.4835481 c 0,-0.02431 -0.142427,-0.32052 -0.215373,-0.4479181 C 11.346789,5.7846246 11.151061,5.5133 10.976023,5.3224288 l -0.08932,-0.097401 0.889637,0 0.889637,0 0.116281,0.154565 c 0.227063,0.301822 0.391634,0.5633144 0.560464,0.8905393 0.05986,0.1160165 0.108833,0.2142104 0.108833,0.2182087 0,0.004 -0.392776,0.00727 -0.872835,0.00727 -0.623437,0 -0.872835,-0.00345 -0.872835,-0.012062 z"
       id="path3046"
       inkscape:connector-curvature="0"
       transform="translate(0,284)" />
    <path
       style="fill:#88aa00;fill-opacity:1"
       d="m 11.99899,7.7579067 c -0.02816,-0.3787898 -0.095,-0.7104592 -0.210941,-1.0468495 -0.03351,-0.097227 -0.06381,-0.1855077 -0.06733,-0.1961789 -0.0061,-0.01841 0.03811,-0.019258 0.863693,-0.016573 l 0.870093,0.00283 0.04359,0.099437 c 0.10785,0.246023 0.213746,0.5456247 0.288981,0.8175922 0.03486,0.1260215 0.09537,0.3902698 0.09537,0.4164972 0,0.019038 -0.04154,0.01992 -0.938134,0.01992 l -0.938134,0 -0.0072,-0.096675 0,0 z"
       id="path3048"
       inkscape:connector-curvature="0"
       transform="translate(0,284)" />
    <path
       style="fill:#88aa00;fill-opacity:1"
       d="M 2.8312342,10.054479 C 2.7566679,9.9312464 2.5852949,9.5960343 2.5171138,9.4400474 l -0.057951,-0.1325825 0.7149381,-0.00674 c 0.393216,-0.00371 0.7863515,-0.00819 0.8736345,-0.00997 l 0.1586965,-0.00323 0.047203,0.1259809 c 0.089822,0.239728 0.2328878,0.5316486 0.3426529,0.6991716 l 0.018972,0.02895 -0.8658192,-2.87e-4 -0.8658192,-2.86e-4 -0.052387,-0.08658 z"
       id="path3050"
       inkscape:connector-curvature="0"
       transform="translate(0,284)" />
    <path
       style="fill:#88aa00;fill-opacity:1"
       d="M 3.7028863,11.191075 C 3.3953856,10.869854 3.1019781,10.495677 2.9124608,10.183062 l -0.025117,-0.04143 0.8654497,3.84e-4 0.8654496,3.85e-4 0.079567,0.119097 c 0.2281761,0.34154 0.5718329,0.700597 0.9128324,0.953737 l 0.086418,0.06415 -0.9520563,0.0029 -0.9520563,0.0029 -0.090061,-0.09408 z"
       id="path3052"
       inkscape:connector-curvature="0"
       transform="translate(0,284)" />
    <path
       style="fill:#88aa00;fill-opacity:1"
       d="M 4.7288121,12.030312 C 4.396282,11.811028 4.150553,11.617578 3.8996424,11.377548 l -0.088833,-0.08498 0.9450954,-0.0042 0.9450954,-0.0042 0.1160098,0.07347 c 0.457584,0.28977 0.8887119,0.465824 1.3914868,0.568221 0.4806,0.09788 1.0205322,0.102105 1.5230619,0.01191 0.5553712,-0.09968 1.1428406,-0.351281 1.6098296,-0.689465 0.17847,-0.129244 0.457542,-0.372947 0.555368,-0.484982 l 0.05564,-0.06372 0.880043,0.0029 0.880044,0.0029 -0.03554,0.04949 c -0.06403,0.08916 -0.284459,0.335141 -0.438672,0.489523 -0.304407,0.304741 -0.627368,0.566472 -0.981912,0.795752 l -0.156738,0.101361 -3.0969746,0.0027 -3.0969745,0.0027 -0.1768608,-0.116629 z"
       id="path3054"
       inkscape:connector-curvature="0"
       transform="translate(0,284)" />
    <path
       style="fill:#88aa00;fill-opacity:1"
       d="M 7.7548655,12.990908 C 6.97628,12.960357 6.2133855,12.778953 5.5060093,12.456167 5.3604788,12.389759 5.0886708,12.249537 4.9883689,12.189123 l -0.060767,-0.0366 2.9454644,-2.9e-5 c 1.6200053,-1.5e-5 3.0071497,-0.003 3.0825437,-0.0065 l 0.137079,-0.0065 -0.104961,0.06206 c -0.05773,0.03413 -0.191968,0.105723 -0.298311,0.159085 -0.9127999,0.458039 -1.9032424,0.670775 -2.9345515,0.630308 z"
       id="path3056"
       inkscape:connector-curvature="0"
       transform="translate(0,284)" />
    <path
       style="fill:#88aa00;fill-opacity:1"
       d="m 12.617388,10.703513 c -0.05469,-0.0039 -0.449064,-0.0076 -0.876385,-0.0083 l -0.776949,-0.0012 0.08224,-0.09668 c 0.167772,-0.197215 0.332151,-0.43455 0.470616,-0.6794851 l 0.03591,-0.063529 0.8612,0 0.861201,0 -0.02394,0.046956 c -0.07983,0.1565529 -0.296942,0.4930369 -0.447334,0.6932959 l -0.08712,0.11601 -0.09944,-0.0071 z"
       id="path3058"
       inkscape:connector-curvature="0"
       transform="translate(0,284)" />
    <path
       style="fill:#88aa00;fill-opacity:1"
       d="M 11.616852,9.7190231 C 11.753614,9.4301163 11.86222,9.103358 11.922984,8.7979777 l 0.02943,-0.1479011 0.904249,0 c 0.769055,0 0.904249,0.00232 0.904249,0.015517 0,0.024026 -0.09399,0.3102161 -0.153518,0.4674451 -0.07793,0.2058402 -0.136005,0.339641 -0.235147,0.5417907 l -0.08805,0.1795388 -0.865705,0 -0.865705,0 0.06407,-0.1353447 z"
       id="path3060"
       inkscape:connector-curvature="0"
       transform="translate(0,284)" />
    <path
       style="fill:#88aa00;fill-opacity:1"
       d="m 12.851975,8.6528396 -0.903412,-0.00289 0.0054,-0.024795 c 0.02564,-0.1184659 0.05001,-0.4162679 0.05015,-0.6130065 l 1.14e-4,-0.1573187 0.93961,-0.00289 c 0.931706,-0.00286 0.939654,-0.0027 0.944807,0.019212 0.02938,0.1249257 0.02233,0.1900643 -0.05706,0.5270874 -0.05745,0.2438769 -0.06262,0.2631744 -0.06974,0.2601868 -0.0035,-0.00148 -0.412961,-0.004 -0.909838,-0.00559 l 0,0 z"
       id="path3062"
       inkscape:connector-curvature="0"
       transform="translate(0,284)" />
    <path
       style="fill:#88aa00;fill-opacity:1"
       d="m 2.541825,9.3057414 c 0.0038,-9.904e-4 0.00907,-9.253e-4 0.011719,1.447e-4 0.00264,0.00107 -4.65e-4,0.00188 -0.00691,0.0018 -0.00645,-7.96e-5 -0.00861,-9.551e-4 -0.00481,-0.00195 z"
       id="path3064"
       inkscape:connector-curvature="0"
       transform="translate(0,284)" />
    <path
       style="fill:#88aa00;fill-opacity:1"
       d="M 2.8580925,10.094581 C 2.7445132,9.9045778 2.6005607,9.6230255 2.4953002,9.3850073 c -0.017958,-0.040607 -0.032651,-0.0742 -0.032651,-0.07465 0,-4.501e-4 0.1243653,-0.00201 0.2763672,-0.00346 0.2780618,-0.00266 1.2168488,-0.0128 1.3791654,-0.014899 l 0.087173,-0.00113 0.036314,0.095703 c 0.019973,0.052637 0.044642,0.1158358 0.054821,0.1404424 0.090264,0.2182089 0.2134434,0.4589444 0.3084003,0.6027212 l 0.00709,0.01074 -0.8632278,0 -0.8632279,0 -0.027437,-0.0459 0,0 z"
       id="path3066"
       inkscape:connector-curvature="0"
       transform="translate(0,284)" />
    <path
       style="fill:#88aa00;fill-opacity:1"
       d="m 2.4548326,9.3016125 c 3.2e-6,-0.00388 0.076292,-0.00475 0.3701212,-0.00424 l 0.3701172,6.395e-4 -0.2929688,0.00311 c -0.1611328,0.00171 -0.3276873,0.00362 -0.3701212,0.00424 -0.059724,8.781e-4 -0.077151,3.13e-5 -0.077148,-0.00375 z"
       id="path3068"
       inkscape:connector-curvature="0"
       transform="translate(0,284)" />
    <path
       style="fill:#aad400;fill-opacity:1"
       d="m 7.7273801,13.990407 c -0.021484,-0.0016 -0.1098137,-0.0084 -0.1962874,-0.01492 -1.168981,-0.0888 -2.297231,-0.526637 -3.2177751,-1.248708 -0.1251978,-0.09821 -0.2640797,-0.216225 -0.259654,-0.22065 0.00165,-0.0017 0.3507858,-0.0031 0.775858,-0.0032 l 0.7728585,-2.09e-4 0.09375,0.03979 c 0.5570566,0.236442 1.2151096,0.392618 1.8632812,0.442212 0.1975131,0.01511 0.6534893,0.01692 0.8398438,0.0033 0.6763383,-0.04934 1.3202001,-0.200268 1.9105179,-0.447847 l 0.09802,-0.04111 0.773076,0.0024 0.773076,0.0024 -0.03906,0.03549 c -0.07413,0.06735 -0.305057,0.249068 -0.429687,0.338137 -0.887681,0.634392 -1.8964762,1.003323 -3.0039067,1.098572 -0.135125,0.01162 -0.6590993,0.02165 -0.7539062,0.01443 z"
       id="path3070"
       inkscape:connector-curvature="0"
       transform="translate(0,284)" />
    <path
       style="fill:#aad400;fill-opacity:1"
       d="M 3.8910417,12.363217 C 3.6642995,12.149138 3.4673334,11.933562 3.272816,11.68658 3.1874816,11.578229 2.9897675,11.301566 2.9893274,11.289892 c -1.257e-4,-0.0033 0.1825163,-0.0051 0.4058712,-0.0039 l 0.4060998,0.0022 0.072416,0.07083 c 0.1481389,0.144889 0.3307851,0.299398 0.5304866,0.448763 0.1264959,0.09461 0.4924103,0.343691 0.5049057,0.343691 0.00362,0 0.038203,0.01869 0.076859,0.04153 0.1054232,0.0623 0.3359837,0.183133 0.4659451,0.244201 l 0.115155,0.05411 -0.087811,0.0048 c -0.048296,0.0027 -0.3920933,0.0053 -0.7639935,0.0059 l -0.6761822,0.001 -0.1480365,-0.139769 z"
       id="path3072"
       inkscape:connector-curvature="0"
       transform="translate(0,284)" />
    <path
       style="fill:#aad400;fill-opacity:1"
       d="m 10.778894,12.326927 c 0.549349,-0.285483 0.982065,-0.603902 1.447664,-1.065283 l 0.256118,-0.253798 0.349623,0.0061 0.349622,0.0061 -0.189818,0.281514 c -0.248759,0.368927 -0.409054,0.564456 -0.74291,0.906205 l -0.27523,0.281737 -0.753063,-4.66e-4 -0.753063,-4.67e-4 0.311057,-0.161648 z"
       id="path3074"
       inkscape:connector-curvature="0"
       transform="translate(0,284)" />
    <path
       style="fill:#aad400;fill-opacity:1"
       d="m 11.031313,12.468076 -0.475087,-0.01171 0.255748,-0.136931 c 0.521575,-0.279259 0.888715,-0.548626 1.390485,-1.020188 l 0.29831,-0.280352 0.327695,0.01163 0.327694,0.01163 -0.191872,0.276214 c -0.265297,0.381915 -0.39575,0.539762 -0.725918,0.878359 l -0.285498,0.292786 -0.223235,-0.0049 c -0.122779,-0.0027 -0.437024,-0.01013 -0.698322,-0.01657 z"
       id="path3076"
       inkscape:connector-curvature="0"
       transform="translate(0,284)" />
    <path
       style="fill:#aad400;fill-opacity:1"
       d="m 12.525474,10.991126 c -0.0065,-0.01047 0.05093,-0.09446 0.12757,-0.186635 0.245345,-0.295097 0.613496,-0.8660575 0.74397,-1.1538118 l 0.06542,-0.1442775 0.166998,0 c 0.148545,0 0.165769,0.00427 0.155888,0.03867 -0.0061,0.021268 -0.03251,0.1132476 -0.05868,0.204398 -0.07413,0.2582694 -0.252091,0.6922664 -0.403216,0.9833204 l -0.137683,0.265165 -0.324251,0.0061 c -0.178339,0.0034 -0.329547,-0.0025 -0.336019,-0.01294 z"
       id="path3078"
       inkscape:connector-curvature="0"
       transform="translate(0,284)" />
    <path
       style="fill:#aad400;fill-opacity:1"
       d="m 12.463858,11.019687 c 0.0025,-0.0065 0.125842,-0.146423 0.127578,-0.144687 8.75e-4,8.75e-4 -0.0099,0.01754 -0.02385,0.03703 -0.02532,0.03527 -0.04839,0.07693 -0.04466,0.08066 0.0011,0.0011 0.01318,0.0041 0.02689,0.0067 0.02691,0.0051 0.55752,0.006 0.610872,9.69e-4 l 0.02751,-0.0026 0.09056,-0.174555 c 0.153509,-0.295878 0.27252,-0.563773 0.368619,-0.8297627 0.01415,-0.039169 0.02715,-0.069299 0.02991,-0.069336 0.0027,-3.63e-5 0.0049,5.041e-4 0.0049,0.0012 0,6.969e-4 -0.01151,0.033656 -0.02558,0.073242 -0.09198,0.2588466 -0.188438,0.4825626 -0.313969,0.7282256 -0.04592,0.08986 -0.127718,0.240186 -0.154917,0.284693 -0.004,0.0066 -0.01964,0.0066 -0.354983,5.42e-4 l -0.350755,-0.0064 -0.0098,0.009 c -0.0054,0.005 -0.0091,0.0072 -0.0083,0.005 l 0,0 z"
       id="path3080"
       inkscape:connector-curvature="0"
       transform="translate(0,284)" />
    <path
       style="fill:#aad400;fill-opacity:1"
       d="m 13.674355,9.9217355 c 0,-0.00164 0.0099,-0.032987 0.02192,-0.069662 0.02965,-0.090167 0.09136,-0.3058616 0.09136,-0.3193216 0,-0.00748 -0.0033,-0.013002 -0.01056,-0.017777 -0.0096,-0.00628 -0.02496,-0.00704 -0.164385,-0.00815 -0.116777,-9.291e-4 -0.153354,-0.00234 -0.151876,-0.00586 0.0011,-0.00255 0.01716,-0.038913 0.03575,-0.080807 0.09201,-0.207322 0.203042,-0.512197 0.262118,-0.7197029 l 0.01528,-0.053687 0.09507,-2.36e-5 0.09507,-2.37e-5 -0.0022,0.014648 c -0.0012,0.00806 -0.0041,0.032227 -0.0064,0.053711 -0.02371,0.2176343 -0.07764,0.509741 -0.139181,0.7539062 -0.04345,0.1723895 -0.127604,0.4509557 -0.137193,0.4541523 -0.0026,8.673e-4 -0.0047,2.355e-4 -0.0047,-0.0014 z"
       id="path3082"
       inkscape:connector-curvature="0"
       transform="translate(0,284)" />
    <path
       style="fill:#aad400;fill-opacity:1"
       d="m 13.777006,8.6398856 c 0.04244,-0.1451267 0.09325,-0.3681197 0.132704,-0.5824341 l 0.0089,-0.048254 0.0109,0.071692 c 0.006,0.03943 0.01611,0.1147583 0.02247,0.167395 0.0064,0.052637 0.01298,0.1027344 0.0147,0.1113281 0.0029,0.014402 0.0034,0.013026 0.0061,-0.017578 0.0037,-0.041504 0.01725,-0.1698129 0.01964,-0.1855469 0.0037,-0.024508 -0.002,0.156245 -0.0076,0.2402344 -0.0057,0.085738 -0.01495,0.1941765 -0.01969,0.2314453 l -0.0024,0.018555 -0.09384,0 c -0.08753,0 -0.0937,-4.597e-4 -0.09184,-0.00684 z"
       id="path3084"
       inkscape:connector-curvature="0"
       transform="translate(0,284)" />
    <path
       style="fill:#aad400;fill-opacity:1"
       d="m 13.967826,8.3478934 c -3.03e-4,-0.00215 -0.004,-0.03291 -0.0083,-0.068359 -0.0092,-0.076542 -0.02059,-0.1584049 -0.03194,-0.2292318 l -0.0083,-0.051497 0.01029,-0.06569 c 0.01096,-0.069939 0.02154,-0.1485682 0.03195,-0.2375651 0.0035,-0.030078 0.0068,-0.055092 0.0073,-0.055588 4.88e-4,-4.951e-4 0.0029,0.022356 0.0055,0.050781 0.0025,0.028425 0.008,0.08471 0.01227,0.1250794 0.01541,0.1470711 0.01461,0.2337515 -0.0037,0.3973051 -0.0042,0.037598 -0.0092,0.08418 -0.0111,0.1035156 -0.0019,0.019336 -0.0037,0.033398 -0.004,0.03125 z"
       id="path3086"
       inkscape:connector-curvature="0"
       transform="translate(0,284)" />
    <path
       style="fill:#aad400;fill-opacity:1"
       d="M 13.905461,7.9170924 C 13.838994,7.5443132 13.727157,7.1514172 13.58555,6.7932059 c -0.01614,-0.04082 -0.03019,-0.076416 -0.03123,-0.079102 -0.0015,-0.00386 0.03022,-0.00488 0.150718,-0.00488 l 0.152612,0 0.0039,0.014648 c 0.0067,0.025437 0.03523,0.1716953 0.04925,0.2529296 0.04574,0.2649372 0.07721,0.5743872 0.08159,0.8024415 9.32e-4,0.048501 9.15e-4,0.082031 -3.5e-5,0.074512 -0.0031,-0.024663 -0.02111,-0.2093085 -0.02111,-0.2167202 0,-0.022975 -0.0053,0.00771 -0.01566,0.091316 -0.01032,0.083054 -0.03385,0.2512942 -0.03622,0.2590559 -4.7e-4,0.00154 -0.0067,-0.030105 -0.01389,-0.070312 l 0,0 z"
       id="path3088"
       inkscape:connector-curvature="0"
       transform="translate(0,284)" />
    <path
       style="fill:#aad400;fill-opacity:1"
       d="M 13.541029,6.6818778 C 13.397982,6.3368037 13.210937,5.9889793 12.993308,5.6633492 l -0.06068,-0.090794 0.276137,-0.001 0.276137,-0.001 0.02075,0.046875 c 0.08972,0.2026703 0.187429,0.4742061 0.256514,0.7128907 0.03054,0.1054986 0.09578,0.362501 0.09578,0.3772827 0,7.949e-4 -0.06857,0.00192 -0.152388,0.00251 l -0.152387,0.00107 -0.01215,-0.029297 z"
       id="path3090"
       inkscape:connector-curvature="0"
       transform="translate(0,284)" />
    <path
       style="fill:#aad400;fill-opacity:1"
       d="m 12.888181,5.5100028 c -0.293351,-0.408206 -0.64634,-0.7899915 -1.01656,-1.0994899 -0.02793,-0.023349 -0.05425,-0.045672 -0.05849,-0.049606 -0.0075,-0.00694 0.0068,-0.00715 0.470703,-0.00714 l 0.478408,1.48e-5 0.01717,0.022225 c 0.153621,0.1988986 0.32946,0.4685136 0.467508,0.7168346 0.07684,0.1382182 0.240639,0.4685405 0.235091,0.4740891 -7.24e-4,7.232e-4 -0.124841,0.00183 -0.275817,0.00247 l -0.274501,0.00115 -0.04351,-0.060547 z"
       id="path3092"
       inkscape:connector-curvature="0"
       transform="translate(0,284)" />
    <path
       style="fill:#aad400;fill-opacity:1"
       d="M 11.757611,4.3154446 C 11.689027,4.2602771 11.52587,4.1380629 11.447792,4.0833712 10.725729,3.5775805 9.8995626,3.2372626 9.0278706,3.0865469 l -0.078125,-0.013508 1.2357494,-2.682e-4 1.235748,-2.681e-4 0.04745,0.033844 c 0.371016,0.2646036 0.709274,0.5677877 1.012554,0.9075626 0.07865,0.088111 0.190869,0.222981 0.25672,0.3085292 l 0.0226,0.029361 -0.131975,9.701e-4 c -0.07259,5.335e-4 -0.286991,0.00141 -0.476454,0.00195 l -0.344478,9.831e-4 -0.05005,-0.040261 z"
       id="path3094"
       inkscape:connector-curvature="0"
       transform="translate(0,284)" />
    <path
       style="fill:#aad400;fill-opacity:1"
       d="m 6.2329487,2.7641396 c 0,-0.2727248 0.00149,-0.4967853 0.00332,-0.4979123 0.00679,-0.0042 0.2087083,-0.060855 0.2916065,-0.081823 0.9923189,-0.2509993 2.0516827,-0.2423457 3.0397481,0.024831 0.3847745,0.1040445 0.7423363,0.2405247 1.1067363,0.4224378 0.244646,0.1221305 0.423452,0.2256995 0.652344,0.3778551 l 0.0918,0.061022 -1.236329,0.00103 C 8.9649484,3.0726027 8.9450544,3.0724986 8.8950581,3.0648475 8.4873645,3.0024574 8.0322288,2.9839414 7.6001362,3.012167 7.1512931,3.0414869 6.693103,3.1231078 6.2842115,3.2465829 c -0.024442,0.00738 -0.045975,0.01342 -0.047851,0.01342 -0.00193,0 -0.00341,-0.2158573 -0.00341,-0.4958632 z"
       id="path3096"
       inkscape:connector-curvature="0"
       transform="translate(0,284)" />
    <path
       style="fill:#aad400;fill-opacity:1"
       d="M 4.0169436,3.5164537 C 4.5497623,3.039582 5.2018717,2.6438429 5.8716206,2.3909244 5.9804171,2.3498394 6.2195992,2.2678153 6.2306066,2.2678153 c 0.00129,0 0.00234,0.2239305 0.00234,0.4976234 l 0,0.4976234 -0.010742,0.00258 c -0.021575,0.00517 -0.200191,0.064672 -0.2705078,0.090109 C 5.8067968,3.4081651 5.602161,3.4916979 5.4930101,3.5429849 l -0.046194,0.021705 -0.741884,0 -0.7418841,0 0.053896,-0.048237 z"
       id="path3098"
       inkscape:connector-curvature="0"
       transform="translate(0,284)" />
    <path
       style="fill:#aad400;fill-opacity:1"
       d="M 2.9443303,4.7726981 C 2.9990221,4.6826179 3.1506765,4.4671091 3.2501392,4.3381278 3.4464998,4.083491 3.6895556,3.8168804 3.9170017,3.6066387 l 0.045381,-0.041948 0.7413248,0 0.7413249,0 -0.1167842,0.058328 C 5.0982129,3.7379108 4.9018861,3.8504958 4.6958393,3.9856781 4.3715474,4.1984383 4.0246215,4.4797133 3.7701144,4.7362226 l -0.050725,0.051124 -0.3919766,0 -0.3919765,0 0.00889,-0.014648 z"
       id="path3100"
       inkscape:connector-curvature="0"
       transform="translate(0,284)" />
    <path
       style="fill:#aad400;fill-opacity:1"
       d="m 2.5080158,5.5871512 c 0.117858,-0.2675604 0.251471,-0.519677 0.410907,-0.7753476 l 0.015198,-0.024371 0.3920516,-4.3e-5 0.3920515,-4.3e-5 -0.054644,0.057617 C 3.4267853,5.0946402 3.204021,5.3677761 3.0520048,5.5948278 l -0.031947,0.047716 -0.2682809,1.358e-4 -0.2682809,1.359e-4 0.024519,-0.055664 z"
       id="path3102"
       inkscape:connector-curvature="0"
       transform="translate(0,284)" />
    <path
       style="fill:#aad400;fill-opacity:1"
       d="m 2.1452056,6.69262 c 0.00392,-0.023372 0.048487,-0.2028765 0.070064,-0.2822266 0.044806,-0.1647732 0.1060002,-0.3529851 0.1708238,-0.5253906 0.030616,-0.081426 0.092514,-0.2347799 0.096583,-0.2392852 0.00147,-0.00163 0.1224559,-0.00251 0.2688603,-0.00195 l 0.2661898,0.001 -0.037225,0.056641 C 2.8990516,5.8253437 2.822519,5.9520214 2.7400659,6.0993822 2.6577793,6.2464454 2.5246187,6.5214825 2.457575,6.6828543 l -0.010955,0.026367 -0.1521011,0 -0.1521011,0 0.00279,-0.016602 0,0 z"
       id="path3104"
       inkscape:connector-curvature="0"
       transform="translate(0,284)" />
    <path
       style="fill:#aad400;fill-opacity:1"
       d="m 2.0414611,7.717034 c -0.00529,-0.046191 -0.01016,-0.07959 -0.010815,-0.074219 -6.544e-4,0.00537 -0.00418,0.03951 -0.00784,0.075863 -0.00488,0.048504 -0.0081,0.066576 -0.012089,0.067893 -0.00456,0.0015 -0.005,-0.00699 -0.00273,-0.052426 0.013518,-0.2709501 0.036173,-0.4859921 0.076885,-0.7297832 0.018657,-0.1117201 0.053444,-0.288004 0.057667,-0.292227 0.00165,-0.00165 0.07074,-0.00255 0.1535238,-0.00198 l 0.1505165,0.00102 -0.020347,0.050781 C 2.2989413,7.0796297 2.1863492,7.4528019 2.1236277,7.7648856 l -0.00451,0.022461 -0.03264,0 c -0.027958,0 -0.032837,9.806e-4 -0.034014,0.00684 -7.557e-4,0.00376 -0.00571,-0.030957 -0.010999,-0.077148 l 0,0 z"
       id="path3106"
       inkscape:connector-curvature="0"
       transform="translate(0,284)" />
    <path
       style="fill:#aad400;fill-opacity:1"
       d="m 2.0284058,8.3244559 c -0.00167,-0.019336 -0.0074,-0.074707 -0.012753,-0.1230469 -0.00582,-0.052594 -0.010593,-0.1231869 -0.011885,-0.1757812 -0.00221,-0.090057 0.00227,-0.155898 0.021417,-0.3143192 l 0.00659,-0.054554 0.014937,0.1111942 c 0.00822,0.061157 0.019155,0.1377874 0.02431,0.1702902 l 0.00937,0.059096 -0.013507,0.089342 c -0.012334,0.081586 -0.024716,0.1752993 -0.032449,0.2455915 l -0.00301,0.027344 -0.00303,-0.035156 0,0 z"
       id="path3108"
       inkscape:connector-curvature="0"
       transform="translate(0,284)" />
    <path
       style="fill:#aad400;fill-opacity:1"
       d="m 2.0797796,7.9787528 c -0.00635,-0.024091 -0.026716,-0.1810487 -0.023854,-0.1838776 0.00176,-0.00174 0.017019,-0.0044 0.033915,-0.00592 0.029001,-0.00261 0.030595,-0.00235 0.028476,0.00465 -0.00239,0.00788 -0.032488,0.1686349 -0.034671,0.1851497 l -0.00129,0.00977 -0.00258,-0.00977 z"
       id="path3110"
       inkscape:connector-curvature="0"
       transform="translate(0,284)" />
    <path
       style="fill:#aad400;fill-opacity:1"
       d="m 2.0962299,9.0662662 c 0,-0.00128 -0.00521,-0.033362 -0.01158,-0.071289 -0.032158,-0.1914938 -0.057901,-0.4154595 -0.070337,-0.6119276 -0.005,-0.079066 -0.012603,-0.2602973 -0.010981,-0.2619191 6.729e-4,-6.729e-4 0.00609,0.047437 0.012047,0.1069103 0.012923,0.1291093 0.014865,0.1461257 0.016486,0.1445044 6.815e-4,-6.815e-4 0.00493,-0.033753 0.00943,-0.073492 0.00831,-0.073299 0.032525,-0.2472975 0.038241,-0.2747861 0.00289,-0.013879 0.00367,-0.011781 0.010156,0.027344 0.035424,0.2135331 0.1077222,0.5137904 0.1785662,0.7415954 0.026545,0.085358 0.077748,0.2383852 0.087898,0.2626953 l 0.0053,0.012695 -0.1326132,0 c -0.072937,0 -0.1326132,-0.00105 -0.1326132,-0.00233 z"
       id="path3112"
       inkscape:connector-curvature="0"
       transform="translate(0,284)" />
    <path
       style="fill:#aad400;fill-opacity:1"
       d="M 2.3743863,10.083245 C 2.2606496,9.7753049 2.1692357,9.4490668 2.1119669,9.1467215 c -0.00671,-0.035449 -0.013128,-0.067552 -0.014252,-0.071341 -0.00193,-0.0065 0.00549,-0.00683 0.1314237,-0.00586 l 0.1334676,0.00103 0.040532,0.1074219 c 0.022292,0.059082 0.043906,0.1144531 0.048029,0.1230469 0.00412,0.00859 0.021103,0.047266 0.037731,0.085937 0.071825,0.1670395 0.1738211,0.3751206 0.2575332,0.5253906 0.03166,0.056832 0.1063182,0.1852155 0.1219888,0.2097735 0.00713,0.01118 0.012966,0.02128 0.012966,0.02246 0,0.0012 -0.1087999,0.0021 -0.2417775,0.0021 l -0.2417775,0 -0.023445,-0.06348 z"
       id="path3114"
       inkscape:connector-curvature="0"
       transform="translate(0,284)" />
    <path
       style="fill:#aad400;fill-opacity:1"
       d="m 2.9748163,11.275677 c -0.00503,-0.0075 -0.030004,-0.04702 -0.055498,-0.08771 -0.1936594,-0.309108 -0.3478232,-0.610598 -0.483494,-0.945544 l -0.037974,-0.09375 0.2427446,-0.002 0.2427445,-0.002 0.022971,0.03711 c 0.012634,0.02041 0.051508,0.08018 0.086385,0.132812 0.2185531,0.329835 0.4511482,0.616713 0.733514,0.904699 l 0.065527,0.06683 -0.3604486,-0.0017 c -0.1982467,-9.2e-4 -0.3799962,-2.05e-4 -0.4038878,0.0016 l -0.043439,0.0033 -0.00914,-0.01372 0,0 z"
       id="path3116"
       inkscape:connector-curvature="0"
       transform="translate(0,284)" />
  </g>
</svg>
