<?xml version="1.0" encoding="UTF-8" standalone="no"?>
<!-- Created with Inkscape (http://www.inkscape.org/) -->

<svg
   xmlns:dc="http://purl.org/dc/elements/1.1/"
   xmlns:cc="http://creativecommons.org/ns#"
   xmlns:rdf="http://www.w3.org/1999/02/22-rdf-syntax-ns#"
   xmlns:svg="http://www.w3.org/2000/svg"
   xmlns="http://www.w3.org/2000/svg"
   xmlns:xlink="http://www.w3.org/1999/xlink"
   xmlns:sodipodi="http://sodipodi.sourceforge.net/DTD/sodipodi-0.dtd"
   xmlns:inkscape="http://www.inkscape.org/namespaces/inkscape"
   inkscape:export-ydpi="90.000000"
   inkscape:export-xdpi="90.000000"
   width="16"
   height="16"
   id="svg11300"
   sodipodi:version="0.32"
   inkscape:version="0.48.5 r10040"
   sodipodi:docname="radiobutton-checked-focused.svg"
   inkscape:output_extension="org.inkscape.output.svg.inkscape"
   version="1.0"
   style="display:inline;enable-background:new">
  <sodipodi:namedview
     stroke="#ef2929"
     fill="#f57900"
     id="base"
     pagecolor="#8c8c8c"
     bordercolor="#ff5e00"
     borderopacity="1"
     inkscape:pageopacity="1"
     inkscape:pageshadow="2"
     inkscape:zoom="15.431818"
     inkscape:cx="-12.850846"
     inkscape:cy="17.212391"
     inkscape:current-layer="layer1"
     showgrid="true"
     inkscape:grid-bbox="true"
     inkscape:document-units="px"
     inkscape:showpageshadow="false"
     inkscape:window-width="1920"
     inkscape:window-height="1005"
     inkscape:window-x="0"
     inkscape:window-y="25"
     width="400px"
     height="300px"
     inkscape:snap-nodes="true"
     inkscape:snap-bbox="true"
     gridtolerance="10000"
     inkscape:object-nodes="true"
     inkscape:snap-grids="true"
     showguides="true"
     inkscape:guide-bbox="true"
     inkscape:window-maximized="1"
     inkscape:bbox-nodes="true"
     inkscape:bbox-paths="false"
     inkscape:snap-bbox-edge-midpoints="false"
     inkscape:snap-bbox-midpoints="false"
     objecttolerance="10000"
     guidetolerance="10000"
     borderlayer="true"
     showborder="true"
     guidecolor="#ff0b00"
     guideopacity="1"
     guidehicolor="#001aff"
     guidehiopacity="0.49803922"
     inkscape:snap-smooth-nodes="true">
    <inkscape:grid
       type="xygrid"
       id="grid3123"
       empspacing="4"
       visible="true"
       enabled="true"
       snapvisiblegridlinesonly="true" />
  </sodipodi:namedview>
  <defs
     id="defs3">
    <linearGradient
       id="linearGradient4246">
      <stop
         style="stop-color:#6397c9;stop-opacity:1;"
         offset="0"
         id="stop4248" />
      <stop
         style="stop-color:#8db3d7;stop-opacity:1;"
         offset="1"
         id="stop4250" />
    </linearGradient>
    <linearGradient
       id="linearGradient3771">
      <stop
         style="stop-color:#ffffff;stop-opacity:1;"
         offset="0"
         id="stop3773" />
      <stop
         style="stop-color:#eaeaea;stop-opacity:1;"
         offset="1"
         id="stop3775" />
    </linearGradient>
    <linearGradient
       inkscape:collect="always"
       xlink:href="#linearGradient3771"
       id="linearGradient4044"
       x1="17.333334"
       y1="13.83333"
       x2="17.333334"
       y2="0.99999666"
       gradientUnits="userSpaceOnUse" />
    <linearGradient
       inkscape:collect="always"
       xlink:href="#linearGradient4246"
       id="linearGradient4252"
       x1="17.333334"
       y1="14.999996"
       x2="17.333334"
       y2="0.99999666"
       gradientUnits="userSpaceOnUse" />
    <linearGradient
       inkscape:collect="always"
       xlink:href="#linearGradient3771"
       id="linearGradient4357"
       gradientUnits="userSpaceOnUse"
       x1="17.333334"
       y1="13.83333"
       x2="17.333334"
       y2="0.99999666" />
    <linearGradient
       inkscape:collect="always"
       xlink:href="#linearGradient3771"
       id="linearGradient4359"
       gradientUnits="userSpaceOnUse"
       x1="17.333334"
       y1="13.83333"
       x2="17.333334"
       y2="0.99999666"
       gradientTransform="matrix(0.42857102,0,0,0.42857102,4.5714318,4.57143)" />
  </defs>
  <metadata
     id="metadata4">
    <rdf:RDF>
      <cc:Work
         rdf:about="">
        <dc:format>image/svg+xml</dc:format>
        <dc:type
           rdf:resource="http://purl.org/dc/dcmitype/StillImage" />
        <dc:creator>
          <cc:Agent>
            <dc:title />
          </cc:Agent>
        </dc:creator>
        <dc:source />
        <cc:license
           rdf:resource="" />
        <dc:title />
        <dc:subject>
          <rdf:Bag />
        </dc:subject>
        <dc:date />
        <dc:rights>
          <cc:Agent>
            <dc:title />
          </cc:Agent>
        </dc:rights>
        <dc:publisher>
          <cc:Agent>
            <dc:title />
          </cc:Agent>
        </dc:publisher>
        <dc:identifier />
        <dc:relation />
        <dc:language />
        <dc:coverage />
        <dc:description />
        <dc:contributor>
          <cc:Agent>
            <dc:title />
          </cc:Agent>
        </dc:contributor>
      </cc:Work>
      <cc:Work
         rdf:about="">
        <dc:format>image/svg+xml</dc:format>
        <dc:type
           rdf:resource="http://purl.org/dc/dcmitype/StillImage" />
      </cc:Work>
    </rdf:RDF>
  </metadata>
  <g
     style="display:inline"
     inkscape:groupmode="layer"
     inkscape:label="Base"
     id="layer1"
     transform="translate(0,-284)">
    <path
       sodipodi:type="arc"
       style="opacity:0.6;fill:#000000;fill-opacity:1;stroke:none"
       id="path4034"
       sodipodi:cx="8"
       sodipodi:cy="8"
       sodipodi:rx="7"
       sodipodi:ry="7"
       d="m 15,8 c 0,3.865993 -3.134007,7 -7,7 C 4.1340068,15 1,11.865993 1,8 1,4.1340068 4.1340068,1 8,1 c 3.865993,0 7,3.1340068 7,7 z"
       transform="translate(0,284)" />
    <path
       style="opacity:0.29999999999999999;fill:#ffffff;fill-opacity:0.29803923;stroke:none"
       d="M 1.03125 8.5 C 1.0195795 8.6652555 1 8.8317746 1 9 C 1 12.865993 4.1340068 16 8 16 C 11.865993 16 15 12.865993 15 9 C 15 8.8317746 14.98042 8.6652555 14.96875 8.5 C 14.712221 12.132486 11.697768 15 8 15 C 4.3022322 15 1.2877786 12.132486 1.03125 8.5 z "
       transform="translate(0,284)"
       id="path4087" />
    <path
       sodipodi:type="arc"
       style="fill:url(#linearGradient4252);fill-opacity:1;stroke:none"
       id="path4236"
       sodipodi:cx="8"
       sodipodi:cy="8"
       sodipodi:rx="7"
       sodipodi:ry="7"
       d="m 15,8 c 0,3.865993 -3.134007,7 -7,7 C 4.1340068,15 1,11.865993 1,8 1,4.1340068 4.1340068,1 8,1 c 3.865993,0 7,3.1340068 7,7 z"
       transform="matrix(0.85714286,0,0,0.85714286,1.1428571,285.14286)" />
    <path
       style="opacity:0.15;fill:#ffffff;fill-opacity:1;stroke:none"
       d="m 8,286 c -3.3137085,0 -6,2.68629 -6,6 0,0.12447 0.023779,0.25241 0.03125,0.375 C 2.33851,289.34946 4.8933983,287 8,287 c 3.106602,0 5.66149,2.34946 5.96875,5.375 C 13.976221,292.25241 14,292.12447 14,292 c 0,-3.31371 -2.686291,-6 -6,-6 z"
       id="path4046"
       inkscape:connector-curvature="0" />
    <path
       inkscape:connector-curvature="0"
       id="path4064"
       d="m 8,298 c -3.313709,0 -6,-2.68629 -6,-6 0,-0.12447 0.02378,-0.25241 0.03125,-0.375 C 2.33851,294.65054 4.893398,297 8,297 c 3.106602,0 5.66149,-2.34946 5.96875,-5.375 C 13.97625,291.74759 14,291.87553 14,292 c 0,3.31371 -2.686291,6 -6,6 z"
       style="opacity:0.07999998;fill:#ffffff;fill-opacity:1;stroke:none" />
    <path
       transform="matrix(0.57142857,0,0,0.57142857,3.4285714,287.42857)"
       d="m 15,8 c 0,3.865993 -3.134007,7 -7,7 C 4.1340068,15 1,11.865993 1,8 1,4.1340068 4.1340068,1 8,1 c 3.865993,0 7,3.1340068 7,7 z"
       sodipodi:ry="7"
       sodipodi:rx="7"
       sodipodi:cy="8"
       sodipodi:cx="8"
       id="path4265"
       style="opacity:0.25;fill:#000000;fill-opacity:1;stroke:none"
       sodipodi:type="arc" />
    <path
       transform="matrix(0.42857102,0,0,0.42857102,4.5714318,288.57143)"
       d="m 15,8 c 0,3.865993 -3.134007,7 -7,7 C 4.1340068,15 1,11.865993 1,8 1,4.1340068 4.1340068,1 8,1 c 3.865993,0 7,3.1340068 7,7 z"
       sodipodi:ry="7"
       sodipodi:rx="7"
       sodipodi:cy="8"
       sodipodi:cx="8"
       id="path4036"
       style="fill:url(#linearGradient4044);fill-opacity:1;stroke:none"
       sodipodi:type="arc" />
    <path
       style="opacity:0.12;fill:#ffffff;fill-opacity:1;stroke:none"
       d="M 4.0625 7.5 C 4.0418868 7.6645321 4 7.8298802 4 8 C 4 10.209139 5.790861 12 8 12 C 10.209139 12 12 10.209139 12 8 C 12 7.8298802 11.958113 7.6645321 11.9375 7.5 C 11.690434 9.4720463 10.039019 11 8 11 C 5.9609808 11 4.3095659 9.4720463 4.0625 7.5 z "
       transform="translate(0,284)"
       id="path4348" />
    <path
       style="fill:#000000;fill-opacity:1;stroke:none;opacity:0.1"
       d="M 8 5 C 6.3431473 5 5 6.3431473 5 8 C 5 8.1747639 5.0338207 8.3334248 5.0625 8.5 C 5.3057155 7.0873555 6.5179112 6 8 6 C 9.4820888 6 10.694284 7.0873555 10.9375 8.5 C 10.966179 8.3334248 11 8.1747639 11 8 C 11 6.3431473 9.6568527 5 8 5 z "
       transform="translate(0,284)"
       id="path4353" />
    <path
       style="fill:#445500;fill-opacity:1"
       d="m 4.6595257,5.827426 c 0,-0.044284 0.3139815,-0.4309426 0.510424,-0.6285721 0.6105621,-0.6142511 1.3329359,-0.982803 2.2388572,-1.1422546 0.2212209,-0.038937 0.9388944,-0.038961 1.1798998,-3.86e-5 1.0575243,0.1707888 1.9983973,0.7368604 2.6138843,1.5726307 l 0.151849,0.2061961 -0.620836,0.0061 -0.620836,0.0061 L 9.9464152,5.7078455 C 9.5568453,5.3806158 9.1220485,5.166552 8.6230728,5.0563237 8.386419,5.0040446 7.8463452,4.9860985 7.5841572,5.0218014 7.0231529,5.0981951 6.4191359,5.3739657 6.0261625,5.7331213 l -0.1244295,0.1137215 -0.6211036,0 c -0.341607,0 -0.6211037,-0.00874 -0.6211037,-0.019417 z"
       id="path3002"
       inkscape:connector-curvature="0"
       transform="translate(0,284)" />
    <path
       style="fill:#445500;fill-opacity:1"
       d="m 4.0867588,7.246436 c 0,-0.070511 0.1083728,-0.4570932 0.1804074,-0.6435409 0.0743,-0.1923117 0.2133608,-0.4827169 0.3099245,-0.6472266 l 0.063878,-0.1088257 0.6192165,0 c 0.7017233,0 0.6493933,-0.023089 0.4509471,0.1989673 -0.2684343,0.3003716 -0.4879071,0.7242268 -0.6295257,1.215767 -0.00627,0.021768 -0.1265851,0.028638 -0.5015496,0.028638 -0.4703553,0 -0.4932986,-0.00204 -0.4932986,-0.043779 z"
       id="path3004"
       inkscape:connector-curvature="0"
       transform="translate(0,284)" />
    <path
       style="fill:#445500;fill-opacity:1"
       d="M 4.363135,8.5846687 C 4.2385032,8.2685982 4.1282228,7.8801313 4.0964701,7.6453309 4.0879498,7.5823266 4.0730497,7.5204677 4.0633587,7.5078669 4.0536677,7.495266 4.0525595,7.443717 4.060896,7.3933135 l 0.015157,-0.091643 0.4979322,-0.00617 c 0.2738628,-0.0034 0.4979305,-0.0034 0.4979284,0 -2.2e-6,0.0034 -0.015995,0.088653 -0.035541,0.1894599 -0.041043,0.2116833 -0.047373,0.7522682 -0.011268,0.9622484 0.013,0.075605 0.023696,0.1498216 0.023769,0.1649253 9.62e-5,0.019756 -0.092294,0.029399 -0.3292523,0.034366 l -0.329385,0.0069 -0.027102,-0.068732 0,0 z"
       id="path3006"
       inkscape:connector-curvature="0"
       transform="translate(0,284)" />
    <path
       style="fill:#445500;fill-opacity:1"
       d="M 5.1441019,9.7702962 C 4.8836542,9.4942598 4.5510355,9.0098368 4.4408076,8.7460242 l -0.033914,-0.081168 0.1227965,0 c 0.067538,0 0.2157505,-0.0066 0.3293609,-0.014662 l 0.2065643,-0.014662 0.016343,0.089122 c 0.048241,0.2630745 0.2277464,0.6640915 0.4312917,0.9635073 0.067116,0.098728 0.1299092,0.1923931 0.13954,0.2081442 0.013462,0.022017 -0.026453,0.028638 -0.1726316,0.028638 l -0.1901421,0 -0.1459137,-0.154647 z"
       id="path3008"
       inkscape:connector-curvature="0"
       transform="translate(0,284)" />
    <path
       style="fill:#445500;fill-opacity:1"
       d="M 6.7329419,10.782078 C 6.2812673,10.62687 5.7440278,10.319534 5.4384887,10.041565 L 5.31248,9.926927 5.4942552,9.9259351 5.6760303,9.9249432 5.8473063,10.099585 c 0.2926269,0.298377 0.6448768,0.53575 1.0230997,0.689445 0.2401279,0.09758 0.1540686,0.09323 -0.1374641,-0.007 z"
       id="path3010"
       inkscape:connector-curvature="0"
       transform="translate(0,284)" />
    <path
       style="fill:#445500;fill-opacity:1"
       d="m 10.880032,7.1355684 c -0.120717,-0.4029646 -0.40116,-0.9009052 -0.655338,-1.1635841 -0.04923,-0.05088 -0.08952,-0.099852 -0.08952,-0.1088257 0,-0.00897 0.272893,-0.016316 0.606429,-0.016316 l 0.606429,0 0.08456,0.1317364 c 0.09107,0.141884 0.208309,0.385706 0.300189,0.6243159 0.07486,0.194395 0.18912,0.6127493 0.189292,0.693048 l 1.35e-4,0.063004 -0.48763,0 -0.48763,0 -0.06692,-0.2233791 z"
       id="path3012"
       inkscape:connector-curvature="0"
       transform="translate(0,284)" />
    <path
       style="fill:#445500;fill-opacity:1"
       d="m 10.974133,8.4529323 c 0.0384,-0.236167 0.03846,-0.6824889 1.24e-4,-0.9164271 l -0.0291,-0.1775577 0.499981,0 c 0.461114,0 0.499981,0.00312 0.499981,0.040139 0,0.1554113 -0.138604,0.7275066 -0.252544,1.0423904 l -0.07254,0.2004685 -0.33832,0 -0.338319,0 0.03073,-0.1890131 z"
       id="path3014"
       inkscape:connector-curvature="0"
       transform="translate(0,284)" />
    <path
       style="fill:#445500;fill-opacity:1"
       d="m 10.44163,9.7560585 c 0.204454,-0.2849662 0.401573,-0.7005742 0.471366,-0.9938321 l 0.02862,-0.120281 0.32992,0 c 0.181456,0 0.329747,0.00773 0.329537,0.017183 -8.53e-4,0.03827 -0.21815,0.4203113 -0.355099,0.6243159 -0.08036,0.1197083 -0.235151,0.3130171 -0.343981,0.4295752 l -0.197871,0.2119237 -0.191833,0 -0.191834,0 0.12117,-0.1688847 z"
       id="path3016"
       inkscape:connector-curvature="0"
       transform="translate(0,284)" />
    <path
       style="fill:#445500;fill-opacity:1"
       d="m 9.0010989,10.841024 c 0.025202,-0.01109 0.1231449,-0.05281 0.2176515,-0.09273 0.3347292,-0.141368 0.610149,-0.331312 0.9179246,-0.633047 l 0.196239,-0.1923875 0.179415,0.00677 0.179415,0.00677 -0.169458,0.1399394 c -0.379989,0.313798 -0.8545493,0.577894 -1.2878267,0.716685 -0.2089188,0.06692 -0.3356273,0.09299 -0.2333604,0.048 z"
       id="path3018"
       inkscape:connector-curvature="0"
       transform="translate(0,284)" />
    <path
       style="fill:#668000;fill-opacity:1"
       d="m 7.726195,11.98632 c -0.022051,-0.0025 -0.096798,-0.01018 -0.1661024,-0.01708 C 7.2230136,11.935666 6.8485499,11.842 6.5125426,11.707212 5.7994818,11.421169 5.1764212,10.926556 4.7323309,10.293999 4.6480649,10.173972 4.528089,9.980312 4.511966,9.9382961 c -0.00654,-0.017056 0.026556,-0.01869 0.3784289,-0.01869 l 0.385601,0 0.1225233,0.1062443 c 0.5264443,0.456497 1.1320977,0.758215 1.7988277,0.896119 0.3137996,0.0649 0.7197997,0.09607 0.9927893,0.07622 0.2790291,-0.0203 0.3129457,-0.02406 0.4850759,-0.05379 0.7366515,-0.127249 1.3841749,-0.440516 1.9606389,-0.9485439 l 0.08591,-0.075715 0.386618,-2.65e-4 c 0.212639,-1.458e-4 0.386617,0.0033 0.386617,0.00766 0,0.012005 -0.08696,0.1568622 -0.163729,0.2727302 -0.649144,0.979789 -1.665813,1.611439 -2.8409193,1.765044 -0.1315996,0.0172 -0.6675054,0.03194 -0.7641577,0.02101 z"
       id="path3020"
       inkscape:connector-curvature="0"
       transform="translate(0,284)" />
    <path
       style="fill:#668000;fill-opacity:1"
       d="M 4.4404059,9.8107799 C 4.2257385,9.3874489 4.1046996,8.9895908 4.0334217,8.4730114 l -0.00598,-0.043315 0.1311782,0.00322 0.1311781,0.00322 0.073515,0.1696398 c 0.1901681,0.4388241 0.46122,0.8469398 0.7816654,1.1769331 l 0.132354,0.1362976 -0.3894204,0.00316 -0.3894203,0.00316 -0.058089,-0.1145534 0,0 z"
       id="path3022"
       inkscape:connector-curvature="0"
       transform="translate(0,284)" />
    <path
       style="fill:#668000;fill-opacity:1"
       d="m 4.0326773,8.4202975 c -0.013758,-0.022261 -0.031655,-0.3581963 -0.025092,-0.47101 0.010717,-0.1842425 0.064357,-0.4974093 0.064357,-0.3757383 0,0.039222 0.050851,0.3066617 0.080064,0.421075 0.012988,0.050869 0.048655,0.1697315 0.07926,0.2641385 l 0.055645,0.171649 -0.1239913,0 c -0.068195,0 -0.1268042,-0.00455 -0.1302422,-0.010114 z"
       id="path3024"
       inkscape:connector-curvature="0"
       transform="translate(0,284)" />
    <path
       style="fill:#668000;fill-opacity:1"
       d="M 11.112965,9.9223158 10.7252,9.9192981 10.854555,9.7848517 c 0.07115,-0.073946 0.172696,-0.188573 0.225668,-0.2547275 0.215657,-0.2693264 0.452533,-0.6683919 0.581368,-0.9794315 l 0.04745,-0.1145533 0.129438,-0.00325 0.129437,-0.00325 -0.0078,0.077714 c -0.03828,0.3792168 -0.185454,0.8685191 -0.376545,1.251886 l -0.0828,0.1661024 -0.387764,-0.00302 z"
       id="path3026"
       inkscape:connector-curvature="0"
       transform="translate(0,284)" />
    <path
       style="fill:#668000;fill-opacity:1"
       d="m 11.718147,8.410917 c 0.07714,-0.1898671 0.212157,-0.7300425 0.212157,-0.8488232 0,-0.05717 0.01088,-0.016097 0.03591,0.1356387 0.02685,0.1627123 0.03229,0.3718886 0.01593,0.6120108 l -0.0081,0.1181135 -0.132159,0.00183 c -0.12306,0.0017 -0.131582,4.115e-4 -0.123789,-0.01877 z"
       id="path3028"
       inkscape:connector-curvature="0"
       transform="translate(0,284)" />
    <path
       style="fill:#88aa00;fill-opacity:1"
       d="m 11.332953,10.220308 c 0.286221,-0.4315076 0.504305,-0.957046 0.590639,-1.4233255 l 0.01379,-0.07446 0.906604,-0.00293 0.906603,-0.00293 -0.06728,0.1986658 c -0.17322,0.5115063 -0.401218,0.9848335 -0.670107,1.3911528 l -0.03205,0.04843 -0.868739,0 -0.86874,0 0.08928,-0.134601 z"
       id="path3030"
       inkscape:connector-curvature="0"
       transform="translate(0,284)" />
    <path
       style="fill:#88aa00;fill-opacity:1"
       d="m 11.946531,8.685293 c 0.0451,-0.2155618 0.06678,-0.6929097 0.04549,-1.0019555 l -0.0077,-0.1120762 0.922293,0 0.922294,0 0.0067,0.03723 c 0.0037,0.020476 0.0228,0.1145533 0.04243,0.2090599 0.03345,0.1609826 0.03484,0.1772538 0.02217,0.2577451 -0.02402,0.1525032 -0.09565,0.4643337 -0.138814,0.6042691 l -0.01148,0.03723 -0.904993,0 -0.904994,0 0.0066,-0.031502 0,0 z"
       id="path3032"
       inkscape:connector-curvature="0"
       transform="translate(0,284)" />
    <path
       style="fill:#88aa00;fill-opacity:1"
       d="m 11.983762,7.5636244 c -0.0042,-0.0042 -0.0076,-0.021926 -0.0076,-0.039391 0,-0.017465 -0.01287,-0.1065209 -0.0286,-0.1979018 -0.068,-0.3950716 -0.193505,-0.7736798 -0.378739,-1.1425026 -0.02798,-0.055717 -0.05088,-0.1040164 -0.05088,-0.1073324 0,-0.00332 0.387371,-0.00471 0.860825,-0.00309 l 0.860826,0.00294 0.09545,0.1832854 c 0.196528,0.3773958 0.342079,0.7560617 0.472239,1.228585 l 0.02288,0.083051 -0.919363,0 c -0.505649,0 -0.922799,-0.00344 -0.927,-0.00764 l 0,0 z"
       id="path3034"
       inkscape:connector-curvature="0"
       transform="translate(0,284)" />
    <path
       style="fill:#88aa00;fill-opacity:1"
       d="M 11.483691,6.0219268 C 11.327005,5.7392359 11.109152,5.4556319 10.836893,5.1799142 l -0.183859,-0.1861944 0.906118,4.52e-5 0.906117,4.52e-5 0.05728,0.065868 c 0.155705,0.1790403 0.345459,0.4256734 0.469317,0.6099968 0.05743,0.085463 0.205953,0.3259797 0.231672,0.3751623 l 0.01348,0.025774 -0.863172,0 -0.863172,0 -0.02698,-0.048685 0,0 z"
       id="path3036"
       inkscape:connector-curvature="0"
       transform="translate(0,284)" />
    <path
       style="fill:#88aa00;fill-opacity:1"
       d="m 10.853772,11.571976 -1.0249839,-0.0029 0.1543778,-0.08886 C 10.444494,11.214659 10.878038,10.83508 11.17998,10.43235 l 0.05728,-0.0764 0.868091,-5.23e-4 0.868091,-5.22e-4 -0.05607,0.08305 c -0.07681,0.113758 -0.286779,0.385354 -0.378603,0.489715 -0.19529,0.221956 -0.505632,0.530839 -0.619912,0.616999 l -0.04009,0.03023 -1.024983,-0.0029 z"
       id="path3038"
       inkscape:connector-curvature="0"
       transform="translate(0,284)" />
    <path
       style="fill:#88aa00;fill-opacity:1"
       d="M 5.4651438,12.438879 C 4.8132291,12.13515 4.2370441,11.726378 3.728282,11.20667 l -0.1890131,-0.19308 0.9049717,-0.0057 0.9049717,-0.0057 0.068732,0.05862 c 0.3009862,0.256713 0.728511,0.513489 1.0915466,0.655596 0.3609048,0.141274 0.6654012,0.217548 1.0677847,0.267473 0.1587269,0.01969 0.687396,0.01927 0.8534227,-6.81e-4 0.4206964,-0.05056 0.8244869,-0.160063 1.1970204,-0.324621 0.085022,-0.03756 0.1597678,-0.07174 0.1661024,-0.07595 0.00633,-0.0042 0.4771539,-0.0061 1.0462649,-0.0042 l 1.034747,0.0034 -0.08395,0.06892 c -0.372638,0.305922 -0.811534,0.581507 -1.254527,0.787726 l -0.151049,0.07031 -2.3792031,0.0028 -2.3792033,0.0028 -0.1617528,-0.07536 z"
       id="path3040"
       inkscape:connector-curvature="0"
       transform="translate(0,284)" />
    <path
       style="fill:#88aa00;fill-opacity:1"
       d="M 7.7138911,12.988755 C 7.0702225,12.960522 6.4124172,12.820143 5.8020166,12.580753 l -0.140386,-0.05506 1.1631051,-0.0029 c 0.6397078,-0.0016 1.690605,-0.0016 2.335327,0 l 1.1722213,0.0029 -0.150229,0.05948 c -0.476513,0.188675 -1.0022907,0.317795 -1.5279776,0.375241 -0.1590096,0.01738 -0.5970189,0.04181 -0.693048,0.03867 -0.025202,-8.25e-4 -0.1364139,-0.0055 -0.2471383,-0.01033 z"
       id="path3042"
       inkscape:connector-curvature="0"
       transform="translate(0,284)" />
    <path
       style="fill:#88aa00;fill-opacity:1"
       d="M 3.4328135,10.894804 C 3.1924178,10.611761 2.9476602,10.258556 2.7710273,9.9397948 l -0.049116,-0.088637 0.8640295,-0.00301 c 0.4752163,-0.00165 0.8640289,-1.65e-4 0.8640282,0.00331 -1.8e-6,0.009 0.1363537,0.2441095 0.1890047,0.3258915 0.1556593,0.241783 0.3798263,0.510777 0.6117739,0.734112 l 0.084288,0.08116 -0.6391606,0.0076 c -0.3515384,0.0042 -0.7581634,0.0074 -0.9036112,0.007 l -0.2644506,-6.03e-4 -0.095,-0.111853 z"
       id="path3044"
       inkscape:connector-curvature="0"
       transform="translate(0,284)" />
    <path
       style="fill:#88aa00;fill-opacity:1"
       d="M 2.7019301,9.8221607 C 2.6748188,9.7807924 2.5290678,9.4701849 2.4708247,9.3296557 2.3983942,9.1548954 2.3493439,9.0210036 2.2956176,8.8513954 l -0.042637,-0.1346003 0.9035348,0 0.9035348,0 0.00531,0.025775 c 0.035242,0.1711758 0.050601,0.2342592 0.094129,0.3866176 0.056207,0.1967388 0.1500188,0.4408646 0.2333065,0.607133 l 0.054513,0.1088257 -0.8651558,0 c -0.8534499,0 -0.8653598,-3.11e-4 -0.8802197,-0.022985 l 0,0 z"
       id="path3046"
       inkscape:connector-curvature="0"
       transform="translate(0,284)" />
    <path
       style="fill:#88aa00;fill-opacity:1"
       d="M 2.2446036,8.702476 C 2.227749,8.6562474 2.1552135,8.3519732 2.1240559,8.1967986 2.0897089,8.0257401 2.0883461,8.0096872 2.1012093,7.9276756 c 0.00752,-0.047968 0.016408,-0.098812 0.019744,-0.1129883 l 0.00606,-0.025775 0.9396654,0 0.9396654,0 -0.00754,0.1059619 c -0.011852,0.1664873 0.023539,0.6600562 0.056843,0.7927497 l 0.00732,0.029171 -0.9065731,0 c -0.7148373,0 -0.9076773,-0.00303 -0.9117938,-0.014319 z"
       id="path3048"
       inkscape:connector-curvature="0"
       transform="translate(0,284)" />
    <path
       style="fill:#88aa00;fill-opacity:1"
       d="m 2.1291953,7.7688659 c 0.00341,-0.011026 0.01424,-0.058709 0.024061,-0.1059619 0.027463,-0.1321397 0.092927,-0.3654591 0.1566861,-0.5584477 l 0.057715,-0.1746939 0.8877339,0 c 0.8081512,0 0.8871049,0.00164 0.8807177,0.018284 -0.00938,0.024448 -0.059421,0.2450288 -0.075111,0.3311037 -0.021136,0.1159454 -0.044154,0.2924717 -0.052653,0.4038007 l -0.00809,0.1059618 -0.9386321,0 c -0.8886621,0 -0.9383018,-0.00107 -0.9324275,-0.020047 z"
       id="path3050"
       inkscape:connector-curvature="0"
       transform="translate(0,284)" />
    <path
       style="fill:#88aa00;fill-opacity:1"
       d="M 3.2509128,6.9325558 2.3673109,6.9296216 2.4102151,6.8180024 C 2.5516341,6.4500873 2.7753244,6.0221828 3.0120088,5.6668113 l 0.066758,-0.1002342 0.8702459,0 0.8702458,0 -0.028055,0.03723 C 4.5422961,5.9341117 4.3337388,6.3345626 4.1990767,6.7407493 L 4.1345147,6.93549 3.2509128,6.9325558 z"
       id="path3052"
       inkscape:connector-curvature="0"
       transform="translate(0,284)" />
    <path
       style="fill:#88aa00;fill-opacity:1"
       d="m 3.086783,5.5599582 c 0,-0.013258 0.1941738,-0.2672716 0.3103542,-0.4059975 0.065571,-0.078296 0.1830042,-0.2082191 0.2609614,-0.2887176 l 0.1417404,-0.146361 0.9507006,0 0.9507008,0 -0.1015544,0.076082 C 5.3450827,4.9857067 5.0336939,5.2869078 4.876287,5.494696 l -0.05402,0.071311 -0.8677419,2.853e-4 C 3.4772669,5.5664487 3.086783,5.5635986 3.086783,5.5599582 z"
       id="path3054"
       inkscape:connector-curvature="0"
       transform="translate(0,284)" />
    <path
       style="fill:#88aa00;fill-opacity:1"
       d="M 10.589002,4.9444719 C 10.560084,4.9178362 10.487916,4.859467 10.428627,4.8147627 9.8515497,4.3796405 9.2292613,4.1261673 8.487975,4.0242882 8.2794592,3.9956307 7.7276582,3.9954126 7.5142713,4.0239033 6.8695535,4.1099838 6.2730854,4.331955 5.7650969,4.6748456 l -0.06524,0.044036 -0.9521828,0 -0.9521828,0 0.095268,-0.089808 C 4.3224203,4.2221497 4.8169275,3.8833699 5.3875776,3.6036253 l 0.2136522,-0.1047367 2.3998933,0 2.3998939,0 0.234834,0.1166032 c 0.522344,0.2593614 0.914454,0.5198792 1.334547,0.886673 0.125945,0.1099655 0.477564,0.4580558 0.484885,0.4800181 0.0026,0.0078 -0.294989,0.011478 -0.904914,0.011172 l -0.90879,-4.548e-4 -0.05258,-0.048429 0,0 z"
       id="path3056"
       inkscape:connector-curvature="0"
       transform="translate(0,284)" />
    <path
       style="fill:#88aa00;fill-opacity:1"
       d="m 5.6551101,3.481086 c 0.081706,-0.04764 0.5353942,-0.204343 0.781095,-0.2697883 1.2467774,-0.3320937 2.5811555,-0.2569292 3.7732069,0.2125419 0.08333,0.032819 0.151511,0.061842 0.151511,0.064496 0,0.00265 -1.0631988,0.00467 -2.3626637,0.00448 -1.570055,-2.314e-4 -2.356117,-0.00417 -2.3431492,-0.011726 z"
       id="path3058"
       inkscape:connector-curvature="0"
       transform="translate(0,284)" />
    <path
       style="fill:#aad400;fill-opacity:1"
       d="m 8.453609,12.987975 c 1.0278014,-0.08087 2.003191,-0.414633 2.858107,-0.977996 0.160756,-0.105934 0.376446,-0.265536 0.501232,-0.370893 l 0.08311,-0.07017 0.457884,0.003 0.457883,0.003 -0.09996,0.127065 c -0.370901,0.471447 -0.859175,0.927609 -1.339377,1.251289 l -0.07097,0.04784 -1.486959,-0.0016 c -0.9397362,-0.001 -1.4405857,-0.0053 -1.36095,-0.01152 z"
       id="path3060"
       inkscape:connector-curvature="0"
       transform="translate(0,284)" />
    <path
       style="fill:#aad400;fill-opacity:1"
       d="m 11.918849,11.560018 c 0,-0.005 0.03598,-0.03913 0.07995,-0.07575 0.115428,-0.09615 0.449306,-0.44067 0.586133,-0.604816 0.06455,-0.07743 0.170276,-0.212027 0.234957,-0.2991 l 0.117601,-0.158314 0.266215,0.0012 c 0.146418,6.57e-4 0.268491,0.0035 0.271274,0.0063 0.0077,0.0077 -0.172748,0.37111 -0.264494,0.532559 -0.06599,0.116125 -0.245143,0.394333 -0.369482,0.57377 l -0.02291,0.03306 -0.449622,1.5e-4 c -0.247292,8.3e-5 -0.449622,-0.004 -0.449622,-0.009 z"
       id="path3062"
       inkscape:connector-curvature="0"
       transform="translate(0,284)" />
    <path
       style="fill:#aad400;fill-opacity:1"
       d="m 13.083345,10.412745 -0.135684,-0.0063 0.02368,-0.03005 c 0.08862,-0.112437 0.282493,-0.4503718 0.419275,-0.7308198 0.04739,-0.097156 0.08616,-0.1706133 0.08616,-0.1632386 0,0.00962 0.04654,0.013409 0.164706,0.013409 l 0.164706,0 -0.04344,0.1517833 C 13.704599,9.85075 13.631447,10.062471 13.551002,10.260402 l -0.06635,0.163239 -0.132814,-0.0023 c -0.07305,-0.0013 -0.193871,-0.0051 -0.268498,-0.0086 l 0,0 z"
       id="path3064"
       inkscape:connector-curvature="0"
       transform="translate(0,284)" />
    <path
       style="fill:#aad400;fill-opacity:1"
       d="m 13.559826,9.4872525 c -0.04568,-0.00217 -0.08305,-0.00635 -0.08305,-0.00927 0,-0.00293 0.02535,-0.065848 0.05633,-0.1398261 0.06026,-0.1438964 0.162148,-0.4259527 0.213068,-0.589856 l 0.03114,-0.1002342 0.09029,0 c 0.05041,0 0.09029,0.00489 0.09029,0.011062 0,0.068917 -0.07038,0.4820137 -0.115526,0.6780979 -0.01837,0.079767 -0.03339,0.1480694 -0.03339,0.1517832 0,0.00664 -0.08544,0.00604 -0.249154,-0.00175 z"
       id="path3066"
       inkscape:connector-curvature="0"
       transform="translate(0,284)" />
    <path
       style="fill:#aad400;fill-opacity:1"
       d="m 13.814279,8.5020076 c 0.02036,-0.080331 0.0518,-0.2208017 0.06988,-0.312158 0.03696,-0.186784 0.03567,-0.1878862 0.0629,0.053971 0.0084,0.074222 0.01902,0.1256078 0.02528,0.1217432 0.01052,-0.0065 0.0028,0.1819611 -0.01029,0.2509975 -0.0059,0.031165 -0.0069,0.031502 -0.09538,0.031502 l -0.08941,0 0.03702,-0.1460555 z"
       id="path3068"
       inkscape:connector-curvature="0"
       transform="translate(0,284)" />
    <path
       style="fill:#aad400;fill-opacity:1"
       d="M 7.81211,13.989942 C 6.5980714,13.953987 5.394732,13.534697 4.4270576,12.810458 l -0.1202811,-0.09002 0.9164271,-0.0057 0.9164271,-0.0057 0.085915,0.02661 c 0.371817,0.115164 0.8522439,0.208148 1.2600872,0.243883 0.1404325,0.0123 0.5064223,0.01857 0.8763334,0.01501 0.050403,-4.86e-4 0.7307982,0.0021 1.5119884,0.0057 l 1.4203453,0.0066 -0.09153,0.05839 c -0.753803,0.480876 -1.6356586,0.789416 -2.550186,0.892248 -0.151554,0.01704 -0.6162962,0.0422 -0.6972862,0.03774 -0.022051,-0.0012 -0.086488,-0.0036 -0.1431918,-0.0053 l 0,0 z"
       id="path3070"
       inkscape:connector-curvature="0"
       transform="translate(0,284)" />
    <path
       style="fill:#aad400;fill-opacity:1"
       d="M 4.1695966,12.608375 C 3.9696402,12.44044 3.7455607,12.226869 3.5918926,12.057763 3.5137282,11.971746 3.4426279,11.891164 3.433892,11.878691 c -0.01575,-0.02249 -0.011507,-0.0227 0.504243,-0.02577 l 0.5201264,-0.0031 0.1316436,0.09244 c 0.3987786,0.280027 0.82336,0.500043 1.3349423,0.691762 l 0.174698,0.06547 -0.6271839,0.0076 c -0.3449512,0.0042 -0.7509016,0.0074 -0.9021121,0.0072 l -0.2749281,-3.6e-4 -0.1257246,-0.105591 0,0 z"
       id="path3072"
       inkscape:connector-curvature="0"
       transform="translate(0,284)" />
    <path
       style="fill:#aad400;fill-opacity:1"
       d="M 3.3113887,11.730611 C 3.1254552,11.495724 2.9621211,11.257509 2.8137467,11.004825 2.7539228,10.902944 2.6973015,10.795988 2.6973015,10.784865 c 0,-0.0034 0.1430485,-0.0061 0.3178856,-0.0061 l 0.3178857,2.5e-5 0.070191,0.08875 c 0.1742995,0.220397 0.5827141,0.61339 0.8940115,0.860254 l 0.1394183,0.110562 -0.4773508,0.0079 c -0.262543,0.0043 -0.4920843,0.01 -0.5100919,0.01252 -0.029905,0.0043 -0.041847,-0.0068 -0.1378624,-0.128143 z"
       id="path3074"
       inkscape:connector-curvature="0"
       transform="translate(0,284)" />
    <path
       style="fill:#aad400;fill-opacity:1"
       d="M 2.6541143,10.710284 C 2.5275949,10.479939 2.3120037,9.9330289 2.2394155,9.6582802 2.232237,9.6311093 2.2235202,9.6014686 2.2200449,9.592412 2.2147122,9.5785153 2.2420743,9.575976 2.3953733,9.576141 l 0.1816472,1.955e-4 0.027457,0.063414 c 0.031294,0.072274 0.1839693,0.3482635 0.2804004,0.5068746 0.096007,0.157914 0.1916579,0.298121 0.3237883,0.47462 l 0.1179158,0.157511 -0.3175041,-1.36e-4 -0.3175041,-1.36e-4 -0.03746,-0.0682 z"
       id="path3076"
       inkscape:connector-curvature="0"
       transform="translate(0,284)" />
    <path
       style="fill:#aad400;fill-opacity:1"
       d="M 2.1956346,9.5153713 C 2.1294966,9.2642357 2.0744139,8.9714476 2.0436726,8.7076279 l -0.00743,-0.063789 0.092455,0 c 0.071113,0 0.09252,-0.00117 0.092737,-0.00506 1.552e-4,-0.00278 0.00299,0.00405 0.00631,0.015188 0.00331,0.011138 0.015227,0.051233 0.026474,0.089102 0.079629,0.268122 0.1698813,0.5046289 0.3094138,0.8108244 l 0.0096,0.02106 -0.1709748,0.00122 c -0.1227324,8.724e-4 -0.1733411,0.00257 -0.1793611,0.00603 -0.0081,0.00465 -0.00903,0.00239 -0.027254,-0.066826 l 0,0 z"
       id="path3078"
       inkscape:connector-curvature="0"
       transform="translate(0,284)" />
    <path
       style="fill:#aad400;fill-opacity:1"
       d="m 2.0348461,8.6381781 c 0,-0.00311 -0.00359,-0.045488 -0.00797,-0.094164 -0.00873,-0.09696 -0.018797,-0.2635548 -0.021868,-0.361883 l -0.00196,-0.062776 0.00954,0.085051 c 0.00525,0.046778 0.010806,0.1014544 0.012348,0.1215022 0.00154,0.020048 0.00405,0.038793 0.00558,0.041655 0.00153,0.00286 0.00596,-0.023564 0.00985,-0.058726 0.00592,-0.0535 0.027837,-0.2133567 0.038474,-0.2806095 0.00275,-0.017362 0.00333,-0.015826 0.01225,0.032401 0.03378,0.1825627 0.069873,0.3466604 0.1060069,0.4819588 0.011601,0.043437 0.0213,0.082622 0.021555,0.087077 4.3e-4,0.00752 -0.00286,0.00828 -0.046113,0.010605 -0.090308,0.00486 -0.1377025,0.00414 -0.1377025,-0.00209 l 0,0 z"
       id="path3080"
       inkscape:connector-curvature="0"
       transform="translate(0,284)" />
    <path
       style="fill:#aad400;fill-opacity:1"
       d="M 2.0295563,8.3279335 C 2.0077874,8.1446679 2.0010224,8.0488519 2.0035434,7.9594994 c 0.00179,-0.063541 0.017104,-0.2420426 0.026066,-0.3038782 0.00261,-0.018012 0.00268,-0.017869 0.00606,0.01215 0.0094,0.083603 0.024971,0.2034995 0.034193,0.2632223 l 0.010313,0.066794 -0.012458,0.083059 c -0.015197,0.1013206 -0.023383,0.1615665 -0.030271,0.2227866 -0.00509,0.045234 -0.00532,0.045934 -0.00789,0.024301 l 0,0 z"
       id="path3082"
       inkscape:connector-curvature="0"
       transform="translate(0,284)" />
    <path
       style="fill:#aad400;fill-opacity:1"
       d="m 2.0659967,7.8864754 c -0.00822,-0.05903 -0.018753,-0.1392213 -0.023411,-0.1782032 -0.00466,-0.038982 -0.0091,-0.071518 -0.00987,-0.072303 -0.00317,-0.00323 -0.018791,0.1383942 -0.024626,0.2232798 -0.00535,0.077778 -0.00641,0.033899 -0.00186,-0.076811 0.014239,-0.3467387 0.048654,-0.6420791 0.1117516,-0.9590401 0.016402,-0.082393 0.053387,-0.2475191 0.06805,-0.3038229 l 0.00527,-0.02025 0.1744402,-0.00106 0.1744402,-0.00106 -0.029489,0.066323 C 2.3173959,6.9982733 2.168263,7.4863126 2.0903466,7.9391264 l -0.00941,0.054676 -0.014942,-0.107327 z"
       id="path3084"
       inkscape:connector-curvature="0"
       transform="translate(0,284)" />
    <path
       style="fill:#aad400;fill-opacity:1"
       d="m 2.192799,6.4955372 c 0,-0.00561 0.041082,-0.1519401 0.065425,-0.2330355 0.062616,-0.2085996 0.1447031,-0.432285 0.2426749,-0.6612804 l 0.013429,-0.031388 0.2769814,0 c 0.1523397,0 0.2763738,0.00142 0.2756313,0.00315 -7.425e-4,0.00173 -0.027134,0.041469 -0.058647,0.088299 C 2.847013,5.9009493 2.6920658,6.1729965 2.573077,6.4254113 l -0.033888,0.071889 -0.1731948,0 c -0.095257,0 -0.1731948,-7.933e-4 -0.1731948,-0.00176 z"
       id="path3086"
       inkscape:connector-curvature="0"
       transform="translate(0,284)" />
    <path
       style="fill:#aad400;fill-opacity:1"
       d="m 2.5168049,5.5674763 c 0,-0.00695 0.08185,-0.1780533 0.1373978,-0.2872233 C 2.8136177,4.9669484 2.9818488,4.6965188 3.194636,4.4115122 3.2512054,4.3357434 3.3637651,4.1930032 3.3983217,4.1532128 l 0.011524,-0.01327 0.530465,0.00112 0.530465,0.00112 -0.046481,0.034279 C 3.9249196,4.544742 3.4507332,5.0281572 3.1000155,5.5265145 l -0.030375,0.043163 -0.2764176,7.82e-5 c -0.1520296,4.28e-5 -0.2764175,-9.827e-4 -0.2764175,-0.00228 z"
       id="path3088"
       inkscape:connector-curvature="0"
       transform="translate(0,284)" />
    <path
       style="fill:#aad400;fill-opacity:1"
       d="m 3.4506599,4.1363544 -0.036138,-0.00227 0.025963,-0.030375 C 3.6709666,3.8340503 3.9441131,3.567874 4.223185,3.3409797 l 0.068125,-0.055388 0.9322429,2.107e-4 0.9322429,2.107e-4 -0.1154271,0.039805 C 5.4956536,3.5136653 4.9759739,3.7804962 4.5182092,4.1073754 L 4.4723013,4.1401573 3.9795494,4.1393919 C 3.7085359,4.138971 3.4705356,4.1376041 3.4506599,4.1363544 z"
       id="path3090"
       inkscape:connector-curvature="0"
       transform="translate(0,284)" />
    <path
       style="fill:#aad400;fill-opacity:1"
       d="m 3.8739171,4.1427265 c 9.281e-4,-8.144e-4 0.029937,-0.00242 0.064464,-0.00356 0.038001,-0.00126 0.052386,-8.593e-4 0.036451,0.00101 -0.027376,0.00321 -0.1038656,0.00514 -0.1009143,0.00255 z"
       id="path3092"
       inkscape:connector-curvature="0"
       transform="translate(0,284)" />
    <path
       style="fill:#aad400;fill-opacity:1"
       d="m 11.090485,3.8507145 c -0.008,-0.00523 -0.04443,-0.02679 -0.081,-0.047909 C 10.229128,3.3522173 9.364561,3.0853307 8.4623131,3.0165085 8.2956874,3.0037986 8.198819,3.0004844 7.9965546,3.0005738 7.7525085,3.0006815 7.5966125,3.0082726 7.3768933,3.030747 6.9889727,3.0704262 6.5793389,3.1536661 6.2238437,3.2650531 l -0.065605,0.020556 -0.9319188,-0.00102 -0.9319189,-0.00102 0.063982,-0.048938 C 5.5470805,2.3254343 7.018329,1.8969957 8.514964,2.0242015 c 0.8930441,0.075904 1.757455,0.351523 2.525221,0.8051712 0.290517,0.1716571 0.571134,0.3704191 0.818115,0.5794733 0.158508,0.1341674 0.26806,0.2360664 0.435317,0.4049061 l 0.04651,0.04695 -0.617571,-2.382e-4 -0.61757,-2.381e-4 -0.0145,-0.00951 0,-2e-7 z"
       id="path3094"
       inkscape:connector-curvature="0"
       transform="translate(0,284)" />
    <path
       style="fill:#aad400;fill-opacity:1"
       d="M 13.095419,5.8179003 C 13.033546,5.7160233 12.902751,5.5257307 12.806604,5.3977051 12.539253,5.0417106 12.216065,4.7004404 11.868425,4.4070337 11.661105,4.232057 11.394864,4.0393857 11.161746,3.895631 l -0.05664,-0.034929 0.617906,0 0.617906,0 0.04052,0.043538 c 0.463148,0.4977067 0.830081,1.0520227 1.103889,1.6676178 0.03111,0.069935 0.08649,0.2030309 0.106595,0.2561672 l 0.0096,0.025313 -0.242276,0 -0.242276,0 -0.02152,-0.035438 0,0 z"
       id="path3096"
       inkscape:connector-curvature="0"
       transform="translate(0,284)" />
    <path
       style="fill:#aad400;fill-opacity:1"
       d="M 13.741467,7.2354261 C 13.64053,6.9096073 13.532614,6.6391992 13.383046,6.3373222 13.299278,6.1682525 13.238809,6.0571853 13.14985,5.9089954 l -0.03345,-0.05572 0.243072,0.00104 0.243072,0.00104 0.01793,0.046576 c 0.0099,0.025617 0.03509,0.096888 0.05605,0.1583817 0.107533,0.3154334 0.186023,0.6273119 0.240951,0.9574136 0.01162,0.069825 0.03674,0.2471967 0.03674,0.2594215 0,0.00495 -0.01533,0.00586 -0.099,0.00586 l -0.099,0 -0.01474,-0.047588 0,0 z"
       id="path3098"
       inkscape:connector-curvature="0"
       transform="translate(0,284)" />
    <path
       style="fill:#aad400;fill-opacity:1"
       d="m 13.904094,7.9079671 c -0.03771,-0.2044529 -0.08978,-0.4236121 -0.1468,-0.617865 -0.0019,-0.00661 0.0046,-0.00709 0.09734,-0.00709 l 0.09942,0 0.0019,0.00911 c 0.0023,0.010821 0.01243,0.1067806 0.01852,0.1751657 0.0084,0.094951 0.01589,0.2243557 0.01795,0.3120345 l 0.0021,0.088923 -0.0096,-0.085052 c -0.0053,-0.046778 -0.01087,-0.099312 -0.01244,-0.1167408 -0.0016,-0.017429 -0.0034,-0.031092 -0.0042,-0.030363 -7.29e-4,7.296e-4 -0.0051,0.035038 -0.0098,0.07624 -0.0073,0.064059 -0.03506,0.2668361 -0.03794,0.2766335 -5.28e-4,0.0018 -0.008,-0.034654 -0.0165,-0.081002 l 0,0 z"
       id="path3100"
       inkscape:connector-curvature="0"
       transform="translate(0,284)" />
    <path
       style="fill:#aad400;fill-opacity:1"
       d="m 13.96297,8.3097081 c -0.0066,-0.060383 -0.02224,-0.1771457 -0.03328,-0.2477811 -0.0046,-0.029358 -0.0084,-0.056696 -0.0085,-0.060751 -9.1e-5,-0.00406 0.0064,-0.052026 0.01436,-0.1066004 0.008,-0.054575 0.0187,-0.1320324 0.0238,-0.1721282 l 0.0093,-0.072901 0.01111,0.1032769 c 0.02232,0.2074713 0.02315,0.2633886 0.0063,0.4272828 -0.0046,0.044551 -0.01046,0.1028718 -0.01305,0.1296023 l -0.0047,0.048601 -0.0053,-0.048601 0,0 z"
       id="path3102"
       inkscape:connector-curvature="0"
       transform="translate(0,284)" />
  </g>
</svg>
