<?xml version="1.0" encoding="UTF-8" standalone="no"?>
<!-- Created with Inkscape (http://www.inkscape.org/) -->

<svg
   xmlns:dc="http://purl.org/dc/elements/1.1/"
   xmlns:cc="http://creativecommons.org/ns#"
   xmlns:rdf="http://www.w3.org/1999/02/22-rdf-syntax-ns#"
   xmlns:svg="http://www.w3.org/2000/svg"
   xmlns="http://www.w3.org/2000/svg"
   xmlns:xlink="http://www.w3.org/1999/xlink"
   xmlns:sodipodi="http://sodipodi.sourceforge.net/DTD/sodipodi-0.dtd"
   xmlns:inkscape="http://www.inkscape.org/namespaces/inkscape"
   inkscape:export-ydpi="90.000000"
   inkscape:export-xdpi="90.000000"
   width="24"
   height="24"
   id="svg11300"
   sodipodi:version="0.32"
   inkscape:version="0.48.5 r10040"
   sodipodi:docname="button-focused-pressed.svg"
   inkscape:output_extension="org.inkscape.output.svg.inkscape"
   version="1.0"
   style="display:inline;enable-background:new">
  <sodipodi:namedview
     stroke="#ef2929"
     fill="#f57900"
     id="base"
     pagecolor="#8c8c8c"
     bordercolor="#ff5e00"
     borderopacity="1"
     inkscape:pageopacity="1"
     inkscape:pageshadow="2"
     inkscape:zoom="15.328321"
     inkscape:cx="3.2522229"
     inkscape:cy="-3.9896822"
     inkscape:current-layer="layer1"
     showgrid="true"
     inkscape:grid-bbox="true"
     inkscape:document-units="px"
     inkscape:showpageshadow="false"
     inkscape:window-width="1920"
     inkscape:window-height="1005"
     inkscape:window-x="0"
     inkscape:window-y="25"
     width="400px"
     height="300px"
     inkscape:snap-nodes="true"
     inkscape:snap-bbox="true"
     gridtolerance="10000"
     inkscape:object-nodes="true"
     inkscape:snap-grids="true"
     showguides="true"
     inkscape:guide-bbox="true"
     inkscape:window-maximized="1"
     inkscape:bbox-nodes="true"
     inkscape:bbox-paths="false"
     inkscape:snap-bbox-edge-midpoints="false"
     inkscape:snap-bbox-midpoints="false"
     objecttolerance="10000"
     guidetolerance="10000"
     borderlayer="true"
     showborder="true"
     guidecolor="#ff0b00"
     guideopacity="1"
     guidehicolor="#001aff"
     guidehiopacity="0.49803922">
    <inkscape:grid
       type="xygrid"
       id="grid3123"
       empspacing="4"
       visible="true"
       enabled="true"
       snapvisiblegridlinesonly="true" />
  </sodipodi:namedview>
  <defs
     id="defs3">
    <linearGradient
       inkscape:collect="always"
       xlink:href="#linearGradient5236"
       id="linearGradient3821"
       x1="24"
       y1="22"
       x2="24"
       y2="2"
       gradientUnits="userSpaceOnUse"
       gradientTransform="translate(0,-300)" />
    <linearGradient
       id="linearGradient5236">
      <stop
         id="stop5238"
         offset="0"
         style="stop-color:#3970a7;stop-opacity:1;" />
      <stop
         id="stop5240"
         offset="1"
         style="stop-color:#568ec6;stop-opacity:1;" />
    </linearGradient>
  </defs>
  <metadata
     id="metadata4">
    <rdf:RDF>
      <cc:Work
         rdf:about="">
        <dc:format>image/svg+xml</dc:format>
        <dc:type
           rdf:resource="http://purl.org/dc/dcmitype/StillImage" />
        <dc:creator>
          <cc:Agent>
            <dc:title />
          </cc:Agent>
        </dc:creator>
        <dc:source />
        <cc:license
           rdf:resource="" />
        <dc:title />
        <dc:subject>
          <rdf:Bag />
        </dc:subject>
        <dc:date />
        <dc:rights>
          <cc:Agent>
            <dc:title />
          </cc:Agent>
        </dc:rights>
        <dc:publisher>
          <cc:Agent>
            <dc:title />
          </cc:Agent>
        </dc:publisher>
        <dc:identifier />
        <dc:relation />
        <dc:language />
        <dc:coverage />
        <dc:description />
        <dc:contributor>
          <cc:Agent>
            <dc:title />
          </cc:Agent>
        </dc:contributor>
      </cc:Work>
      <cc:Work
         rdf:about="">
        <dc:format>image/svg+xml</dc:format>
        <dc:type
           rdf:resource="http://purl.org/dc/dcmitype/StillImage" />
      </cc:Work>
    </rdf:RDF>
  </metadata>
  <g
     style="display:inline"
     inkscape:groupmode="layer"
     inkscape:label="Base"
     id="layer1"
     transform="translate(0,-276)">
    <rect
       rx="2"
       ry="2"
       y="277"
       x="1"
       height="22"
       width="22"
       id="rect3045"
       style="opacity:1;fill:#2a4a79;fill-opacity:1;stroke:none" />
    <rect
       style="fill:url(#linearGradient3821);fill-opacity:1;stroke:none"
       id="rect3043"
       width="20"
       height="20"
       x="2"
       y="-298"
       ry="2"
       rx="2"
       transform="scale(1,-1)" />
    <path
       style="fill:#000000;fill-opacity:1;stroke:none;opacity:0.14999999999999999"
       d="M 4 2 C 2.892 2 2 2.892 2 4 L 2 5 C 2 3.892 2.892 3 4 3 L 20 3 C 21.108 3 22 3.892 22 5 L 22 4 C 22 2.892 21.108 2 20 2 L 4 2 z "
       id="rect4255"
       transform="translate(0,276)" />
    <path
       id="path4264"
       d="m 4,298 c -1.108,0 -2,-0.892 -2,-2 l 0,-1 c 0,1.108 0.892,2 2,2 l 16,0 c 1.108,0 2,-0.892 2,-2 l 0,1 c 0,1.108 -0.892,2 -2,2 l -16,0 z"
       style="opacity:0.05000000000000000;fill:#000000;fill-opacity:1;stroke:none"
       inkscape:connector-curvature="0" />
    <path
       style="fill:#000000;fill-opacity:1;stroke:none;opacity:0.02000000000000000"
       d="M 4 2 C 2.892 2 2 2.892 2 4 L 2 20 C 2 21.108 2.892 22 4 22 L 20 22 C 21.108 22 22 21.108 22 20 L 22 4 C 22 2.892 21.108 2 20 2 L 4 2 z M 4.8125 3 L 19.1875 3 C 20.1847 3 21 3.8153 21 4.8125 L 21 19.1875 C 21 20.1847 20.1847 21 19.1875 21 L 4.8125 21 C 3.8153 21 3 20.1847 3 19.1875 L 3 4.8125 C 3 3.8153 3.8153 3 4.8125 3 z "
       id="rect4266"
       transform="translate(0,276)" />
    <path
       style="fill:#ffffff;fill-opacity:1;stroke:none;opacity:0.6"
       d="M 1 21 L 1 22 C 1 23.108 1.892 24 3 24 L 21 24 C 22.108 24 23 23.108 23 22 L 23 21 C 23 22.108 22.108 23 21 23 L 3 23 C 1.892 23 1 22.108 1 21 z "
       transform="translate(0,276)"
       id="rect3019" />
    <path
       style="fill:#222b00;fill-opacity:1"
       d="M 2.7409931,22.962014 C 2.0131473,22.874415 1.3681387,22.336891 1.1182893,21.609719 l -0.089813,-0.261394 0,-9.345446 0,-9.3454466 0.072347,-0.2283355 C 1.2978018,1.8074118 1.747637,1.347618 2.3875753,1.1138587 L 2.6268254,1.0264645 11.874414,1.0175 c 8.33422,-0.00808 9.273362,-0.00386 9.508543,0.042762 0.849422,0.1683728 1.488136,0.8688643 1.584651,1.7379222 0.01969,0.1772663 0.02788,3.695657 0.02188,9.4004108 -0.0089,8.462688 -0.01356,9.129988 -0.06489,9.296517 -0.219088,0.710694 -0.715038,1.206591 -1.427472,1.427319 -0.167066,0.05176 -0.811003,0.05591 -9.361756,0.06034 -5.0502918,0.0026 -9.2777606,-0.0067 -9.3943749,-0.02076 z M 20.632711,21.91174 c 0.324529,-0.110648 0.609784,-0.295346 0.839719,-0.543703 0.219521,-0.237109 0.322635,-0.411026 0.439287,-0.740921 l 0.09101,-0.257372 0,-8.350556 c 0,-8.0069497 -0.0025,-8.3585336 -0.05983,-8.544445 C 21.824688,3.09172 21.690303,2.866424 21.415844,2.5911529 21.22008,2.3948101 21.092213,2.2985219 20.905575,2.2069033 20.425482,1.9712306 21.102853,1.9870538 11.899176,1.9965173 l -8.2937698,0.00853 -0.2120259,0.07253 C 2.7714722,2.2903179 2.2923303,2.7694599 2.0795875,3.391368 l -0.07253,0.2120258 -0.00903,8.3016272 c -0.010022,9.216345 -0.02561,8.534835 0.2057378,8.994904 0.2018518,0.401413 0.5094788,0.707306 0.9123478,0.907207 0.4428047,0.219717 -0.1884389,0.205665 8.9540142,0.199331 l 8.301626,-0.0058 0.260955,-0.08897 z"
       id="path2993"
       inkscape:connector-curvature="0"
       transform="translate(0,276)" />
    <path
       style="fill:#445500;fill-opacity:1"
       d="M 3.8011223,21.95108 C 3.4349707,21.924535 3.1912891,21.841929 2.8908353,21.642499 2.5413592,21.41053 2.2237095,20.981177 2.1077252,20.584004 2.0192686,20.281096 2.0272017,20.260396 2.2360914,20.249049 l 0.1801047,-0.0098 0.2205841,0.212026 c 0.2556863,0.245766 0.5322656,0.396034 0.9004503,0.489223 0.2547444,0.06448 0.3619286,0.0653 8.4484135,0.06474 7.065219,-4.88e-4 8.221764,-0.0071 8.418732,-0.04834 0.338563,-0.07084 0.725523,-0.274623 0.969082,-0.510347 0.204019,-0.197458 0.20626,-0.198577 0.384621,-0.192068 0.09867,0.0036 0.185432,0.01257 0.192797,0.01992 0.03428,0.03424 -0.08091,0.402184 -0.201055,0.642219 -0.188897,0.377405 -0.481536,0.66058 -0.882315,0.853781 -0.165018,0.07955 -0.387132,0.160238 -0.493586,0.179309 -0.22219,0.0398 -16.0246193,0.04109 -16.5727977,0.0014 l 0,0 z"
       id="path2995"
       inkscape:connector-curvature="0"
       transform="translate(0,276)" />
    <path
       style="fill:#445500;fill-opacity:1"
       d="m 21.645156,20.142677 c 0.103001,-0.135041 0.246297,-0.451071 0.296384,-0.653656 0.03729,-0.150814 0.03988,-0.128707 0.03445,0.293575 l -0.0059,0.456671 -0.201328,0.0026 -0.201328,0.0026 0.07771,-0.101879 0,0 z"
       id="path2997"
       inkscape:connector-curvature="0"
       transform="translate(0,276)" />
    <path
       style="fill:#445500;fill-opacity:1"
       d="m 2.0446573,20.085619 c -0.011398,-0.0949 -0.020194,-0.289976 -0.019547,-0.433501 l 0.00118,-0.260955 0.078015,0.240998 c 0.042908,0.132549 0.1235483,0.314245 0.1792002,0.403771 0.055652,0.08953 0.096952,0.166348 0.091777,0.170719 -0.00517,0.0044 -0.077018,0.01775 -0.1596532,0.02973 l -0.150245,0.02178 -0.020723,-0.172546 z"
       id="path2999"
       inkscape:connector-curvature="0"
       transform="translate(0,276)" />
    <path
       style="fill:#445500;fill-opacity:1"
       d="m 2.0233673,4.0566184 c 0,-0.4108377 0.056241,-0.6567665 0.2229593,-0.9749485 0.2508129,-0.4786768 0.7337853,-0.8601808 1.2590246,-0.9945144 0.2546226,-0.065122 0.3399561,-0.065793 8.2682668,-0.065028 4.49809,4.337e-4 8.178963,0.013781 8.394043,0.030438 0.356118,0.027579 0.404287,0.039804 0.685007,0.1738411 0.489322,0.2336397 0.897912,0.6929557 1.035101,1.1636068 0.05884,0.2018684 0.113268,1.0138944 0.06781,1.0116692 -0.0099,-4.87e-4 -0.07222,-0.114247 -0.138382,-0.2528 C 21.67959,3.8607111 21.510657,3.645763 21.25887,3.4384779 21.045122,3.2625086 20.668195,3.0841475 20.404376,3.0341323 20.260493,3.0068547 18.005768,2.9995728 11.890723,3.0066368 l -8.3179362,0.00961 -0.243909,0.089014 C 2.7725981,3.3082738 2.2979489,3.7690249 2.11845,4.2802455 c -0.023622,0.067277 -0.05468,0.1223226 -0.069016,0.1223226 -0.014337,0 -0.026067,-0.1556774 -0.026067,-0.3459497 z"
       id="path3001"
       inkscape:connector-curvature="0"
       transform="translate(0,276)" />
    <path
       style="fill:#668000;fill-opacity:1"
       d="m 2.0233673,11.660375 0,-1.321084 0.4892903,0 0.4892904,0 0,-0.7828642 0,-0.7828647 8.98209,0 8.98209,0 0.02057,0.1712517 c 0.01131,0.094188 0.0207,0.4464774 0.02085,0.7828646 l 2.83e-4,0.6116126 0.48929,0 0.489291,0 0,1.321084 0,1.321084 -0.488731,0 -0.48873,0 -0.0087,-0.823638 -0.0087,-0.823639 -8.994788,-0.0082 -8.994788,-0.0082 0,0.831852 0,0.831852 -0.4892904,0 -0.4892903,0 0,-1.321084 z"
       id="path3003"
       inkscape:connector-curvature="0"
       transform="translate(0,276)" />
    <path
       style="fill:#668000;fill-opacity:1"
       d="m 2.0233673,9.442259 0,-0.8970324 0.4892903,0 0.4892904,0 0,-0.6850065 0,-0.6850065 8.981917,0 8.981916,0 0.02079,0.2201806 c 0.01144,0.1210994 0.0209,0.4293523 0.02103,0.6850066 l 2.32e-4,0.4648258 0.48929,0 0.489291,0 0,0.8970324 0,0.897032 -0.489291,0 -0.48929,0 -4.44e-4,-0.7094707 c -2.61e-4,-0.3902091 -0.0093,-0.7424981 -0.02011,-0.7828646 l -0.01967,-0.073394 -8.982829,0 -8.982829,0 0,0.7828647 0,0.7828642 -0.4892904,0 -0.4892903,0 0,-0.897032 z"
       id="path3005"
       inkscape:connector-curvature="0"
       transform="translate(0,276)" />
    <path
       style="fill:#668000;fill-opacity:1"
       d="M 3.5293295,20.923492 C 2.9853944,20.804608 2.4991522,20.422805 2.2540541,19.92213 2.1063231,19.620352 2.0233673,19.33311 2.0233673,19.123355 l 0,-0.139934 0.4892903,0 c 0.4131786,0 0.4892904,-0.0076 0.4892904,-0.04893 0,-0.04132 -0.076112,-0.04893 -0.4892904,-0.04893 l -0.4892903,0 0,-1.272155 0,-1.272155 0.4892903,0 0.4892904,0 0,-0.09786 0,-0.09786 -0.4892904,0 -0.4892903,0 0,-1.386323 0,-1.386322 0.4892903,0 0.4892904,0 0,-0.179407 0,-0.179406 -0.4892904,0 -0.4892903,0 -0.00815,-2.927588 C 2.0036333,5.929586 2.0158109,4.7930439 2.0746804,4.5363221 2.1386513,4.2573536 2.2849562,3.9587998 2.4490432,3.7723872 l 0.1343976,-0.1526837 0.4242068,0 0.4242068,0 0.1846339,-0.1652921 C 3.718037,3.3635008 3.9112126,3.2350621 4.0457675,3.1689921 l 0.2446452,-0.1201274 7.6559313,-0.00843 7.655932,-0.00842 0.217645,0.081921 c 0.214269,0.080651 0.557528,0.3013287 0.679214,0.4366599 0.05737,0.063802 0.09536,0.069108 0.494903,0.069108 l 0.432764,0 0.118835,0.1386322 c 0.164127,0.1914693 0.334753,0.5511333 0.390738,0.8236389 0.05772,0.2809765 0.06961,1.405425 0.05819,5.5045164 l -0.0082,2.927588 -0.489291,0 -0.48929,0 0,0.179406 0,0.179407 0.48929,0 0.489291,0 0,1.386322 0,1.386323 -0.489291,0 -0.48929,0 0,0.09786 0,0.09786 0.48929,0 0.489291,0 0,1.272155 0,1.272155 -0.489291,0 c -0.413178,0 -0.48929,0.0076 -0.48929,0.04893 0,0.04134 0.07661,0.04893 0.493795,0.04893 l 0.493795,0 -0.02136,0.208514 c -0.04722,0.460925 -0.334478,1.033957 -0.650903,1.298455 -0.173825,0.1453 -0.441942,0.297373 -0.692443,0.392747 l -0.19372,0.07376 -8.350556,0.0059 c -7.0064663,0.0049 -8.3838019,-0.0014 -8.5571095,-0.03927 z M 20.999556,11.652221 c -0.0058,-0.192862 -0.01049,-0.03507 -0.01049,0.350658 0,0.385724 0.0047,0.54352 0.01049,0.350658 0.0058,-0.192862 0.0058,-0.508454 0,-0.701316 z m -0.02816,-2.8597328 c -0.02869,-0.026324 -0.03307,-0.020124 -0.0173,0.024516 0.01161,0.032863 0.02432,0.2457046 0.02823,0.4729807 l 0.0071,0.4132289 0.01017,-0.437745 c 0.0071,-0.3057836 -0.0014,-0.4483671 -0.02823,-0.4729807 l 0,0 z m 0.028,-1.2979575 c -0.0064,-0.1128324 -0.01167,-0.029005 -0.01173,0.1862829 -6.5e-5,0.2152878 0.0052,0.3076048 0.01162,0.2051494 0.0065,-0.1024558 0.0065,-0.2786003 1.3e-4,-0.3914323 l -1.3e-5,0 z"
       id="path3007"
       inkscape:connector-curvature="0"
       transform="translate(0,276)" />
    <path
       style="fill:#668000;fill-opacity:1"
       d="m 3.6069471,20.905732 c -0.6592033,-0.07638 -1.2730062,-0.65332 -1.5072224,-1.416711 -0.057546,-0.187561 -0.060048,-0.496069 -0.060048,-7.404594 0,-5.6774796 0.00879,-7.2595584 0.041393,-7.4474491 C 2.1324274,4.3409737 2.273877,4.0233908 2.4555519,3.7961898 L 2.594206,3.6227901 3.0293042,3.6212468 3.4644024,3.6197035 3.6327623,3.4723579 c 0.092598,-0.08104 0.2784503,-0.204585 0.4130052,-0.2745443 l 0.2446452,-0.1271987 7.6818593,-0.00756 7.681859,-0.00756 0.186634,0.08418 c 0.200488,0.090429 0.43313,0.2394221 0.60552,0.3877996 0.105692,0.09097 0.113004,0.092242 0.53822,0.093612 l 0.431071,0.00139 0.124077,0.1609099 c 0.178179,0.2310729 0.34166,0.6056105 0.37878,0.8677931 0.01747,0.1233999 0.03777,0.4406654 0.04511,0.7050344 l 0.01334,0.4806711 -0.998279,0.00911 -0.99828,0.00911 1.003045,0.00767 1.003046,0.00767 0,3.5718198 0,3.57182 -0.489291,0 -0.48929,0 0,0.179406 0,0.179407 0.48929,0 0.489291,0 0,2.756336 0,2.756335 -0.489291,0 c -0.413178,0 -0.48929,0.0076 -0.48929,0.04893 0,0.04133 0.0764,0.04893 0.491882,0.04893 l 0.491882,0 -0.01715,0.0897 c -0.0094,0.04934 -0.02705,0.155757 -0.03914,0.23649 -0.03301,0.220363 -0.197228,0.608331 -0.363128,0.857881 -0.178409,0.268364 -0.382973,0.428641 -0.798026,0.625253 l -0.312081,0.147834 -8.314162,-0.0043 c -4.5727894,-0.0024 -8.4162199,-0.01611 -8.5409569,-0.03056 z M 2.9285545,18.894819 c -0.049337,-0.0075 -0.1300697,-0.0075 -0.1794065,0 -0.049337,0.0075 -0.00897,0.01359 0.089703,0.01359 0.098674,0 0.13904,-0.0061 0.089703,-0.01359 z M 20.999404,11.782698 c -0.0063,-0.121099 -0.01141,-0.02202 -0.01141,0.220181 0,0.242198 0.0051,0.34128 0.01141,0.22018 0.0063,-0.121099 0.0063,-0.319262 0,-0.440361 z m -0.02787,-2.9900764 c -0.02887,-0.026493 -0.03324,-0.020374 -0.01743,0.024383 0.01161,0.032863 0.02425,0.2163472 0.02808,0.407742 l 0.007,0.3479901 0.01046,-0.3723728 c 0.0072,-0.2567545 -0.0015,-0.3833544 -0.02808,-0.407742 z m 0.02744,-1.2504402 c -0.007,-0.067277 -0.0128,-0.012232 -0.0128,0.1223225 0,0.1345549 0.0058,0.1896001 0.0128,0.1223226 0.007,-0.067277 0.007,-0.1773677 0,-0.2446451 z"
       id="path3009"
       inkscape:connector-curvature="0"
       transform="translate(0,276)" />
    <path
       style="fill:#668000;fill-opacity:1"
       d="m 3.6069471,20.905732 c -0.6542405,-0.0758 -1.2963024,-0.67648 -1.4968839,-1.400401 -0.0721,-0.260218 -0.1007496,-0.52191 -0.057138,-0.52191 0.019624,0 0.03568,-0.02202 0.03568,-0.04893 0,-0.02691 -0.014791,-0.04893 -0.032869,-0.04893 -0.051689,0 -0.02429,-14.0127756 0.027927,-14.282671 0.05236,-0.2706393 0.1942076,-0.5792558 0.3692547,-0.8033849 l 0.1404284,-0.1798036 0.4355278,0 0.4355279,0 0.1683599,-0.1473456 C 3.7253603,3.3913178 3.9112126,3.26784 4.0457675,3.1979628 l 0.2446452,-0.1270495 7.6818593,-0.00945 7.681859,-0.00945 0.25122,0.1212105 c 0.138171,0.066666 0.342409,0.1943943 0.453862,0.2838413 l 0.202642,0.1626309 0.428052,0 0.428053,0 0.125672,0.1683331 c 0.181999,0.2437804 0.338081,0.6034904 0.374528,0.8631488 0.01732,0.1233998 0.03877,0.4400788 0.04767,0.703731 l 0.01618,0.4793677 -0.136429,0.012379 -0.13643,0.012379 0.138632,0.0057 0.138633,0.0057 0,6.5583978 c 0,4.653613 -0.01054,6.626529 -0.0363,6.792981 -0.07565,0.488872 -0.381247,1.058702 -0.694675,1.295342 -0.09306,0.07027 -0.309646,0.19428 -0.48129,0.275589 l -0.312081,0.147834 -8.314162,-0.0043 c -4.5727894,-0.0024 -8.4162199,-0.01611 -8.5409569,-0.03056 z m 17.6455319,-1.95493 -0.228335,-0.0211 0.228335,-0.01193 0.228336,-0.01193 -0.192064,-0.0119 c -0.209541,-0.01299 -0.296305,0.0056 -0.26475,0.05663 0.01117,0.01807 0.118518,0.03026 0.238558,0.02709 l 0.218256,-0.0058 -0.228336,-0.0211 z M 2.8963154,18.895771 c -0.031187,-0.0082 -0.089902,-0.0085 -0.1304774,-6.59e-4 -0.040576,0.0078 -0.015059,0.01448 0.056703,0.01484 0.071763,3.62e-4 0.1049609,-0.006 0.073774,-0.01419 l 0,1e-6 z M 20.999099,11.864246 c -0.0069,-0.07625 -0.01249,-0.01386 -0.01249,0.138633 0,0.152495 0.0056,0.21488 0.01249,0.138632 0.0069,-0.07625 0.0069,-0.201017 0,-0.277265 z m -0.02502,-3.0504335 c -0.03374,-0.052411 -0.03503,-0.052177 -0.01764,0.00319 0.01033,0.032863 0.02176,0.1796505 0.02541,0.3261936 l 0.0066,0.2664418 0.011,-0.2696336 c 0.0066,-0.1620243 -0.0035,-0.2922065 -0.02541,-0.3261936 l 0,-1.6e-6 z m 0.02416,-1.2227021 c -0.0078,-0.040367 -0.01414,-0.00734 -0.01414,0.073393 0,0.080733 0.0064,0.1137601 0.01414,0.073394 0.0078,-0.040367 0.0078,-0.1064207 0,-0.1467871 z"
       id="path3011"
       inkscape:connector-curvature="0"
       transform="translate(0,276)" />
    <path
       style="fill:#668000;fill-opacity:1"
       d="M 20.787313,3.5955434 C 20.59987,3.5849051 20.565049,3.5702461 20.363261,3.4170237 20.242349,3.3252123 20.04067,3.2016749 19.915085,3.1424961 l -0.228335,-0.1075978 0.311185,-0.00117 c 0.174184,-6.559e-4 0.39318,0.020185 0.497427,0.047338 0.257322,0.067024 0.598229,0.2447449 0.773427,0.4032021 l 0.146787,0.1327609 -0.212026,-0.00495 c -0.116614,-0.00272 -0.303921,-0.010163 -0.416237,-0.016537 z"
       id="path3013"
       inkscape:connector-curvature="0"
       transform="translate(0,276)" />
    <path
       style="fill:#668000;fill-opacity:1"
       d="m 2.0273553,13.455153 c -0.00168,-1.108435 -0.00306,-3.372445 -0.00308,-5.0311335 -3.76e-5,-3.6862008 0.0014,-3.7396046 0.1089608,-4.0613243 0.081231,-0.2429546 0.1961212,-0.442803 0.3685763,-0.6411279 l 0.082734,-0.095145 0.4254465,0 0.4254465,0 0.06697,-0.061321 C 3.7101289,3.3749064 3.8682573,3.2664209 4.1229496,3.1393753 l 0.1729903,-0.086291 7.6542091,-0.008 7.654209,-0.008 0.131318,0.051346 c 0.278813,0.1090176 0.544859,0.2691652 0.738144,0.4443267 0.04284,0.038828 0.08688,0.070478 0.09785,0.070333 0.01217,-1.602e-4 0.0058,-0.00724 -0.01632,-0.018156 -0.03809,-0.018787 -0.09649,-0.073898 -0.07818,-0.073767 0.0059,4.16e-5 0.02567,0.00997 0.04402,0.022071 0.01835,0.012097 0.04066,0.019197 0.04957,0.015777 0.0089,-0.00342 0.02244,0.00212 0.03007,0.012316 0.01693,0.022635 0.132908,0.040586 0.28488,0.044094 l 0.109561,0.00253 -0.132626,0.00693 c -0.09261,0.00484 -0.02773,0.00763 0.215027,0.00923 l 0.347654,0.0023 0.07128,0.083612 c 0.226283,0.2654256 0.404548,0.6487921 0.444209,0.9552893 0.03839,0.2967075 0.04314,0.6872871 0.04523,3.7240976 0.0011,1.6523455 5.08e-4,3.9215455 -0.0014,5.0426665 l -0.0035,2.038402 -9.975391,0 -9.9753906,0 -0.00305,-2.015337 z m 18.9707277,-1.53332 c -0.0022,-0.04945 -0.004,-0.01206 -0.004,0.08309 0,0.09515 0.0018,0.135602 0.0039,0.08991 0.0022,-0.0457 0.0022,-0.123543 0,-0.172991 l 2.9e-5,0 z m 8.19e-4,-2.9093949 c -0.0031,-0.1069558 -0.01009,-0.1758106 -0.01937,-0.190541 -0.01258,-0.019961 -0.01369,-0.01608 -0.0082,0.028832 0.0035,0.028543 0.01003,0.124553 0.01457,0.2133547 0.01048,0.2048872 0.01941,0.1695032 0.01303,-0.051645 l 0,0 z m -0.0011,-1.4157302 c -0.0027,-0.01753 -0.0049,-0.00592 -0.005,0.02579 -1.15e-4,0.031715 0.0021,0.046058 0.0048,0.031873 0.0027,-0.014184 0.0028,-0.040133 1.62e-4,-0.057663 l -4e-6,0 z m -0.3629,-3.9894559 c -0.0079,-0.0032 -0.0209,-0.0032 -0.02883,0 -0.0079,0.0032 -0.0014,0.00582 0.01442,0.00582 0.01586,0 0.02235,-0.00262 0.01442,-0.00582 z"
       id="path3015"
       inkscape:connector-curvature="0"
       transform="translate(0,276)" />
    <path
       style="fill:#668000;fill-opacity:1"
       d="M 2.0238182,11.494597 C 2.0120853,6.2004662 2.0205405,4.9537733 2.0704826,4.6140915 2.1025795,4.3957834 2.2287064,4.0862219 2.3630418,3.8960441 2.3938626,3.8524114 2.4563098,3.7738968 2.5018134,3.7215673 l 0.082734,-0.095145 0.4232207,-5.92e-5 0.4232207,-5.92e-5 0.1326258,-0.1162375 C 3.7320855,3.3624133 3.9039117,3.2485141 4.1229496,3.1392976 l 0.1729903,-0.086256 7.6538021,-0.00814 7.653802,-0.00814 0.136526,0.053281 c 0.205353,0.080141 0.39249,0.1828248 0.588532,0.322933 0.03294,0.023543 0.06575,0.040854 0.0729,0.03847 0.03312,-0.01104 -0.318029,-0.2339169 -0.536441,-0.3404838 l -0.149924,-0.073151 0.276784,0.00517 c 0.401611,0.00751 0.529714,0.032546 0.801276,0.1566075 0.226396,0.1034278 0.352839,0.1859785 0.546195,0.3565931 0.246325,0.2173548 0.421567,0.4915197 0.539359,0.8438252 0.104855,0.3136136 0.105777,0.3498285 0.107266,4.2142897 6.8e-4,1.7696902 -1.27e-4,4.0362952 -0.0018,5.0369002 l -0.003,1.819281 -9.97427,0 -9.9742704,0 -0.00881,-3.975893 0,0 z m 18.9741598,0.461307 c -0.0024,-0.03013 -0.0043,-0.0055 -0.0043,0.05478 0,0.06026 0.0019,0.08491 0.0043,0.05478 0.0024,-0.03013 0.0024,-0.07943 0,-0.109561 z m 6.23e-4,-2.9442609 c -0.0039,-0.1202432 -0.01012,-0.1777937 -0.02039,-0.1874061 -0.01194,-0.011178 -0.0135,-0.00677 -0.008,0.022688 0.0038,0.020108 0.0104,0.1044411 0.01478,0.1874062 0.0044,0.082965 0.01049,0.1508454 0.01357,0.1508454 0.0031,0 0.0031,-0.07809 0,-0.1735336 l 4e-5,0 z m -0.0011,-1.4033416 c -0.0029,-0.011221 -0.0055,-0.00483 -0.0057,0.014196 -2.31e-4,0.019029 0.0022,0.02821 0.0053,0.020402 0.0032,-0.00781 0.0034,-0.023377 4.26e-4,-0.034598 l 10e-7,0 z m 0.175571,-4.0007157 c 0.0026,-0.00233 -0.02331,-0.0043 -0.05766,-0.00439 -0.124958,-3.257e-4 -0.444051,-0.022844 -0.482634,-0.034059 -0.02484,-0.00722 -0.03543,-0.00735 -0.02843,-3.467e-4 0.01518,0.015183 0.122112,0.034568 0.19068,0.034568 0.03165,0 0.05609,0.0053 0.05609,0.012164 0,0.00833 0.05004,0.00966 0.158574,0.00423 0.08722,-0.00436 0.160737,-0.00984 0.163381,-0.012164 l 0,0 z m -0.532666,3.364e-4 c -0.0038,-0.00383 -0.01378,-0.00424 -0.0221,-9.105e-4 -0.0092,0.00368 -0.0065,0.00641 0.007,0.00697 0.01216,5.007e-4 0.01897,-0.00222 0.01514,-0.00606 l 0,0 z m 0.611607,-9.562e-4 c -0.01103,-0.00289 -0.03178,-0.00299 -0.04613,-2.327e-4 -0.01435,0.00276 -0.0053,0.00512 0.02005,0.00525 0.02537,1.28e-4 0.03711,-0.00213 0.02608,-0.00502 l 0,0 z m -0.666148,-0.00824 c 0,-0.00255 -0.01687,-0.015937 -0.03748,-0.029753 l -0.03748,-0.025119 0.0346,0.00652 c 0.0306,0.00577 0.03207,0.00487 0.01274,-0.00773 -0.01202,-0.00784 -0.04611,-0.030132 -0.07576,-0.049544 -0.07816,-0.051188 -0.09111,-0.034919 -0.02201,0.02765 0.07071,0.064019 0.12539,0.098024 0.12539,0.077974 l 0,0 z"
       id="path3017"
       inkscape:connector-curvature="0"
       transform="translate(0,276)" />
    <path
       style="fill:#668000;fill-opacity:1"
       d="m 2.0264933,13.639676 c -0.00188,-1.006947 -0.00263,-3.299501 -0.00167,-5.0945633 0.00208,-3.887705 0.00142,-3.8624088 0.1083745,-4.1822953 0.080946,-0.2421037 0.1960096,-0.4426891 0.3673883,-0.6404543 0.044968,-0.051892 0.076199,-0.096203 0.069401,-0.098469 -0.0068,-0.00227 0.028933,-0.042844 0.079402,-0.090174 0.2290283,-0.214783 0.5118778,-0.3699897 0.845031,-0.4636899 0.1178857,-0.033156 0.1308683,-0.034312 0.4901391,-0.043661 0.3963609,-0.010314 15.5970806,-0.015899 15.6072456,-0.00573 0.0033,0.00335 -1.202682,0.00735 -2.680067,0.0089 l -2.686154,0.00281 2.710181,0.00594 2.71018,0.00594 0.113014,0.048698 c 0.182851,0.07879 0.336896,0.1621706 0.488755,0.2645474 0.07829,0.052778 0.148769,0.095844 0.15663,0.095703 0.05192,-9.316e-4 -0.355751,-0.254454 -0.591175,-0.3676407 l -0.09803,-0.04713 0.276784,0.00488 c 0.400464,0.00706 0.529825,0.032209 0.798864,0.1552929 0.238528,0.1091246 0.371494,0.1965782 0.558328,0.3672214 0.06776,0.061885 0.148803,0.1436568 0.1801,0.1817147 0.201303,0.2447873 0.374422,0.6290123 0.411869,0.9141138 0.0089,0.068105 0.02193,0.2587602 0.02887,0.4236776 0.01997,0.4752526 0.02665,3.1591185 0.01721,6.9167278 l -0.0087,3.468455 -9.974272,0 -9.9742724,0 -0.00342,-1.830814 z M 20.997762,11.97897 c -0.0026,-0.01744 -0.0048,-0.0032 -0.0048,0.03171 0,0.03489 0.0022,0.04916 0.0048,0.03172 0.0026,-0.01744 0.0026,-0.04599 0,-0.06343 z m 2.31e-4,-2.9717911 c -0.0036,-0.085452 -0.01246,-0.1643234 -0.0198,-0.1758734 -0.01118,-0.017613 -0.01231,-0.015025 -0.0071,0.016288 0.0034,0.020476 0.0097,0.099619 0.01403,0.1758734 0.0043,0.076254 0.01043,0.1386442 0.0136,0.1386442 0.0032,0 0.0028,-0.069719 -7.26e-4,-0.1549324 l -6e-6,0 z m -6.11e-4,-1.3926097 c -0.0037,-0.0092 -0.0064,-0.00647 -0.007,0.00697 -4.95e-4,0.012157 0.0022,0.018969 0.0061,0.015137 0.0038,-0.00383 0.0042,-0.013779 9.11e-4,-0.022104 l -10e-7,0 z m 0.175242,-4.0059648 c 0.0029,-0.00289 -0.02286,-0.00532 -0.05722,-0.00541 -0.09481,-2.472e-4 -0.450414,-0.022012 -0.477163,-0.029204 -0.0195,-0.00524 -0.02037,-0.00432 -0.005,0.00539 0.01018,0.00644 0.07167,0.01672 0.13665,0.022834 0.06498,0.00611 0.120437,0.013408 0.123238,0.01621 0.0065,0.00652 0.272547,-0.00282 0.279541,-0.00981 l 0,0 z M 3.5858396,3.490031 C 3.7345478,3.3606836 3.9140669,3.2435037 4.1255388,3.1377462 l 0.1755794,-0.087808 4.3048687,-0.00256 c 2.3676781,-0.00141 4.5669491,-0.00553 4.8872691,-0.00916 0.32032,-0.00363 -1.615441,-0.00641 -4.3016914,-0.00617 l -4.884092,4.326e-4 -0.1672239,0.082983 C 3.8735674,3.2478102 3.6874589,3.3742397 3.505951,3.546371 c -0.095676,0.090734 -0.061444,0.066592 0.079889,-0.05634 z M 21.246323,3.6073252 c -0.0078,-0.00316 -0.02338,-0.00335 -0.0346,-4.273e-4 -0.01122,0.00292 -0.0048,0.00551 0.0142,0.00574 0.01903,2.35e-4 0.02821,-0.00216 0.0204,-0.00532 l 0,-10e-8 z m -0.695706,-0.034234 c -0.0316,-0.024082 -0.03442,-0.029015 -0.01377,-0.024145 0.03894,0.00919 0.0322,0.00146 -0.03771,-0.043262 -0.07873,-0.050361 -0.101375,-0.052212 -0.05671,-0.00464 0.04056,0.043205 0.119051,0.102309 0.135871,0.102309 0.0066,0 -0.0058,-0.01362 -0.02768,-0.030266 z"
       id="path3019"
       inkscape:connector-curvature="0"
       transform="translate(0,276)" />
    <path
       style="fill:#445500;fill-opacity:1"
       d="m 12.037022,21.494935 0,-0.485108 1.163359,-0.0013 c 0.639848,-6.91e-4 1.185416,-0.0015 1.212374,-0.0017 0.02696,-2.68e-4 0.848229,-0.0014 1.825047,-0.0026 3.070898,-0.0037 3.914131,-0.01198 4.146,-0.04076 0.06139,-0.0076 0.234142,-0.061 0.348864,-0.107796 0.131473,-0.05363 0.263103,-0.123415 0.384943,-0.204083 0.113626,-0.07523 0.176338,-0.126363 0.312562,-0.254857 0.08178,-0.07714 0.131452,-0.115048 0.168194,-0.12836 0.01386,-0.005 0.05504,-0.01112 0.09151,-0.01354 0.05204,-0.0035 0.05793,-0.0046 0.02739,-0.0053 -0.02141,-4.73e-4 -0.03892,-0.0034 -0.03892,-0.0064 0,-0.003 -0.02215,-0.0063 -0.04922,-0.0072 l -0.04922,-0.0017 0.05116,-0.0692 c 0.07767,-0.105059 0.121165,-0.1824 0.193717,-0.344491 0.0458,-0.102332 0.08388,-0.206853 0.115579,-0.317226 0.01344,-0.04679 0.02615,-0.0868 0.02825,-0.0889 0.0021,-0.0021 0.0044,0.02451 0.005,0.05913 l 0.0012,0.06295 0.0019,-0.05478 c 0.0021,-0.05848 -0.0012,-0.08333 -0.01026,-0.07774 -0.0073,0.0045 -0.0075,0.0068 0.0059,-0.07126 0.0063,-0.03698 0.01385,-0.0893 0.0167,-0.116256 0.0033,-0.03141 0.0047,0.13534 0.0038,0.464191 -0.0012,0.443129 -0.0027,0.521866 -0.01091,0.576634 -0.02209,0.146942 -0.04835,0.258961 -0.09003,0.384063 -0.05274,0.158274 -0.169701,0.398642 -0.191243,0.393008 -0.0086,-0.0022 -0.0068,-0.0081 0.01308,-0.04385 0.104569,-0.187793 0.228697,-0.528599 0.244156,-0.670358 0.005,-0.04541 -0.0013,-0.05207 -0.05326,-0.05692 -0.02144,-0.002 -0.04935,-0.0051 -0.06204,-0.0069 -0.01269,-0.0018 -0.02142,-0.0015 -0.0194,5.88e-4 0.002,0.0021 0.02918,0.0065 0.06036,0.0096 0.03118,0.0032 0.06022,0.0087 0.06453,0.0123 0.02457,0.02039 -0.0474,0.281569 -0.134999,0.489931 -0.219315,0.521658 -0.576368,0.860823 -1.138177,1.081153 -0.09348,0.03666 -0.189474,0.06886 -0.255433,0.08568 -0.05624,0.01434 -0.05825,0.01443 -0.441125,0.01969 -0.211547,0.0029 -0.734937,0.0067 -1.163088,0.0085 -0.428151,0.0018 -0.979557,0.0045 -1.225347,0.0061 -0.245791,0.0016 -1.595764,0.0045 -2.99994,0.0065 l -2.553048,0.0036 0,-0.485108 z m 9.766742,-1.238863 c -0.0087,-0.0013 -0.02299,-0.0013 -0.03172,0 -0.0087,0.0013 -0.0016,0.0024 0.01586,0.0024 0.01744,0 0.02458,-0.0011 0.01586,-0.0024 z m 0.167391,-0.101105 -0.0013,-0.08794 -0.0018,0.08487 -0.0018,0.08487 -0.0676,0.0018 -0.0676,0.0018 0.07064,0.0012 0.07064,0.0012 -0.0013,-0.08794 z m 0.0056,-0.475724 c -9.2e-4,-0.06898 -0.0017,-0.01254 -0.0017,0.125418 0,0.13796 7.53e-4,0.194398 0.0017,0.125418 9.2e-4,-0.06898 9.2e-4,-0.181856 0,-0.250836 z"
       id="path3021"
       inkscape:connector-curvature="0"
       transform="translate(0,276)" />
    <path
       style="fill:#445500;fill-opacity:1"
       d="m 12.037022,21.495708 0,-0.484449 2.085974,-0.0035 c 4.956141,-0.0083 5.600587,-0.01148 6.024386,-0.02977 0.216073,-0.0093 0.261241,-0.01494 0.36328,-0.04518 0.179883,-0.0533 0.333998,-0.119152 0.487387,-0.208248 0.175272,-0.101807 0.261657,-0.167709 0.440917,-0.336373 0.0381,-0.03585 0.0883,-0.07801 0.111562,-0.0937 0.04562,-0.03077 0.04948,-0.03958 0.005,-0.01135 -0.01489,0.0094 -0.02708,0.01578 -0.02708,0.01408 0,-0.0017 0.0082,-0.01332 0.01826,-0.02582 0.01617,-0.02012 0.02129,-0.02282 0.04469,-0.02355 l 0.02642,-8.18e-4 -0.02131,-0.0035 -0.02131,-0.0035 0.04338,-0.05766 c 0.128215,-0.170433 0.244622,-0.414614 0.316609,-0.664141 0.01448,-0.05019 0.0281,-0.09514 0.03026,-0.0999 0.0022,-0.0048 0.0054,0.016 0.0072,0.04613 l 0.0033,0.05478 0.0011,-0.05342 c 6.23e-4,-0.03017 -0.0016,-0.05777 -0.0051,-0.06343 -0.0046,-0.0074 -0.0031,-0.02897 0.0054,-0.08209 l 0.01165,-0.07208 -0.0016,0.487256 c -0.0016,0.46695 -0.0022,0.49014 -0.01388,0.556452 -0.03195,0.18074 -0.0628,0.29476 -0.11748,0.434212 -0.03967,0.101171 -0.125299,0.276226 -0.142918,0.292171 -0.01703,0.01542 -0.01435,0.0056 0.01181,-0.04307 0.108242,-0.201493 0.230358,-0.548269 0.232343,-0.659795 l 7.23e-4,-0.04056 -0.0206,-0.0069 c -0.02249,-0.0075 -0.119837,-0.01727 -0.114497,-0.01151 0.0018,0.002 0.02882,0.0062 0.06002,0.0094 0.0312,0.0032 0.0604,0.0089 0.0649,0.01267 0.03417,0.02836 -0.08501,0.403125 -0.203238,0.639061 -0.175491,0.350212 -0.444446,0.621684 -0.804343,0.811874 -0.155014,0.08192 -0.374724,0.168894 -0.520614,0.206095 -0.05604,0.01429 -0.05896,0.01442 -0.432476,0.01969 -0.206829,0.0029 -0.740629,0.0067 -1.186223,0.0085 -0.445595,0.0018 -0.955483,0.0045 -1.133087,0.0061 -0.177603,0.0016 -1.517197,0.0045 -2.976874,0.0065 l -2.653959,0.0037 0,-0.48445 z m 9.661507,-1.241703 c 0.03108,-7.19e-4 0.03639,-0.0019 0.02306,-0.0053 -0.02664,-0.0068 -0.08834,-0.0068 -0.07785,0 0.0066,0.0043 0.0043,0.0056 -0.0098,0.0057 -0.01012,4.6e-5 -0.01978,0.0023 -0.02147,0.0051 -0.0017,0.0028 0.0078,0.0029 0.02128,2.51e-4 0.01339,-0.0026 0.04252,-0.0051 0.06472,-0.0056 l 0,0 z m 0.09947,0.0022 c -0.0055,-0.0015 -0.01463,-0.0015 -0.02018,0 -0.0056,0.0014 -0.001,0.0026 0.01009,0.0026 0.0111,0 0.01564,-0.0012 0.01009,-0.0026 z m 0.173185,-0.08685 -0.0012,-0.07352 -0.0018,0.07045 -0.0018,0.07045 -0.0647,0.0018 -0.0647,0.0018 0.06775,0.0012 0.06775,0.0012 -0.0012,-0.07352 0,0 z m 0.0055,-0.406236 c -0.001,-0.0295 -0.0019,-0.0069 -0.0019,0.05016 0,0.05709 8.52e-4,0.08122 0.0019,0.05363 0.0011,-0.02759 0.0011,-0.0743 0,-0.103794 l 1.1e-5,0 z"
       id="path3023"
       inkscape:connector-curvature="0"
       transform="translate(0,276)" />
    <path
       style="fill:#445500;fill-opacity:1"
       d="m 2.2486555,20.234761 c 0.083245,-0.01412 0.1297428,-0.02478 0.1297428,-0.02975 0,-0.0016 -0.00393,-0.01224 -0.00873,-0.02373 -0.0048,-0.01149 -0.00776,-0.02185 -0.00658,-0.02303 0.00118,-0.0012 0.015189,0.01574 0.031133,0.03759 l 0.028989,0.03973 -0.064214,0.0038 c -0.035317,0.0021 -0.092757,0.005 -0.1276433,0.0064 l -0.06343,0.0027 0.080729,-0.01369 z"
       id="path3025"
       inkscape:connector-curvature="0"
       transform="translate(0,276)" />
    <path
       style="fill:#445500;fill-opacity:1"
       d="m 4.310123,20.988582 c -0.1701307,-0.0018 -0.4840775,-0.01256 -0.5679848,-0.01948 -0.038058,-0.0031 -0.09255,-0.0096 -0.1210932,-0.01442 -0.054105,-0.0091 -0.1429272,-0.03161 -0.1392297,-0.03531 0.00117,-0.0012 0.024862,0.0018 0.052641,0.0067 0.067094,0.0117 0.2551691,0.01973 0.60556,0.02587 0.2540053,0.0044 0.2955226,0.0065 0.3488637,0.01689 0.033301,0.0065 0.077413,0.0142 0.098028,0.01708 0.039883,0.0056 0.016566,0.0058 -0.2767844,0.0027 z"
       id="path3027"
       inkscape:connector-curvature="0"
       transform="translate(0,276)" />
  </g>
</svg>
