<?xml version="1.0" encoding="UTF-8" standalone="no"?>
<!-- Created with Inkscape (http://www.inkscape.org/) -->

<svg
   xmlns:dc="http://purl.org/dc/elements/1.1/"
   xmlns:cc="http://creativecommons.org/ns#"
   xmlns:rdf="http://www.w3.org/1999/02/22-rdf-syntax-ns#"
   xmlns:svg="http://www.w3.org/2000/svg"
   xmlns="http://www.w3.org/2000/svg"
   xmlns:xlink="http://www.w3.org/1999/xlink"
   xmlns:sodipodi="http://sodipodi.sourceforge.net/DTD/sodipodi-0.dtd"
   xmlns:inkscape="http://www.inkscape.org/namespaces/inkscape"
   inkscape:export-ydpi="90.000000"
   inkscape:export-xdpi="90.000000"
   width="24"
   height="24"
   id="svg11300"
   sodipodi:version="0.32"
   inkscape:version="0.48.5 r10040"
   sodipodi:docname="button-focused-hover.svg"
   inkscape:output_extension="org.inkscape.output.svg.inkscape"
   version="1.0"
   style="display:inline;enable-background:new">
  <sodipodi:namedview
     stroke="#ef2929"
     fill="#f57900"
     id="base"
     pagecolor="#8c8c8c"
     bordercolor="#ff5e00"
     borderopacity="1"
     inkscape:pageopacity="1"
     inkscape:pageshadow="2"
     inkscape:zoom="30.656642"
     inkscape:cx="8.5599902"
     inkscape:cy="10.918068"
     inkscape:current-layer="layer1"
     showgrid="true"
     inkscape:grid-bbox="true"
     inkscape:document-units="px"
     inkscape:showpageshadow="false"
     inkscape:window-width="1920"
     inkscape:window-height="1005"
     inkscape:window-x="0"
     inkscape:window-y="25"
     width="400px"
     height="300px"
     inkscape:snap-nodes="true"
     inkscape:snap-bbox="true"
     gridtolerance="10000"
     inkscape:object-nodes="true"
     inkscape:snap-grids="true"
     showguides="true"
     inkscape:guide-bbox="true"
     inkscape:window-maximized="1"
     inkscape:bbox-nodes="true"
     inkscape:bbox-paths="false"
     inkscape:snap-bbox-edge-midpoints="false"
     inkscape:snap-bbox-midpoints="false"
     objecttolerance="10000"
     guidetolerance="10000"
     borderlayer="true"
     showborder="true"
     guidecolor="#ff0b00"
     guideopacity="1"
     guidehicolor="#001aff"
     guidehiopacity="0.49803922">
    <inkscape:grid
       type="xygrid"
       id="grid3123"
       empspacing="4"
       visible="true"
       enabled="true"
       snapvisiblegridlinesonly="true" />
  </sodipodi:namedview>
  <defs
     id="defs3">
    <linearGradient
       inkscape:collect="always"
       xlink:href="#linearGradient5236"
       id="linearGradient3821"
       x1="24"
       y1="22"
       x2="24"
       y2="2"
       gradientUnits="userSpaceOnUse"
       gradientTransform="translate(0,276)" />
    <linearGradient
       id="linearGradient5236">
      <stop
         id="stop5238"
         offset="0"
         style="stop-color:#4884c0;stop-opacity:1;" />
      <stop
         id="stop5240"
         offset="1"
         style="stop-color:#74a2d0;stop-opacity:1;" />
    </linearGradient>
  </defs>
  <metadata
     id="metadata4">
    <rdf:RDF>
      <cc:Work
         rdf:about="">
        <dc:format>image/svg+xml</dc:format>
        <dc:type
           rdf:resource="http://purl.org/dc/dcmitype/StillImage" />
        <dc:creator>
          <cc:Agent>
            <dc:title />
          </cc:Agent>
        </dc:creator>
        <dc:source />
        <cc:license
           rdf:resource="" />
        <dc:title />
        <dc:subject>
          <rdf:Bag />
        </dc:subject>
        <dc:date />
        <dc:rights>
          <cc:Agent>
            <dc:title />
          </cc:Agent>
        </dc:rights>
        <dc:publisher>
          <cc:Agent>
            <dc:title />
          </cc:Agent>
        </dc:publisher>
        <dc:identifier />
        <dc:relation />
        <dc:language />
        <dc:coverage />
        <dc:description />
        <dc:contributor>
          <cc:Agent>
            <dc:title />
          </cc:Agent>
        </dc:contributor>
      </cc:Work>
      <cc:Work
         rdf:about="">
        <dc:format>image/svg+xml</dc:format>
        <dc:type
           rdf:resource="http://purl.org/dc/dcmitype/StillImage" />
      </cc:Work>
    </rdf:RDF>
  </metadata>
  <g
     style="display:inline"
     inkscape:groupmode="layer"
     inkscape:label="Base"
     id="layer1"
     transform="translate(0,-276)">
    <rect
       rx="2"
       ry="2"
       y="277"
       x="1"
       height="22"
       width="22"
       id="rect3045"
       style="opacity:1;fill:#2a4a79;fill-opacity:1;stroke:none" />
    <rect
       style="fill:url(#linearGradient3821);fill-opacity:1.0;stroke:none"
       id="rect3043"
       width="20"
       height="20"
       x="2"
       y="278"
       ry="2"
       rx="2" />
    <path
       style="fill:#ffffff;fill-opacity:1;stroke:none;opacity:0.15"
       d="M 4 2 C 2.892 2 2 2.892 2 4 L 2 5 C 2 3.892 2.892 3 4 3 L 20 3 C 21.108 3 22 3.892 22 5 L 22 4 C 22 2.892 21.108 2 20 2 L 4 2 z "
       transform="translate(0,276)"
       id="rect4255" />
    <path
       id="path4264"
       d="m 4,298 c -1.108,0 -2,-0.892 -2,-2 l 0,-1 c 0,1.108 0.892,2 2,2 l 16,0 c 1.108,0 2,-0.892 2,-2 l 0,1 c 0,1.108 -0.892,2 -2,2 l -16,0 z"
       style="opacity:0.05;fill:#ffffff;fill-opacity:1;stroke:none"
       inkscape:connector-curvature="0" />
    <path
       style="fill:#ffffff;fill-opacity:1;stroke:none;opacity:0.02"
       d="M 4 2 C 2.892 2 2 2.892 2 4 L 2 20 C 2 21.108 2.892 22 4 22 L 20 22 C 21.108 22 22 21.108 22 20 L 22 4 C 22 2.892 21.108 2 20 2 L 4 2 z M 4.8125 3 L 19.1875 3 C 20.1847 3 21 3.8153 21 4.8125 L 21 19.1875 C 21 20.1847 20.1847 21 19.1875 21 L 4.8125 21 C 3.8153 21 3 20.1847 3 19.1875 L 3 4.8125 C 3 3.8153 3.8153 3 4.8125 3 z "
       transform="translate(0,276)"
       id="rect4266" />
    <path
       style="fill:#222b00;fill-opacity:1"
       d="M 2.6606711,22.956179 C 2.2457413,22.886373 1.748648,22.600119 1.485884,22.279671 1.2923534,22.043656 1.0984954,21.632873 1.0522125,21.360725 1.0263102,21.208418 1.0187665,18.534866 1.0254292,11.868492 L 1.0347042,2.5882845 1.104075,2.407309 C 1.3270484,1.8256126 1.6520872,1.4544457 2.1437624,1.2200736 2.5892509,1.0077177 1.8467863,1.0225553 12.027428,1.0225553 c 8.93382,0 9.304153,0.00234 9.492233,0.06001 0.539157,0.1653136 1.013629,0.5504465 1.23398,1.0016307 0.236432,0.4841093 0.217582,-0.3738756 0.217582,9.9037124 0,6.524696 -0.01046,9.322963 -0.03531,9.444605 -0.01942,0.09507 -0.09616,0.297627 -0.170536,0.450122 -0.23577,0.48343 -0.663274,0.842473 -1.229401,1.032522 -0.172625,0.05795 -0.529563,0.0604 -9.443304,0.06476 -5.1019035,0.0025 -9.3394195,-0.0082 -9.4319959,-0.02374 l 0,0 z M 20.439011,21.964496 c 0.706672,-0.149719 1.304796,-0.72479 1.510078,-1.451874 0.05736,-0.203156 0.05986,-0.559314 0.05986,-8.513652 0,-7.8264986 -0.0033,-8.31353 -0.05746,-8.5095968 C 21.857527,3.1492689 21.677343,2.8412487 21.423134,2.5861571 21.174542,2.3367032 20.954587,2.1969248 20.622629,2.0774476 l -0.212026,-0.076312 -8.293769,-0.00853 C 4.8676132,1.9851542 3.7933171,1.9902116 3.5868714,2.0327638 3.28859,2.0942451 2.8789946,2.2960699 2.6591267,2.4899025 2.429663,2.6921947 2.1770248,3.0787249 2.0868779,3.3654289 l -0.073593,0.2340558 0,8.3994853 0,8.399484 0.079579,0.243006 c 0.097248,0.296961 0.3389845,0.666603 0.5655604,0.864807 0.2188138,0.191413 0.5476504,0.362813 0.8460718,0.440999 0.2307352,0.06045 0.4760806,0.06229 8.4740029,0.06348 7.088758,0.0011 8.267617,-0.0054 8.460512,-0.04625 z"
       id="path2992"
       inkscape:connector-curvature="0"
       transform="translate(0,276)" />
    <path
       style="fill:#668000;fill-opacity:1"
       d="m 2.0295946,7.4648787 0,-1.1416776 0.4680236,0 0.4680237,0 0.021267,-0.3475776 c 0.011697,-0.1911677 0.021267,-0.4994206 0.021267,-0.6850066 l 0,-0.3374289 8.9823656,0 8.982365,0 0.02022,0.1223226 c 0.01112,0.067277 0.02038,0.3755304 0.02058,0.6850066 l 3.59e-4,0.5626839 0.489291,0 0.48929,0 0,1.1416776 0,1.1416775 -0.48929,0 -0.489291,0 -1.63e-4,-0.3669678 c -9.8e-5,-0.2018323 -0.0096,-0.5100852 -0.02123,-0.6850065 l -0.02107,-0.3180388 -8.981713,0 -8.9817136,0 -2.316e-4,0.4648259 c -1.273e-4,0.2556542 -0.00959,0.5639072 -0.021027,0.6850065 l -0.020795,0.2201807 -0.4682638,0 -0.4682638,0 0,-1.1416775 z"
       id="path2994"
       inkscape:connector-curvature="0"
       transform="translate(0,276)" />
    <path
       style="fill:#668000;fill-opacity:1"
       d="M 2.0359395,5.4343236 2.0469521,4.5454461 2.1450768,4.3008009 2.2432014,4.0561557 2.6990819,4.0459406 3.1549625,4.0357255 3.2758762,3.8502244 C 3.5109102,3.4896448 3.868946,3.218352 4.2756115,3.0926999 4.4790987,3.0298261 4.6213695,3.0286459 11.997002,3.0286459 l 7.514084,0 0.24569,0.078021 c 0.135129,0.042912 0.318543,0.1247708 0.407586,0.1819094 0.19056,0.1222822 0.512677,0.4581966 0.604317,0.6302017 l 0.0645,0.1210678 0.44859,0 0.44859,0 0.0623,0.1223226 c 0.157743,0.3097036 0.176805,0.4408944 0.191949,1.321084 l 0.01445,0.8399485 -0.492503,0 -0.492503,0 0,-0.6334096 c 0,-0.3483753 -0.0089,-0.6566283 -0.0198,-0.6850066 -0.01799,-0.046877 -0.841156,-0.051597 -8.998108,-0.051597 l -8.9783091,0 -0.020949,0.2691098 c -0.011522,0.1480103 -0.021198,0.4012181 -0.021503,0.5626839 -3.034e-4,0.1614658 -0.00965,0.3486194 -0.020773,0.4158968 l -0.020219,0.1223226 -0.4547368,0 -0.454737,0 0.011013,-0.8888775 0,0 z"
       id="path2996"
       inkscape:connector-curvature="0"
       transform="translate(0,276)" />
    <path
       style="fill:#668000;fill-opacity:1"
       d="M 2.3131698,3.9349258 C 2.3455802,3.8772197 2.4748488,3.7263022 2.6004334,3.5995535 2.7741878,3.4241884 2.895046,3.3368517 3.1060334,3.234188 3.4564353,3.063687 3.6351144,3.0277666 4.1106843,3.0322198 4.4113642,3.0350354 4.462962,3.0415923 4.3538371,3.0631189 3.9899396,3.1349036 3.5856848,3.4147726 3.3142406,3.7828403 3.1297037,4.0330652 3.113167,4.0389288 2.5904344,4.039487 l -0.3361926,3.59e-4 0.058928,-0.1049202 z"
       id="path2998"
       inkscape:connector-curvature="0"
       transform="translate(0,276)" />
    <path
       style="fill:#668000;fill-opacity:1"
       d="M 20.775865,3.9012137 C 20.658528,3.7011282 20.274418,3.3298804 20.08441,3.2329126 19.994706,3.1871339 19.847919,3.1235187 19.758216,3.0915456 l -0.163097,-0.058133 0.332743,-0.00238 c 0.421697,-0.00302 0.611095,0.036569 0.950715,0.1987273 0.205908,0.098315 0.330011,0.1870285 0.509245,0.3640291 0.130343,0.128719 0.261412,0.2817404 0.291264,0.3400475 l 0.05428,0.1060129 -0.4381,0 -0.438099,0 -0.0813,-0.1386323 z"
       id="path3000"
       inkscape:connector-curvature="0"
       transform="translate(0,276)" />
    <path
       style="fill:#668000;fill-opacity:1"
       d="m 2.0295946,9.5035886 0,-0.8970324 0.4691763,0 c 0.4589791,0 0.4696037,-0.0016 0.4888449,-0.073393 0.010818,-0.040366 0.019869,-0.3486194 0.020114,-0.6850066 l 4.455e-4,-0.611613 8.9662466,0 8.966246,0 0.02039,0.1019355 c 0.01121,0.056065 0.02039,0.2299541 0.02039,0.3864212 0,0.1564671 0.0095,0.4188491 0.02119,0.583071 l 0.0212,0.2985854 0.484405,0 0.484406,0 0,0.8970324 0,0.8970324 -0.48929,0 -0.489291,0 -1.3e-4,-0.203871 c -6.5e-5,-0.112129 -0.0097,-0.4130427 -0.02138,-0.6686969 l -0.02125,-0.4648259 -8.981559,0 -8.9815596,0 0,0.6171 c 0,0.3394048 -0.00891,0.6403188 -0.0198,0.6686968 -0.016786,0.04374 -0.091267,0.0516 -0.4892904,0.0516 l -0.4694908,0 0,-0.8970324 z"
       id="path3002"
       inkscape:connector-curvature="0"
       transform="translate(0,276)" />
    <path
       style="fill:#668000;fill-opacity:1"
       d="m 2.0295946,11.086499 0,-0.684134 0.4811355,-0.009 0.4811356,-0.009 0.00883,-0.6605418 0.00883,-0.660542 8.9652148,0 8.965214,0 0.02074,0.1513399 c 0.01141,0.083237 0.02087,0.3070872 0.02103,0.4974452 1.64e-4,0.1903579 0.0095,0.4231687 0.02085,0.5173567 l 0.02057,0.171252 0.484747,0 0.484747,0 0,0.685006 0,0.685007 -0.48929,0 -0.489291,0 0,-0.239488 c 0,-0.131718 -0.0096,-0.439971 -0.02137,-0.685006 l -0.02137,-0.445519 -8.981576,0 -8.9815766,0 0,0.685006 0,0.685007 -0.4892904,0 -0.4892904,0 0,-0.684135 z"
       id="path3004"
       inkscape:connector-curvature="0"
       transform="translate(0,276)" />
    <path
       style="fill:#668000;fill-opacity:1"
       d="m 21.013929,12.871537 c -6.5e-5,-0.14801 -0.0097,-0.456263 -0.02134,-0.685006 l -0.02121,-0.415897 -8.981599,0 -8.9815996,0 0,-0.685007 0,-0.685006 8.9658896,0 8.96589,0 0.02074,0.15134 c 0.01141,0.08324 0.02074,0.301264 0.02074,0.484505 0,0.183241 0.0094,0.423391 0.02096,0.533667 l 0.02096,0.200501 0.484644,0 0.484643,0 0,0.685007 0,0.685006 -0.48929,0 -0.489291,0 -1.3e-4,-0.26911 -2e-6,0 z"
       id="path3006"
       inkscape:connector-curvature="0"
       transform="translate(0,276)" />
    <path
       style="fill:#668000;fill-opacity:1"
       d="m 2.0295946,13.368983 0,-1.141678 0.4892904,0 0.4892904,0 0,-0.228335 0,-0.228336 8.9660556,0 8.966056,0 0.02022,0.122323 c 0.01112,0.06728 0.02048,0.276449 0.02081,0.464825 3.26e-4,0.188377 0.0099,0.441585 0.02139,0.562684 l 0.02079,0.220181 0.484573,0 0.484574,0 0,0.685007 0,0.685006 -0.48929,0 -0.489291,0 0,-0.288453 c 0,-0.158649 -0.0096,-0.466902 -0.02132,-0.685006 l -0.02132,-0.396554 -8.98162,0 -8.9816206,0 0,0.685007 0,0.685006 -0.4892904,0 -0.4892904,0 0,-1.141677 z"
       id="path3008"
       inkscape:connector-curvature="0"
       transform="translate(0,276)" />
    <path
       style="fill:#668000;fill-opacity:1"
       d="m 2.0295946,13.368983 0,-1.141678 0.4892904,0 0.4892904,0 0,-0.228335 0,-0.228336 -0.4892904,0 -0.4892904,0 0,-0.668697 c 0,-0.512945 0.0095,-0.668813 0.040774,-0.669196 0.029056,-3.56e-4 0.02765,-0.0088 -0.00489,-0.02941 C 2.026675,10.37876 2.0225321,9.9365988 2.037901,7.4599316 L 2.0559867,4.5454461 2.1543046,4.3171105 2.2526226,4.088775 2.7037925,4.0675281 C 3.1477062,4.0466229 3.1560117,4.0448401 3.2202012,3.9566835 3.519489,3.5456473 3.7853564,3.3168013 4.1498529,3.1564838 L 4.3292594,3.0775749 8.3414405,3.0573413 C 10.54814,3.0462128 13.956396,3.0352038 15.915342,3.0328768 l 3.561722,-0.00423 0.238434,0.085553 c 0.131139,0.047054 0.292333,0.1128221 0.358211,0.146151 0.167153,0.084567 0.484114,0.3854846 0.631606,0.5996366 0.06813,0.098923 0.13705,0.1798594 0.153155,0.1798594 0.05796,0 -0.255494,-0.4037623 -0.447438,-0.5763432 -0.10788,-0.096997 -0.298896,-0.226504 -0.42448,-0.2877938 l -0.228336,-0.1114361 0.295809,-0.0015 c 0.513335,-0.00261 0.942242,0.18044 1.337895,0.5709899 0.287435,0.2837283 0.477253,0.6459635 0.537566,1.0258548 0.02822,0.1777572 0.04298,1.5578798 0.05399,5.0478458 l 0.01515,4.8032004 -0.492278,0 -0.492278,0 0,-0.533667 c 0,-0.293516 -0.0093,-0.601769 -0.02074,-0.685006 l -0.02074,-0.15134 -8.982199,0 -8.9821996,0 0,0.685007 0,0.685006 -0.4892904,0 -0.4892904,0 0,-1.141677 z M 20.997033,12.007124 c -0.03162,-0.353485 -0.06778,-0.285448 -0.04332,0.08153 0.01166,0.174933 0.02584,0.464848 0.03152,0.644254 l 0.01032,0.326194 0.01132,-0.407742 c 0.0062,-0.224258 0.0018,-0.514163 -0.0098,-0.644233 z m 0,-1.370013 c -0.01164,-0.130069 -0.03615,-0.23649 -0.05448,-0.23649 -0.01833,0 -0.02573,0.0198 -0.01644,0.044 0.0093,0.0242 0.02921,0.314103 0.04426,0.644233 l 0.02738,0.600235 0.01022,-0.407742 c 0.0056,-0.224258 6.98e-4,-0.514163 -0.01094,-0.644233 z m -17.995737,-0.587148 -0.00688,-0.3506583 -0.010555,0.3328843 -0.010555,0.332883 -0.2190557,0.01139 -0.2190557,0.01139 0.2364903,0.0064 0.2364904,0.0064 -0.00688,-0.350658 0,0 z M 20.997033,9.2997176 c -0.01164,-0.1300697 -0.03615,-0.2364904 -0.05448,-0.2364904 -0.01833,0 -0.02573,0.019799 -0.01644,0.043997 0.0093,0.024199 0.02921,0.3141032 0.04426,0.6442323 l 0.02738,0.6002351 0.01022,-0.4077421 c 0.0056,-0.2242581 6.98e-4,-0.5141626 -0.01094,-0.6442323 z M 3.0032879,8.1398052 c -0.00552,-0.4858445 -0.020406,-0.4446642 -0.035043,0.096928 -0.00541,0.2002619 0.00136,0.3571917 0.015045,0.3487332 0.013687,-0.00846 0.022686,-0.2090066 0.019997,-0.4456613 l 0,0 z M 20.99727,7.4077948 c -0.0337,-0.281187 -0.06684,-0.1938174 -0.04331,0.1141677 0.01199,0.1569807 0.02629,0.4322065 0.03177,0.611613 0.0096,0.3149468 0.01034,0.3110103 0.02102,-0.1141677 0.0061,-0.2421988 0.0018,-0.5174246 -0.0095,-0.611613 z M 2.9872387,6.2008785 c 0.01112,-0.067277 0.018184,-0.3498426 0.015698,-0.6279226 L 2.998416,5.0673558 2.9730336,5.5729559 c -0.01396,0.27808 -0.032386,0.5606452 -0.040945,0.6279226 -0.00856,0.067277 -0.0042,0.1223226 0.00968,0.1223226 0.013886,0 0.034346,-0.055045 0.045466,-0.1223226 z M 21.005626,5.174647 c -0.0064,-0.1128321 -0.01167,-0.029005 -0.01173,0.186283 -6.5e-5,0.2152878 0.0052,0.3076049 0.01161,0.2051493 0.0065,-0.1024557 0.0065,-0.2786002 1.31e-4,-0.3914323 l -1.4e-5,0 z"
       id="path3010"
       inkscape:connector-curvature="0"
       transform="translate(0,276)" />
    <path
       style="fill:#668000;fill-opacity:1"
       d="m 2.0295946,15.636028 0,-1.125368 0.4892904,0 0.4892904,0 0,-0.685006 0,-0.685007 8.9658896,0 8.96589,0 0.02074,0.15134 c 0.01141,0.08324 0.02085,0.292408 0.02097,0.464826 1.3e-4,0.172417 0.0096,0.412567 0.02103,0.533666 l 0.02079,0.220181 0.484573,0 0.484574,0 0,1.125368 0,1.125368 -0.48929,0 -0.489291,0 -1.63e-4,-0.318039 c -9.8e-5,-0.174921 -0.0097,-0.483174 -0.02129,-0.685006 l -0.02113,-0.366968 -8.981649,0 -8.9816496,0 0,0.685006 0,0.685007 -0.4892904,0 -0.4892904,0 0,-1.125368 z"
       id="path3012"
       inkscape:connector-curvature="0"
       transform="translate(0,276)" />
    <path
       style="fill:#668000;fill-opacity:1"
       d="m 2.0295946,14.49435 0,-2.267045 0.4892904,0 0.4892904,0 0,-0.228335 0,-0.228336 -0.4930543,0 -0.4930542,0 L 2.0380461,8.15804 2.0540252,4.5454461 2.1503032,4.3171105 2.2465812,4.088775 2.7007718,4.0655088 C 3.1436496,4.0428221 3.1565874,4.0400612 3.2202012,3.9546642 3.5351932,3.5318099 3.78589,3.3165666 4.1498529,3.1564838 l 0.1794065,-0.078909 3.2945552,-0.016757 c 1.8120054,-0.00922 5.2199674,-0.020331 7.5732494,-0.0247 l 4.278694,-0.00794 0.239087,0.085789 c 0.131498,0.047184 0.292986,0.1130575 0.358864,0.1463864 0.167156,0.084569 0.484115,0.3854857 0.631612,0.5996453 0.143637,0.2085548 0.199844,0.2167002 0.06391,0.00926 C 20.611875,3.6291212 20.249292,3.3070558 19.993817,3.1804936 l -0.235601,-0.1167168 0.295809,-0.00126 c 0.513648,-0.00218 0.942469,0.1809122 1.337895,0.571238 0.286765,0.2830665 0.476847,0.6454205 0.538141,1.0258548 0.02937,0.1823058 0.04301,1.7553364 0.05352,6.1732132 l 0.0141,5.928569 -0.491809,0 -0.49181,0 0,-0.533667 c 0,-0.293516 -0.0093,-0.601769 -0.02074,-0.685006 l -0.02074,-0.15134 -8.982199,0 -8.9821996,0 0,0.685006 0,0.685007 -0.4892904,0 -0.4892904,0 0,-2.267046 z M 20.997033,13.377137 c -0.01164,-0.130069 -0.03615,-0.23649 -0.05448,-0.23649 -0.01833,0 -0.02542,0.02062 -0.01574,0.04582 0.0097,0.0252 0.02959,0.315104 0.04426,0.644232 l 0.02668,0.598415 0.01022,-0.407742 c 0.0056,-0.224258 6.98e-4,-0.514163 -0.01094,-0.644233 z m -1.96e-4,-1.372439 c -0.03913,-0.436452 -0.05405,-0.21516 -0.02638,0.391246 0.02695,0.590428 0.02742,0.593218 0.03754,0.222793 0.0056,-0.206317 6.16e-4,-0.482635 -0.01117,-0.614039 l 0,0 z M 20.997,10.669731 c -0.01178,-0.148011 -0.03635,-0.26911 -0.0546,-0.26911 -0.01825,0 -0.02541,0.02026 -0.0159,0.04502 0.0095,0.02476 0.02942,0.307328 0.04426,0.627923 0.02622,0.566238 0.02728,0.572643 0.03732,0.224086 0.0057,-0.197347 6.94e-4,-0.479912 -0.01108,-0.627922 l 0,0 z M 3.0015336,10.115202 2.994894,9.8297822 l -0.010962,0.2674498 -0.010963,0.26745 -0.1699593,0.01193 -0.1699593,0.01194 0.1875614,0.006 0.1875636,0.006 -0.00664,-0.285419 -2.2e-6,0 z M 20.997023,9.3323369 c -0.01179,-0.1480103 -0.03579,-0.2691097 -0.05333,-0.2691097 -0.01754,0 -0.02441,0.025688 -0.01527,0.057084 0.0091,0.031396 0.02848,0.306622 0.04297,0.611613 0.02549,0.5362919 0.0267,0.5432649 0.03671,0.2120258 0.0057,-0.1883768 7.08e-4,-0.4636026 -0.01108,-0.611613 z M 2.9996969,8.0287535 c -0.00649,-0.1038137 -0.011865,-0.027286 -0.011939,0.1700607 -7.5e-5,0.1973471 0.00524,0.2822857 0.011805,0.1887523 0.00657,-0.093533 0.00663,-0.2549993 1.337e-4,-0.358813 l 10e-8,0 z M 20.982844,7.3493389 c -0.02598,-0.1015959 -0.02965,-0.053306 -0.01721,0.2266269 0.0087,0.1956529 0.01901,0.445191 0.02293,0.5545291 0.0039,0.1093382 0.01166,0.00736 0.01721,-0.2266269 0.0055,-0.2339829 -0.0048,-0.483521 -0.02293,-0.5545291 z M 2.9874319,6.1718613 c 0.011409,-0.083237 0.018585,-0.3511234 0.015947,-0.5953033 l -0.0048,-0.4439635 -0.026107,0.4729807 c -0.014359,0.2601394 -0.030937,0.5280259 -0.03684,0.5953033 -0.01537,0.175178 0.027067,0.1514041 0.051796,-0.029017 z M 21.005248,5.2556447 c -0.0071,-0.067678 -0.01296,-0.020299 -0.0131,0.1052853 -1.31e-4,0.1255846 0.0056,0.1809571 0.01284,0.1230502 0.0072,-0.057907 0.0073,-0.1606579 2.61e-4,-0.2283355 l 3e-6,0 z"
       id="path3014"
       inkscape:connector-curvature="0"
       transform="translate(0,276)" />
    <path
       style="fill:#668000;fill-opacity:1"
       d="m 21.014061,17.79398 c 0,-0.185586 -0.0096,-0.493839 -0.02127,-0.685006 l -0.02127,-0.347578 -8.981676,0 -8.9816766,0 0,-0.685007 0,-0.685006 8.9660556,0 8.966056,0 0.02022,0.122322 c 0.01112,0.06728 0.02038,0.263226 0.02058,0.43544 1.96e-4,0.172215 0.0099,0.425422 0.02145,0.562684 l 0.0211,0.249567 0.484504,0 0.484504,0 0,0.685006 0,0.685007 -0.48929,0 -0.489291,0 0,-0.337429 z"
       id="path3016"
       inkscape:connector-curvature="0"
       transform="translate(0,276)" />
    <path
       style="fill:#668000;fill-opacity:1"
       d="m 21.014061,17.597742 c 0,-0.293516 -0.0093,-0.601769 -0.02074,-0.685006 l -0.02074,-0.15134 -9.471489,0 -9.4714904,0 0,-2.267046 0,-2.267045 0.4892904,0 0.4892904,0 0,-0.228335 0,-0.228336 -0.4933652,0 -0.4933652,0 L 2.0375765,8.15804 2.053708,4.5454461 2.1500965,4.3171105 2.2464849,4.088775 2.586556,4.0683076 C 2.773595,4.0570505 2.9780024,4.0459592 3.0407947,4.0436603 3.1426231,4.0399322 3.1755423,4.0128246 3.345373,3.7928531 3.5489036,3.5292321 3.8266118,3.3028136 4.1172335,3.1635469 L 4.29664,3.0775749 7.5585759,3.0602711 c 1.7940647,-0.00952 5.2076601,-0.02063 7.5857671,-0.024694 l 4.323831,-0.00739 0.227195,0.077274 c 0.124957,0.042501 0.288152,0.108372 0.362655,0.1463808 0.177839,0.090727 0.494762,0.3862861 0.633495,0.5907916 0.121527,0.1791414 0.197946,0.2249373 0.104206,0.062447 C 20.675974,3.6975042 20.27677,3.3365799 20.013418,3.1977904 l -0.255202,-0.1344942 0.295809,-0.00102 c 0.513952,-0.00176 0.942689,0.1813698 1.337895,0.5714783 0.286458,0.2827642 0.476662,0.6451715 0.538402,1.0258548 0.02989,0.1842669 0.04304,1.8768706 0.0533,6.8582202 l 0.01362,6.613575 -0.491588,0 -0.491589,0 0,-0.533667 z m -0.01693,-2.002488 c -0.03322,-0.324322 -0.06677,-0.236139 -0.04342,0.114145 0.01166,0.174934 0.02586,0.457509 0.03155,0.627945 0.0099,0.296845 0.01083,0.292041 0.02156,-0.114168 0.0062,-0.233228 0.0018,-0.515793 -0.0097,-0.627922 z m -9.8e-5,-2.185497 c -0.01179,-0.148011 -0.03637,-0.26911 -0.05462,-0.26911 -0.01825,0 -0.02555,0.0199 -0.01621,0.04422 0.0093,0.02432 0.02925,0.299546 0.04426,0.611613 0.02616,0.543758 0.02773,0.553127 0.03765,0.224892 0.0057,-0.188377 7.08e-4,-0.463603 -0.01108,-0.611613 z m -2.7e-5,-1.37244 c -0.03753,-0.415557 -0.05439,-0.227445 -0.02627,0.293124 0.02398,0.443959 0.0282,0.469087 0.03744,0.223058 0.0057,-0.152496 7.01e-4,-0.384777 -0.01117,-0.516182 z m 0.0094,-1.068468 c -0.01144,-0.340295 -0.03036,-0.52082 -0.05728,-0.546374 -0.03135,-0.02976 -0.0362,-0.0238 -0.02205,0.02707 0.01,0.03588 0.02829,0.28175 0.04067,0.546374 0.01239,0.264625 0.03,0.481136 0.03913,0.481136 0.0091,0 0.0089,-0.228695 -4.73e-4,-0.508211 l -1e-6,0 z M 3.0020076,10.19675 l -0.00617,-0.203871 -0.011714,0.185686 -0.011714,0.185686 -0.1207507,0.0127 -0.1207507,0.0127 0.1386323,0.0055 0.1386323,0.0055 -0.00617,-0.203871 z M 21.006348,9.6314555 c -0.01144,-0.3402953 -0.03036,-0.5208203 -0.05728,-0.5463743 -0.03134,-0.029755 -0.03628,-0.02379 -0.0224,0.027075 0.0098,0.035881 0.02789,0.2817497 0.04023,0.5463742 0.01234,0.2646246 0.0301,0.4811355 0.03948,0.4811355 0.0094,0 0.0094,-0.2286949 -3e-5,-0.5082105 z M 2.9993615,8.0935287 c -0.00706,-0.067677 -0.012957,-0.020299 -0.013102,0.1052855 -1.435e-4,0.1255846 0.00563,0.1809572 0.012839,0.12305 0.00721,-0.057907 0.00732,-0.1606578 2.642e-4,-0.2283355 l -1.1e-6,0 z M 20.983035,7.4154868 c -0.02769,-0.1084095 -0.03061,-0.08394 -0.01759,0.1472499 0.0086,0.1524955 0.01877,0.3506581 0.02263,0.4403614 0.0039,0.089703 0.01178,0.023441 0.01759,-0.14725 0.0058,-0.1706906 -0.0044,-0.3688532 -0.02263,-0.4403613 z M 3.0057575,5.6409128 c 0.00133,-0.222763 -0.00315,-0.3989075 -0.00996,-0.3914323 -0.00681,0.00748 -0.020449,0.2557902 -0.030316,0.5518109 -0.011272,0.3382011 -0.00757,0.4836691 0.00996,0.3914323 0.015344,-0.080733 0.028986,-0.3290478 0.030315,-0.5518109 z M 21.003927,5.2875365 c -0.0082,-0.031396 -0.01492,-0.00571 -0.01492,0.057084 0,0.062792 0.0067,0.08848 0.01492,0.057084 0.0082,-0.031396 0.0082,-0.082772 0,-0.1141677 l 0,0 z"
       id="path3018"
       inkscape:connector-curvature="0"
       transform="translate(0,276)" />
    <path
       style="fill:#668000;fill-opacity:1"
       d="m 2.0515107,19.47237 c -0.012054,-0.06027 -0.021916,-0.643518 -0.021916,-1.296109 l 0,-1.18653 0.4892904,0 0.4892904,0 0,-0.114167 0,-0.114168 8.9660556,0 8.966056,0 0.02022,0.122322 c 0.01112,0.06728 0.02047,0.254431 0.02077,0.415897 2.93e-4,0.161466 0.01,0.414674 0.0215,0.562684 l 0.02095,0.26911 0.484456,0 0.484455,0 -0.0039,0.578994 c -0.0021,0.318446 -0.01326,0.623029 -0.02475,0.676851 l -0.02089,0.09786 -0.479705,0.009 -0.479706,0.009 0.01938,-0.207497 c 0.01066,-0.114123 0.0086,-0.422766 -0.0045,-0.685872 l -0.02391,-0.478375 -8.983242,0 -8.9832426,0 0,0.685006 0,0.685007 -0.4539528,0 c -0.3311025,0 -0.4575849,0.0109 -0.4673742,0.04026 -0.00738,0.02215 -0.023284,-0.009 -0.035338,-0.06932 z"
       id="path3020"
       inkscape:connector-curvature="0"
       transform="translate(0,276)" />
    <path
       style="fill:#668000;fill-opacity:1"
       d="m 2.0512132,18.596235 c -0.011821,-0.497853 -0.02152,-1.062984 -0.021555,-1.255846 l -6.33e-5,-0.350658 0.4892904,0 0.4892904,0 0,-0.114167 0,-0.114168 -0.4892904,0 -0.4892904,0 0,-2.267046 0,-2.267045 0.4892904,0 0.4892904,0 0,-0.228335 0,-0.228336 -0.493152,0 -0.4931519,0 0.014301,-3.612594 0.014301,-3.6125939 0.098332,-0.2283356 C 2.217815,4.1568633 2.2657682,4.086829 2.3096174,4.0822489 2.3439816,4.0786595 2.5453898,4.0661514 2.7571911,4.054453 L 3.1422844,4.0331834 3.3563115,3.7744842 C 3.5773933,3.5072577 3.8501343,3.2899214 4.1335432,3.1551395 L 4.29664,3.0775749 7.3302404,3.0609359 c 1.6684802,-0.00915 5.0819466,-0.020307 7.5854826,-0.024791 l 4.551881,-0.00815 0.228763,0.077807 c 0.12582,0.042794 0.27561,0.1020327 0.332867,0.1316417 0.05726,0.029609 0.104105,0.046353 0.104105,0.03721 0,-0.00914 -0.0844,-0.06019 -0.187562,-0.1134365 l -0.187561,-0.096812 0.295809,-0.00157 c 0.513254,-0.00272 0.942182,0.1803161 1.337895,0.5709248 0.282829,0.2791814 0.483783,0.656822 0.539309,1.0134889 0.02345,0.1506414 0.04033,2.2345669 0.05136,6.3405211 0.0153,5.69458 -7.34e-4,8.361297 -0.05074,8.440513 -0.01162,0.0184 -0.218225,0.03856 -0.469272,0.04579 l -0.448517,0.01291 -3.58e-4,-0.555465 c -1.96e-4,-0.305505 -0.0095,-0.610509 -0.02058,-0.677786 l -0.02022,-0.122323 -8.982365,0 -8.9823656,0 0,0.685006 0,0.685007 -0.4677351,0 -0.4677351,0 -0.021492,-0.905187 0,0 z M 20.997131,16.965267 c -0.03255,-0.317758 -0.06714,-0.239436 -0.04322,0.09785 0.01177,0.165956 0.02597,0.448524 0.03155,0.627931 l 0.01015,0.326193 0.0112,-0.424051 c 0.0062,-0.233229 0.0018,-0.515794 -0.0097,-0.627923 z m -2.28e-4,-1.30709 c -0.03757,-0.469615 -0.05531,-0.263177 -0.02663,0.309771 0.02393,0.478088 0.02882,0.510975 0.03791,0.255228 0.0057,-0.161465 6.65e-4,-0.415715 -0.01128,-0.564999 z m 0.0081,-1.96723 c -0.01208,-0.3143 -0.03298,-0.506791 -0.05755,-0.530065 -0.0292,-0.02766 -0.03421,-0.02069 -0.0206,0.02869 0.0099,0.03588 0.0281,0.27441 0.04047,0.530065 0.01237,0.255654 0.03017,0.464826 0.03957,0.464826 0.0094,0 0.0085,-0.222084 -0.0019,-0.49352 l -1e-6,0 z m -0.0077,-1.58819 c -0.01226,-0.167175 -0.02957,-0.296671 -0.03848,-0.287769 -0.0089,0.0089 -0.0038,0.211735 0.01124,0.450741 0.01508,0.239006 0.0324,0.368503 0.03848,0.28777 0.0061,-0.08073 0.001,-0.283567 -0.01124,-0.450742 l 0,0 z m 0.0062,-1.169732 c -0.01137,-0.263338 -0.03201,-0.490184 -0.04585,-0.504103 -0.01384,-0.01392 -0.01195,0.20154 0.0042,0.478797 0.01616,0.277256 0.03679,0.504102 0.04585,0.504102 0.0091,0 0.0072,-0.215458 -0.0042,-0.478796 l 0,0 z m -18.0010525,-0.687346 -0.0057,-0.154942 -0.012389,0.136637 c -0.010825,0.119391 -0.023487,0.138331 -0.1003141,0.150055 -0.079664,0.01216 -0.077965,0.01388 0.018088,0.0183 l 0.106013,0.0049 -0.0057,-0.154942 z M 20.997364,9.4606635 c -0.01237,-0.1850748 -0.03016,-0.3288338 -0.03953,-0.3194649 -0.0094,0.00937 -0.0046,0.2195087 0.01067,0.4669768 0.01524,0.2474684 0.03302,0.3912274 0.03953,0.3194648 0.0065,-0.071763 0.0017,-0.281902 -0.01067,-0.4669767 z M 2.9981609,8.1586608 c -0.00827,-0.031738 -0.015581,-0.013668 -0.016246,0.040153 -6.648e-4,0.053822 0.0061,0.079789 0.015037,0.057705 0.00894,-0.022084 0.00948,-0.066121 0.00121,-0.097858 l 10e-8,0 z M 20.98297,7.4585009 c -0.02877,-0.09153 -0.03144,-0.076315 -0.0177,0.1008659 0.0089,0.1147608 0.01909,0.2688873 0.02266,0.3425033 0.0036,0.073616 0.01153,0.028226 0.0177,-0.1008659 0.0062,-0.1290921 -0.004,-0.2832186 -0.02266,-0.3425033 z M 3.0062955,5.6572225 c 0.00103,-0.1779114 -0.00354,-0.3173591 -0.010163,-0.3098839 -0.00662,0.00748 -0.020201,0.211754 -0.03017,0.4539528 -0.01167,0.2834865 -0.00805,0.3938799 0.010163,0.3098839 0.01556,-0.071763 0.029137,-0.2760413 0.03017,-0.4539528 l 0,0 z M 20.817597,3.9405893 c -0.05167,-0.096542 -0.449857,-0.5122681 -0.567589,-0.592586 -0.0552,-0.037657 -0.01581,0.00849 0.08752,0.1025583 0.103335,0.094064 0.25465,0.257794 0.336255,0.363845 0.150984,0.196216 0.208121,0.2463489 0.14381,0.1261827 l 0,0 z"
       id="path3022"
       inkscape:connector-curvature="0"
       transform="translate(0,276)" />
    <path
       style="fill:#668000;fill-opacity:1"
       d="m 2.0511341,18.664337 c -0.011847,-0.460397 -0.02154,-1.025527 -0.02154,-1.255845 l 0,-0.418761 0.4892904,0 0.4892904,0 0,-0.114167 0,-0.114168 -0.4892904,0 -0.4892904,0 0,-2.267046 0,-2.267045 0.4892904,0 0.4892904,0 0,-0.228335 0,-0.228336 -0.4927511,0 -0.4927512,0 0.013752,-3.612594 0.013752,-3.6125939 0.09215,-0.2229629 C 2.1930086,4.1998535 2.2507621,4.094412 2.2706675,4.0881685 2.2905729,4.081925 2.4939772,4.0670223 2.722677,4.0550514 L 3.1384949,4.033286 3.3541569,3.7747209 C 3.596802,3.4838047 3.8888221,3.2595858 4.1782085,3.1419976 l 0.1952154,-0.079323 7.6108481,-0.00886 7.610847,-0.00886 0.244645,0.105901 c 0.300832,0.1302228 0.334011,0.1330256 0.09786,0.00827 l -0.179406,-0.09478 0.295809,-0.00154 c 0.513291,-0.00267 0.94221,0.1803734 1.337895,0.5709549 0.273332,0.2698069 0.478607,0.6490876 0.538329,0.9946539 0.0255,0.1475809 0.04125,2.0555674 0.05261,6.3756661 0.01508,5.736292 -7.11e-4,8.34511 -0.05099,8.423781 -0.01142,0.01787 -0.2226,0.0392 -0.469283,0.0474 l -0.448517,0.0149 -3.58e-4,-0.557054 c -1.96e-4,-0.30638 -0.0095,-0.612099 -0.02058,-0.679376 l -0.02022,-0.122323 -8.982365,0 -8.9823656,0 0,0.685006 0,0.685007 -0.4677509,0 -0.4677508,0 -0.02154,-0.837085 0,0 z M 20.996864,16.99546 c -0.03873,-0.431553 -0.05354,-0.218757 -0.02606,0.374596 0.02618,0.5654 0.02724,0.571745 0.03723,0.223134 0.0057,-0.197348 6.29e-4,-0.466326 -0.01117,-0.59773 l 0,0 z m 2.94e-4,-1.304574 c -0.01218,-0.167175 -0.02973,-0.29637 -0.039,-0.287101 -0.0093,0.0093 -0.0042,0.226782 0.0113,0.483361 0.01779,0.294853 0.03214,0.400494 0.039,0.287101 0.006,-0.09867 8.84e-4,-0.316186 -0.0113,-0.483361 l 0,0 z m 6.5e-5,-2.185497 c -0.01222,-0.167175 -0.02966,-0.296508 -0.03876,-0.287407 -0.0091,0.0091 -0.004,0.219274 0.01128,0.467051 0.01625,0.263006 0.03238,0.382624 0.03876,0.287408 0.006,-0.0897 9.32e-4,-0.299877 -0.01128,-0.467052 l 0,0 z m 6.36e-4,-1.369363 c -0.01247,-0.149691 -0.02882,-0.26601 -0.03635,-0.258488 -0.0075,0.0075 -0.0029,0.16636 0.01031,0.352973 0.01319,0.186614 0.02955,0.302933 0.03635,0.258488 0.0068,-0.04444 0.0022,-0.203282 -0.01031,-0.352973 z m 6.6e-5,-1.303088 c -0.01276,-0.20419 -0.03083,-0.363619 -0.04016,-0.354288 -0.0093,0.0093 -0.0053,0.204765 0.009,0.434295 0.01431,0.22953 0.03238,0.38896 0.04016,0.354287 0.0078,-0.03467 0.0037,-0.230104 -0.009,-0.434294 z M 3.0029551,10.278298 c -0.00502,-0.11752 -0.00573,-0.11824 -0.018226,-0.01833 -0.00782,0.06255 -0.034992,0.109788 -0.068173,0.118539 -0.0392,0.01034 -0.033924,0.01564 0.018226,0.01833 0.064592,0.0033 0.072767,-0.01089 0.068173,-0.118539 z M 20.997969,9.495667 c -0.0127,-0.1863861 -0.03076,-0.3312225 -0.04012,-0.3218588 -0.0094,0.00936 -0.0053,0.1901457 0.009,0.401738 0.0143,0.2115923 0.03235,0.3564288 0.04012,0.3218588 0.0078,-0.03457 0.0037,-0.215352 -0.009,-0.401738 z m -0.01597,-1.9996225 c -0.03187,-0.073107 -0.03342,-0.07049 -0.01774,0.029996 0.0094,0.06055 0.01996,0.1779793 0.02335,0.2609548 0.006,0.1464166 0.0065,0.1455319 0.01774,-0.029995 0.0064,-0.099473 -0.0041,-0.2169025 -0.02335,-0.2609549 z M 3.004316,5.6898419 c 0.00544,-0.3641117 -0.016565,-0.2964395 -0.036244,0.1114495 -0.00909,0.1883768 -0.00552,0.2984671 0.00793,0.2446452 0.01345,-0.053822 0.026191,-0.2140646 0.028313,-0.3560947 z M 20.727037,3.8211695 c -0.05455,-0.068105 -0.176673,-0.1972203 -0.271396,-0.2869236 -0.165226,-0.1564713 -0.164004,-0.1540995 0.0301,0.058384 0.111279,0.1218146 0.226286,0.2580508 0.255573,0.302747 0.02929,0.044696 0.06037,0.074145 0.06907,0.065443 0.0087,-0.0087 -0.0288,-0.071546 -0.08335,-0.1396503 l 0,0 z"
       id="path3024"
       inkscape:connector-curvature="0"
       transform="translate(0,276)" />
    <path
       style="fill:#668000;fill-opacity:1"
       d="M 3.6657174,20.965316 C 3.0679734,20.865941 2.49861,20.443789 2.2415963,19.909409 2.0491004,19.509174 2.021824,19.543879 2.5502902,19.516651 l 0.4578852,-0.02359 0,-0.680826 0,-0.680825 8.9662466,0 8.966246,0 0.02039,0.101935 c 0.01121,0.05607 0.02038,0.367988 0.02036,0.693162 l -2.5e-5,0.591226 0.472295,-0.0112 0.472296,-0.0112 -0.06468,0.187998 c -0.221309,0.643246 -0.783099,1.126313 -1.473789,1.267269 -0.168648,0.03442 -0.404914,0.04979 -0.717626,0.04668 -0.381662,-0.0038 -0.427753,-0.0089 -0.254175,-0.02811 0.116614,-0.01291 0.296216,-0.05584 0.399115,-0.09539 0.199298,-0.07661 0.526659,-0.281359 0.626846,-0.392064 l 0.06059,-0.06695 -8.491775,0 -8.4917749,0 0.07908,0.08501 c 0.2181387,0.234507 0.6331026,0.430576 0.9924217,0.468914 0.1867303,0.01992 0.1391815,0.02447 -0.2609549,0.02498 -0.2691097,3.39e-4 -0.5677036,-0.01242 -0.663542,-0.02835 l 0,0 z"
       id="path3026"
       inkscape:connector-curvature="0"
       transform="translate(0,276)" />
    <path
       style="fill:#668000;fill-opacity:1"
       d="M 3.5300851,20.916835 C 3.130696,20.809611 2.7239718,20.548407 2.4839796,20.245009 2.3271048,20.046689 2.1026309,19.613229 2.1383202,19.57754 c 0.01322,-0.01322 0.181319,-0.03341 0.3735526,-0.04487 l 0.3495154,-0.02083 -0.3943924,-0.0052 -0.3943925,-0.0052 -0.021424,-0.709471 c -0.011783,-0.390209 -0.02146,-0.95534 -0.021504,-1.255845 l -8e-5,-0.546375 0.4892904,0 0.4892904,0 0,-0.114167 0,-0.114168 -0.4892904,0 -0.4892904,0 0,-2.267046 0,-2.267045 0.4892904,0 0.4892904,0 0,-0.228335 0,-0.228336 -0.4922951,0 -0.4922951,0 L 2.0365689,8.1417304 2.0495526,4.5128267 2.1505349,4.296752 2.2515172,4.0806772 2.694915,4.0569291 3.1383127,4.0331809 3.3494753,3.777944 C 3.5782561,3.5014118 3.873032,3.2710662 4.1612494,3.1436028 l 0.1823672,-0.080651 7.5768224,-0.021306 7.576822,-0.021307 0.212026,0.082381 c 0.322687,0.125377 0.355522,0.1326659 0.195716,0.043446 l -0.146787,-0.081952 0.295809,-0.00147 c 0.513373,-0.00256 0.942269,0.1804969 1.337895,0.5710198 0.273312,0.2697873 0.478582,0.6490384 0.538356,0.9946539 0.02556,0.147765 0.04125,2.069644 0.05259,6.4409051 0.01502,5.78997 -1.63e-4,8.279454 -0.05098,8.358186 -0.01144,0.01772 -0.220971,0.03968 -0.465636,0.04879 l -0.444844,0.01658 -0.01249,-0.662368 c -0.01066,-0.565268 -0.02979,-0.760393 -0.06827,-0.696383 -0.0045,0.0075 0.0047,0.327692 0.02037,0.711592 l 0.02854,0.698 0.454265,-0.01943 0.454265,-0.01943 -0.0206,0.07167 c -0.08004,0.278452 -0.258289,0.56714 -0.496971,0.804882 -0.41609,0.414452 -0.867197,0.589253 -1.508131,0.584392 l -0.309884,-0.0023 0.155938,-0.04289 c 0.17413,-0.04789 0.534218,-0.253369 0.708475,-0.404283 l 0.114168,-0.09887 -8.529963,6.5e-5 -8.5299619,6.5e-5 0.1467871,0.129992 c 0.2097165,0.185721 0.50659,0.340396 0.7665549,0.399385 0.035881,0.0081 -0.1035665,0.01554 -0.3098839,0.01644 -0.2331308,0.001 -0.4430318,-0.01659 -0.5545291,-0.04653 l 0,-2e-6 z M 20.997056,17.06081 c -0.03636,-0.451611 -0.05584,-0.272844 -0.02663,0.244382 0.02109,0.373299 0.02974,0.431593 0.0379,0.255378 0.0058,-0.125584 7.43e-4,-0.350477 -0.01128,-0.49976 z m 9.13e-4,-1.302226 c -0.0127,-0.186386 -0.03047,-0.331516 -0.03947,-0.322511 -0.009,0.009 -0.0048,0.189787 0.0093,0.401738 0.01413,0.211951 0.03189,0.357081 0.03947,0.322511 0.0076,-0.03457 0.0034,-0.215352 -0.0093,-0.401738 z m -2.17e-4,-2.161266 c -0.01302,-0.199279 -0.03101,-0.354987 -0.03998,-0.346017 -0.009,0.009 -0.0057,0.179357 0.0074,0.378636 0.01302,0.19928 0.03101,0.354987 0.03998,0.346017 0.009,-0.009 0.0057,-0.179356 -0.0074,-0.378636 z m 0.0071,-1.32879 c -0.0075,-0.04958 -0.01383,-0.01676 -0.01408,0.07295 -2.61e-4,0.0897 0.0059,0.130271 0.01363,0.09015 0.0077,-0.04012 0.0079,-0.113514 4.43e-4,-0.163097 l 2e-6,0 z m -0.03442,-0.310333 c -0.009,-0.02243 -0.01645,-0.0041 -0.01645,0.04078 0,0.04485 0.0074,0.0632 0.01645,0.04077 0.009,-0.02243 0.009,-0.05912 0,-0.08155 z m 0.02733,-1.100903 c -0.01298,-0.181375 -0.03094,-0.322434 -0.03991,-0.313464 -0.009,0.009 -0.0057,0.164708 0.0073,0.346083 0.01298,0.181376 0.03094,0.322434 0.03991,0.313464 0.009,-0.009 0.0057,-0.164708 -0.0073,-0.346083 z M 3.0043915,10.310918 c -0.0029,-0.06875 -0.00759,-0.07447 -0.020083,-0.02446 -0.00896,0.03588 -0.03295,0.07602 -0.0533,0.0892 -0.023482,0.01521 -0.016144,0.02415 0.020083,0.02446 0.041553,3.62e-4 0.056054,-0.02391 0.0533,-0.0892 z M 21.004806,9.6259112 c -0.0075,-0.049337 -0.01359,-0.00897 -0.01359,0.089703 0,0.098674 0.0061,0.13904 0.01359,0.089703 0.0075,-0.049337 0.0075,-0.1300696 0,-0.1794064 z M 20.97223,9.3001661 c -0.0075,-0.049583 -0.01383,-0.016758 -0.01408,0.072945 -2.61e-4,0.089703 0.0059,0.1302716 0.01363,0.090152 0.0077,-0.04012 0.0079,-0.1135134 4.44e-4,-0.1630968 l 2e-6,0 z M 21.004462,7.65244 c -0.0078,-0.040367 -0.01414,-0.00734 -0.01414,0.073393 0,0.080733 0.0064,0.11376 0.01414,0.073394 0.0078,-0.040367 0.0078,-0.1064207 0,-0.1467871 z M 2.9991963,5.5980046 c -0.00726,-0.058628 -0.013349,-0.018525 -0.013533,0.089119 -1.826e-4,0.1076439 0.00576,0.1556126 0.0132,0.1065971 0.00744,-0.049015 0.00759,-0.1370877 3.327e-4,-0.1957161 l 2e-7,0 z M 20.785287,3.9085489 c -0.01944,-0.036332 -0.119042,-0.1513507 -0.221328,-0.2555968 -0.154351,-0.1573088 -0.160648,-0.1613294 -0.03703,-0.023645 0.08192,0.091242 0.17535,0.2062601 0.207623,0.2555968 0.06823,0.104305 0.102435,0.1202467 0.05073,0.023645 z"
       id="path3028"
       inkscape:connector-curvature="0"
       transform="translate(0,276)" />
    <path
       style="fill:#668000;fill-opacity:1"
       d="M 4.4303206,20.9169 C 4.1192443,20.83333 3.791443,20.668793 3.6630314,20.531768 l -0.07908,-0.08439 8.4234052,0 c 6.104863,0 8.417318,0.0099 8.401286,0.03579 -0.01217,0.01968 -0.119453,0.0985 -0.238415,0.175138 -0.212552,0.136937 -0.455761,0.234796 -0.763138,0.307062 -0.112514,0.02645 -2.160841,0.03557 -7.420904,0.03304 L 4.7206917,20.994908 4.4303206,20.9169 z"
       id="path3030"
       inkscape:connector-curvature="0"
       transform="translate(0,276)" />
    <path
       style="fill:#668000;fill-opacity:1"
       d="M 3.5300851,20.916835 C 3.130696,20.809611 2.7239718,20.548407 2.4839796,20.245009 2.3239076,20.042647 2.1029075,19.612952 2.1398833,19.575976 c 0.01408,-0.01408 0.1675001,-0.0342 0.3409332,-0.0447 l 0.315333,-0.0191 -0.3632565,-0.0054 -0.3632565,-0.0054 -0.022549,-0.888878 C 2.0346863,18.123662 2.0293465,14.751228 2.0352219,11.118247 L 2.0459043,4.5128267 2.1455655,4.3008009 2.2452266,4.088775 2.6997541,4.0561557 C 3.0880596,4.0282888 3.1558399,4.0153639 3.1649778,3.9674435 3.174567,3.917156 3.1327498,3.910404 2.7609325,3.9022047 L 2.346191,3.8930589 2.5782745,3.6587525 c 0.4204667,-0.4244939 0.8443022,-0.604015 1.4084816,-0.596581 0.1883768,0.00248 3.7553037,-0.00592 7.9265039,-0.01868 l 7.584001,-0.023193 0.224064,0.085722 c 0.263293,0.1007296 0.308939,0.1069192 0.151059,0.020483 l -0.114168,-0.062504 0.295809,-0.00137 c 0.518581,-0.0024 0.952618,0.1830323 1.340858,0.5728409 0.272631,0.273733 0.476018,0.6507231 0.535693,0.9929395 0.02625,0.1505276 0.03901,2.1461093 0.04473,6.9954341 0.0073,6.208545 -0.0023,7.781305 -0.04791,7.821552 -0.009,0.0079 -0.216172,0.02303 -0.460449,0.03358 l -0.44414,0.01918 -0.0154,-0.667217 c -0.01326,-0.574497 -0.03072,-0.756756 -0.06676,-0.696812 -0.0045,0.0075 0.0047,0.327714 0.02037,0.711642 l 0.02854,0.698051 0.452612,-0.02059 c 0.316027,-0.01438 0.452611,-0.0099 0.452611,0.01477 0,0.01945 -0.05849,0.160177 -0.129982,0.312733 -0.104427,0.22284 -0.179783,0.326981 -0.383278,0.529677 -0.415945,0.414314 -0.862251,0.588051 -1.50914,0.587476 l -0.309884,-2.61e-4 0.212026,-0.07255 c 0.208592,-0.07138 0.633271,-0.328675 0.721508,-0.437137 0.03975,-0.04886 0.03802,-0.05274 -0.01471,-0.03295 -0.03286,0.01233 -0.09892,0.02345 -0.146787,0.02471 -0.07227,0.0019 -0.07659,0.0064 -0.02546,0.02647 0.138051,0.0542 -0.50897,0.389726 -0.885903,0.459406 -0.122259,0.02259 -2.585736,0.03373 -7.45948,0.03373 -7.207015,0 -7.2792276,-6.35e-4 -7.5153365,-0.06606 -0.2702726,-0.0749 -0.5676273,-0.216316 -0.7142535,-0.339694 -0.0546,-0.04594 -0.1155022,-0.08353 -0.1353381,-0.08353 -0.019836,0 -0.036065,-0.01468 -0.036065,-0.03262 0,-0.01794 -0.018348,-0.03218 -0.040774,-0.03165 -0.022426,5.35e-4 0.02528,0.05954 0.1060129,0.13113 0.1494142,0.132485 0.6022779,0.373525 0.7502452,0.399324 0.044852,0.0078 -0.087257,0.01525 -0.2935742,0.01651 -0.2351279,0.0014 -0.4420766,-0.01568 -0.5545291,-0.04587 l 0,0 z M 20.997402,17.093519 c -0.01231,-0.167175 -0.02947,-0.296863 -0.03814,-0.288196 -0.0087,0.0087 -0.0037,0.204162 0.01114,0.434432 0.0148,0.23027 0.03196,0.359958 0.03814,0.288196 0.0062,-0.07176 0.0012,-0.267257 -0.01114,-0.434432 l 0,0 z m 0.0074,-1.204691 c -0.0075,-0.04934 -0.01359,-0.009 -0.01359,0.0897 0,0.09867 0.0061,0.13904 0.01359,0.0897 0.0075,-0.04934 0.0075,-0.13007 0,-0.179407 z m -0.03296,-0.342503 c -0.0078,-0.04037 -0.01414,-0.0073 -0.01414,0.07339 0,0.08073 0.0064,0.11376 0.01414,0.07339 0.0078,-0.04037 0.0078,-0.106421 0,-0.146787 z m 0.03267,-1.826304 c -0.0078,-0.04058 -0.01448,-0.01506 -0.01484,0.0567 -3.62e-4,0.07176 0.006,0.104961 0.01419,0.07377 0.0082,-0.03119 0.0085,-0.0899 6.59e-4,-0.130477 l -1e-6,0 z m -0.03228,-0.342435 c -0.0075,-0.04958 -0.01383,-0.01676 -0.01408,0.07294 -2.61e-4,0.0897 0.0059,0.130272 0.01363,0.09015 0.0077,-0.04012 0.0079,-0.113514 4.44e-4,-0.163097 l 2e-6,0 z m 0.03149,-1.02592 c -0.01041,-0.02602 -0.01814,-0.01829 -0.01971,0.01971 -0.0014,0.03439 0.0063,0.05365 0.01713,0.04281 0.01084,-0.01084 0.012,-0.03897 0.0026,-0.06252 l 2e-6,0 z m 3.26e-4,-1.355121 c -0.0083,-0.03174 -0.01558,-0.01367 -0.01625,0.04015 -6.65e-4,0.05382 0.0061,0.07979 0.01504,0.05771 0.0089,-0.02208 0.0095,-0.06612 0.0012,-0.09786 l -1e-6,0 z m -0.03221,-0.343124 c -0.0078,-0.04037 -0.01414,-0.0073 -0.01414,0.07339 0,0.08073 0.0064,0.11376 0.01414,0.07339 0.0078,-0.04037 0.0078,-0.106421 0,-0.146787 z M 2.9994453,10.316369 c 0.00533,-0.04394 0.00145,-0.04799 -0.013046,-0.01361 -0.011344,0.02691 -0.036773,0.06105 -0.056509,0.07588 -0.023079,0.01733 -0.018424,0.02219 0.013046,0.01361 0.026911,-0.0073 0.05234,-0.04148 0.056509,-0.07588 z M 21.003045,9.7074596 c -0.009,-0.022426 -0.01645,-0.00408 -0.01645,0.040774 0,0.044852 0.0074,0.0632 0.01645,0.040774 0.009,-0.022426 0.009,-0.059123 0,-0.081548 z m -0.03162,-0.3745019 c -0.0083,-0.031738 -0.01558,-0.013668 -0.01625,0.040153 -6.66e-4,0.053822 0.0061,0.079789 0.01504,0.057705 0.0089,-0.022084 0.0095,-0.066121 0.0012,-0.097858 l -1e-6,0 z M 2.9980414,5.6463494 c -0.0082,-0.031396 -0.014918,-0.00571 -0.014918,0.057084 0,0.062792 0.00671,0.08848 0.014918,0.057084 0.0082,-0.031396 0.0082,-0.082772 0,-0.1141678 z m 17.7240896,-1.8112805 -0.07628,-0.072487 0.06178,0.086508 c 0.03398,0.04758 0.06831,0.080199 0.07628,0.072487 0.008,-0.00771 -0.01983,-0.04664 -0.06178,-0.086508 l 0,0 z M 3.4079433,3.6973427 C 3.43957,3.638332 3.4375817,3.6364984 3.3871157,3.678136 3.35643,3.7034536 3.3000448,3.7695078 3.2618152,3.8249231 l -0.069508,0.1007551 0.090336,-0.081548 c 0.049685,-0.044852 0.10607,-0.1109058 0.1253005,-0.1467871 l 0,0 z m 17.2473047,0.038305 c 0,-0.00584 -0.04037,-0.04621 -0.0897,-0.089703 l -0.0897,-0.07908 0.07908,0.089703 c 0.07391,0.083841 0.100327,0.1046621 0.100327,0.07908 z M 3.547736,3.5483854 c 0.035107,-0.056805 -0.00488,-0.068835 -0.049616,-0.014928 -0.025728,0.031001 -0.028203,0.049717 -0.00657,0.049717 0.019079,0 0.044364,-0.015655 0.056189,-0.03479 l 0,0 z M 3.8481238,3.3193593 c 0.040366,-0.024998 0.073394,-0.057429 0.073394,-0.072069 0,-0.037081 -0.1883497,0.077557 -0.2549884,0.1551976 -0.053613,0.062464 -0.05299,0.062771 0.026653,0.01314 0.044852,-0.02795 0.1145755,-0.071271 0.1549419,-0.096269 z m 0.2528001,-0.160236 c 0.011088,-0.017941 0.00548,-0.032619 -0.012459,-0.032619 -0.017941,0 -0.041691,0.014679 -0.052779,0.032619 -0.011088,0.017941 -0.00548,0.032619 0.012459,0.032619 0.017941,0 0.041691,-0.014679 0.052779,-0.032619 z"
       id="path3032"
       inkscape:connector-curvature="0"
       transform="translate(0,276)" />
    <path
       style="fill:#668000;fill-opacity:1"
       d="M 3.5300851,20.916835 C 3.130696,20.809611 2.7239718,20.548407 2.4839796,20.245009 2.3261329,20.04546 2.1027145,19.613145 2.138791,19.577069 c 0.013479,-0.01348 0.1448812,-0.03374 0.2920042,-0.04503 l 0.2674962,-0.02052 -0.3143716,-0.0051 -0.3143717,-0.005 -0.021172,-0.791019 C 2.0367312,18.275342 2.0314113,14.902908 2.036554,11.216105 L 2.0459043,4.5128267 2.148134,4.2964779 2.2503638,4.080129 2.6537341,4.0576597 c 0.4363573,-0.024307 0.517538,-0.037859 0.517538,-0.086398 0,-0.0197 -0.021462,-0.020337 -0.057084,-0.00169 -0.077008,0.040301 -0.8236388,0.084216 -0.8236388,0.048444 0,-0.045226 0.297581,-0.3902872 0.4422326,-0.5127924 C 2.8055739,3.4435708 2.9597004,3.3416886 3.0752854,3.2788132 3.5070389,3.0439499 2.779789,3.0642858 11.567204,3.0413562 l 7.930057,-0.020692 0.220181,0.081491 c 0.233828,0.086542 0.27722,0.089996 0.130477,0.010387 -0.0852,-0.04622 -0.07495,-0.048711 0.203871,-0.049584 0.328974,-0.00103 0.533482,0.043779 0.803396,0.1760253 0.568614,0.278598 0.983887,0.8312117 1.079818,1.4369398 0.03244,0.2048458 0.04133,1.8039552 0.04133,7.4372135 0,3.946943 -0.01129,7.216626 -0.02509,7.265962 -0.02482,0.08875 -0.02812,0.08974 -0.309883,0.09295 -0.156639,0.0018 -0.321495,0.01603 -0.366347,0.03164 -0.05016,0.01746 0.0534,0.02128 0.26911,0.0099 0.261076,-0.01375 0.350658,-0.0085 0.350658,0.02064 0,0.02151 -0.05849,0.163925 -0.129982,0.316481 -0.248443,0.530163 -0.778223,0.948561 -1.354199,1.069489 -0.202895,0.0426 -0.922025,0.06786 -0.799174,0.02808 0.220737,-0.07149 0.323953,-0.119337 0.309137,-0.143309 -0.0096,-0.01555 -0.08219,-5.35e-4 -0.161279,0.03337 -0.07909,0.0339 -0.228146,0.07723 -0.331229,0.09629 -0.128672,0.02379 -2.468522,0.03465 -7.46436,0.03465 -7.2102907,0 -7.2791233,-6.06e-4 -7.515663,-0.06615 -0.2879094,-0.07978 -0.5172659,-0.191145 -0.7466983,-0.362549 -0.1944682,-0.145284 -0.2358977,-0.123126 -0.048929,0.02617 0.1857175,0.148295 0.4149332,0.273561 0.6213236,0.339553 l 0.1860055,0.05947 -0.3751226,-3.93e-4 c -0.2268079,-2.28e-4 -0.4460558,-0.01944 -0.5545291,-0.04856 z m 16.7418859,-0.29344 c 0.270347,-0.184584 0.290474,-0.248353 0.05883,-0.186396 -0.07042,0.01884 -0.07269,0.02384 -0.01931,0.04256 0.04892,0.01716 0.02057,0.0473 -0.148261,0.157617 -0.114814,0.07502 -0.186856,0.136432 -0.160095,0.136473 0.02676,3.3e-5 0.147739,-0.06757 0.268838,-0.150257 z m 0.83295,-1.112606 c -0.08841,-0.01346 -0.08856,-0.01396 -0.09919,-0.329461 l -0.01064,-0.315983 -0.0068,0.334348 -0.0068,0.334348 0.106013,-0.0049 c 0.09698,-0.0045 0.09847,-0.006 0.01747,-0.01836 z m -0.108646,-1.028722 c -0.01266,-0.183892 -0.02851,-0.340465 -0.03523,-0.34794 -0.0067,-0.0075 -0.01222,0.142982 -0.01222,0.334349 0,0.227424 0.0122,0.347939 0.03523,0.347939 0.02444,0 0.02818,-0.102452 0.01222,-0.334348 z m 0.0088,-1.206332 c -0.0073,-0.05863 -0.01335,-0.01853 -0.01353,0.08912 -1.96e-4,0.107644 0.0058,0.155613 0.0132,0.106597 0.0074,-0.04901 0.0076,-0.137088 3.33e-4,-0.195716 l 0,0 z m -0.03324,-0.359397 c -0.0078,-0.04037 -0.01414,-0.0073 -0.01414,0.07339 0,0.08073 0.0064,0.11376 0.01414,0.07339 0.0078,-0.04037 0.0078,-0.106421 0,-0.146787 z m 0.0322,-0.961651 c -0.0083,-0.03174 -0.01558,-0.01367 -0.01625,0.04015 -6.65e-4,0.05382 0.0061,0.07979 0.01504,0.05771 0.0089,-0.02209 0.0095,-0.06612 0.0012,-0.09786 l -1e-6,0 z m -0.03262,-2.544309 c -0.0083,-0.03174 -0.01558,-0.01367 -0.01625,0.04015 -6.66e-4,0.05382 0.0061,0.07979 0.01504,0.05771 0.0089,-0.02209 0.0095,-0.06612 0.0012,-0.09786 l -1e-6,0 z m -3.27e-4,-2.722299 c -0.01041,-0.02602 -0.01814,-0.01829 -0.01971,0.01971 -0.0014,0.03439 0.0063,0.05365 0.01713,0.04281 0.01084,-0.01084 0.012,-0.03897 0.0026,-0.06252 l 1e-6,0 z M 2.993207,10.365831 c 0.03347,-0.05415 0.00343,-0.06166 -0.043402,-0.01085 -0.023133,0.0251 -0.027669,0.04564 -0.01008,0.04564 0.017589,0 0.041656,-0.01565 0.053481,-0.03479 z m 0.00463,-4.7011332 c -0.010413,-0.026021 -0.018142,-0.018292 -0.019707,0.019707 -0.00142,0.034386 0.00629,0.053652 0.017132,0.042813 0.010839,-0.010839 0.011998,-0.038973 0.00258,-0.06252 l -10e-8,0 z M 3.3753914,3.7328591 c 0.052822,-0.075387 0.056161,-0.089165 0.013264,-0.054723 -0.031533,0.025318 -0.089101,0.091372 -0.1279285,0.1467871 -0.052822,0.075387 -0.056161,0.089165 -0.013264,0.054723 0.031533,-0.025318 0.0891,-0.091372 0.1279286,-0.1467872 z M 20.785726,3.8981145 c 0,-0.00619 -0.03303,-0.039217 -0.07339,-0.073394 l -0.07339,-0.062139 0.06214,0.073393 c 0.0584,0.068972 0.08465,0.088243 0.08465,0.06214 z M 20.622629,3.7013368 c 0,-0.00677 -0.02569,-0.032461 -0.05708,-0.057084 -0.05174,-0.040574 -0.05289,-0.039421 -0.01232,0.012316 0.04261,0.054336 0.0694,0.071615 0.0694,0.044768 z M 3.5627045,3.5140861 c 0,-0.017941 -0.014679,-0.023548 -0.032619,-0.01246 -0.017941,0.011088 -0.032619,0.034839 -0.032619,0.052779 0,0.017941 0.014679,0.023547 0.032619,0.012459 0.017941,-0.011088 0.032619,-0.034839 0.032619,-0.052779 z M 3.8829316,3.2766995 c 0.052201,-0.058795 0.051693,-0.060075 -0.010343,-0.026077 -0.035881,0.019664 -0.1092749,0.07419 -0.1630968,0.1211675 L 3.6116335,3.4572042 3.7198348,3.397867 C 3.7793455,3.3652315 3.852739,3.3107062 3.8829316,3.2766995 z M 4.1009239,3.1591233 c 0.011088,-0.017941 0.00548,-0.032619 -0.012459,-0.032619 -0.017941,0 -0.041691,0.014679 -0.052779,0.032619 -0.011088,0.017941 -0.00548,0.032619 0.012459,0.032619 0.017941,0 0.041691,-0.014679 0.052779,-0.032619 z"
       id="path3034"
       inkscape:connector-curvature="0"
       transform="translate(0,276)" />
    <path
       style="fill:#88aa00;fill-opacity:1"
       d="M 2.0758007,3.5424008 C 2.0878593,3.466153 2.1577244,3.2789995 2.2310565,3.126504 2.4568575,2.6569461 2.9066507,2.2702938 3.432227,2.0939505 c 0.1722303,-0.057787 0.510814,-0.06056 8.464724,-0.069317 9.129801,-0.010051 8.500543,-0.023401 8.951569,0.1899008 0.553374,0.2617048 0.935395,0.7439177 1.090729,1.3767953 l 0.02202,0.089703 -0.217651,0 c -0.215301,0 -0.219445,-0.0017 -0.383899,-0.1570624 C 21.163712,3.3387965 20.956183,3.2121511 20.659149,3.0964466 l -0.215926,-0.08411 -8.350112,-0.00853 C 3.8438373,2.9953856 3.7398933,2.9960683 3.485718,3.0603438 3.1749822,3.1389223 2.8786077,3.2991885 2.6389065,3.5182619 2.4650989,3.6771122 2.4559078,3.6810331 2.2573424,3.6810331 l -0.2034665,0 0.021925,-0.1386323 z"
       id="path3036"
       inkscape:connector-curvature="0"
       transform="translate(0,276)" />
    <path
       style="fill:#88aa00;fill-opacity:1"
       d="M 21.94404,4.4984504 C 21.918521,4.3474063 21.742225,3.9735092 21.620999,3.813328 c -0.04677,-0.061792 -0.08503,-0.1257342 -0.08503,-0.1420925 0,-0.07935 -0.519121,-0.4382661 -0.811745,-0.561234 L 20.4507,2.9950593 l -8.468462,0.00864 -8.4684626,0.00864 -0.2283355,0.094859 C 3.0181321,3.2182439 2.8604398,3.313082 2.6247694,3.50453 2.4862056,3.617093 2.4187751,3.6480762 2.2726196,3.6663372 c -0.099423,0.012422 -0.1873879,0.015967 -0.1954768,0.00788 -0.00809,-0.00809 0.00868,-0.094267 0.037254,-0.1915062 C 2.2675822,2.9614917 2.6490614,2.5012646 3.1386528,2.2470187 L 3.4159173,2.1030346 3.888898,2.0788009 c 0.7027974,-0.036009 15.967918,-0.032288 16.374918,0.00399 0.293772,0.026186 0.375359,0.047148 0.573425,0.1473313 0.535099,0.2706565 0.883957,0.6926878 1.051995,1.2726529 0.0453,0.1563497 0.07124,0.3670326 0.08318,0.6757021 0.0095,0.2466839 0.01195,0.4485162 0.0053,0.4485162 -0.0066,0 -0.02178,-0.057845 -0.03372,-0.1285441 l 0,0 z"
       id="path3038"
       inkscape:connector-curvature="0"
       transform="translate(0,276)" />
    <path
       style="fill:#88aa00;fill-opacity:1"
       d="m 2.0295946,4.0779019 0,-0.3968688 0.2120258,0 c 0.1166142,0 0.2120259,0.00731 0.2120259,0.016234 0,0.00893 -0.05195,0.088545 -0.1154443,0.1769242 -0.063494,0.08838 -0.1530341,0.253549 -0.1989771,0.3670433 -0.045943,0.1134943 -0.089405,0.2124694 -0.096581,0.2199447 -0.00718,0.00748 -0.013049,-0.1649996 -0.013049,-0.3832775 z"
       id="path3040"
       inkscape:connector-curvature="0"
       transform="translate(0,276)" />
    <path
       style="fill:#88aa00;fill-opacity:1"
       d="M 2.9211081,21.653646 C 2.5170596,21.38964 2.2001594,20.949411 2.0797973,20.484918 2.0424072,20.340625 2.0301913,20.170183 2.0367488,19.884284 l 0.00916,-0.399172 0.073183,0.198489 c 0.098691,0.26767 0.2889822,0.554454 0.5164235,0.77829 0.220906,0.217405 0.6713937,0.451145 0.9739585,0.505348 0.1333591,0.02389 2.7506013,0.03452 8.4157945,0.03419 9.109581,-5.34e-4 8.410027,0.01644 8.88,-0.215431 0.431054,-0.212666 0.802683,-0.628812 0.964516,-1.080054 0.04034,-0.112488 0.08209,-0.204523 0.09278,-0.204523 0.04615,0 -0.01042,0.871551 -0.06994,1.077443 -0.118849,0.411146 -0.440273,0.831764 -0.826243,1.081229 l -0.192909,0.124683 -8.875836,0 -8.8758351,0 -0.2006908,-0.131131 z"
       id="path3042"
       inkscape:connector-curvature="0"
       transform="translate(0,276)" />
    <path
       style="fill:#88aa00;fill-opacity:1"
       d="m 3.5790141,21.932546 c -0.1076439,-0.02352 -0.2470916,-0.06519 -0.3098839,-0.0926 -0.1027778,-0.04487 0.7677351,-0.04988 8.7256788,-0.0502 l 8.839846,-3.57e-4 -0.146094,0.06477 c -0.08035,0.03562 -0.249157,0.07817 -0.375122,0.09455 -0.133116,0.01731 -3.644125,0.02912 -8.383869,0.0282 -6.6000602,-0.0013 -8.1921544,-0.0097 -8.3505559,-0.04435 z"
       id="path3044"
       inkscape:connector-curvature="0"
       transform="translate(0,276)" />
  </g>
</svg>
