<?xml version="1.0" encoding="UTF-8" standalone="no"?>
<!-- Created with Inkscape (http://www.inkscape.org/) -->

<svg
   xmlns:dc="http://purl.org/dc/elements/1.1/"
   xmlns:cc="http://creativecommons.org/ns#"
   xmlns:rdf="http://www.w3.org/1999/02/22-rdf-syntax-ns#"
   xmlns:svg="http://www.w3.org/2000/svg"
   xmlns="http://www.w3.org/2000/svg"
   xmlns:xlink="http://www.w3.org/1999/xlink"
   xmlns:sodipodi="http://sodipodi.sourceforge.net/DTD/sodipodi-0.dtd"
   xmlns:inkscape="http://www.inkscape.org/namespaces/inkscape"
   inkscape:export-ydpi="90.000000"
   inkscape:export-xdpi="90.000000"
   width="24"
   height="24"
   id="svg11300"
   sodipodi:version="0.32"
   inkscape:version="0.48.5 r10040"
   sodipodi:docname="button-focused.svg"
   inkscape:output_extension="org.inkscape.output.svg.inkscape"
   version="1.0"
   style="display:inline;enable-background:new">
  <sodipodi:namedview
     stroke="#ef2929"
     fill="#f57900"
     id="base"
     pagecolor="#8c8c8c"
     bordercolor="#ff5e00"
     borderopacity="1"
     inkscape:pageopacity="1"
     inkscape:pageshadow="2"
     inkscape:zoom="30.656642"
     inkscape:cx="5.1947079"
     inkscape:cy="12.072686"
     inkscape:current-layer="layer1"
     showgrid="true"
     inkscape:grid-bbox="true"
     inkscape:document-units="px"
     inkscape:showpageshadow="false"
     inkscape:window-width="1920"
     inkscape:window-height="1005"
     inkscape:window-x="0"
     inkscape:window-y="25"
     width="400px"
     height="300px"
     inkscape:snap-nodes="true"
     inkscape:snap-bbox="true"
     gridtolerance="10000"
     inkscape:object-nodes="true"
     inkscape:snap-grids="true"
     showguides="true"
     inkscape:guide-bbox="true"
     inkscape:window-maximized="1"
     inkscape:bbox-nodes="true"
     inkscape:bbox-paths="false"
     inkscape:snap-bbox-edge-midpoints="false"
     inkscape:snap-bbox-midpoints="false"
     objecttolerance="10000"
     guidetolerance="10000"
     borderlayer="true"
     showborder="true"
     guidecolor="#ff0b00"
     guideopacity="1"
     guidehicolor="#001aff"
     guidehiopacity="0.49803922">
    <inkscape:grid
       type="xygrid"
       id="grid3123"
       empspacing="4"
       visible="true"
       enabled="true"
       snapvisiblegridlinesonly="true" />
  </sodipodi:namedview>
  <defs
     id="defs3">
    <linearGradient
       inkscape:collect="always"
       xlink:href="#linearGradient5236"
       id="linearGradient3821"
       x1="24"
       y1="22"
       x2="24"
       y2="2"
       gradientUnits="userSpaceOnUse"
       gradientTransform="translate(0,276)" />
    <linearGradient
       id="linearGradient5236">
      <stop
         id="stop5238"
         offset="0"
         style="stop-color:#3e7ab6;stop-opacity:1;" />
      <stop
         id="stop5240"
         offset="1"
         style="stop-color:#6598cb;stop-opacity:1;" />
    </linearGradient>
  </defs>
  <metadata
     id="metadata4">
    <rdf:RDF>
      <cc:Work
         rdf:about="">
        <dc:format>image/svg+xml</dc:format>
        <dc:type
           rdf:resource="http://purl.org/dc/dcmitype/StillImage" />
        <dc:creator>
          <cc:Agent>
            <dc:title />
          </cc:Agent>
        </dc:creator>
        <dc:source />
        <cc:license
           rdf:resource="" />
        <dc:title />
        <dc:subject>
          <rdf:Bag />
        </dc:subject>
        <dc:date />
        <dc:rights>
          <cc:Agent>
            <dc:title />
          </cc:Agent>
        </dc:rights>
        <dc:publisher>
          <cc:Agent>
            <dc:title />
          </cc:Agent>
        </dc:publisher>
        <dc:identifier />
        <dc:relation />
        <dc:language />
        <dc:coverage />
        <dc:description />
        <dc:contributor>
          <cc:Agent>
            <dc:title />
          </cc:Agent>
        </dc:contributor>
      </cc:Work>
      <cc:Work
         rdf:about="">
        <dc:format>image/svg+xml</dc:format>
        <dc:type
           rdf:resource="http://purl.org/dc/dcmitype/StillImage" />
      </cc:Work>
    </rdf:RDF>
  </metadata>
  <g
     style="display:inline"
     inkscape:groupmode="layer"
     inkscape:label="Base"
     id="layer1"
     transform="translate(0,-276)">
    <rect
       rx="2"
       ry="2"
       y="277"
       x="1"
       height="22"
       width="22"
       id="rect3045"
       style="opacity:1;fill:#2a4a79;fill-opacity:1;stroke:none" />
    <rect
       style="fill:url(#linearGradient3821);fill-opacity:1.0;stroke:none"
       id="rect3043"
       width="20"
       height="20"
       x="2"
       y="278"
       ry="2"
       rx="2" />
    <path
       style="fill:#ffffff;fill-opacity:1;stroke:none;opacity:0.15"
       d="M 4 2 C 2.892 2 2 2.892 2 4 L 2 5 C 2 3.892 2.892 3 4 3 L 20 3 C 21.108 3 22 3.892 22 5 L 22 4 C 22 2.892 21.108 2 20 2 L 4 2 z "
       transform="translate(0,276)"
       id="rect4255" />
    <path
       id="path4264"
       d="m 4,298 c -1.108,0 -2,-0.892 -2,-2 l 0,-1 c 0,1.108 0.892,2 2,2 l 16,0 c 1.108,0 2,-0.892 2,-2 l 0,1 c 0,1.108 -0.892,2 -2,2 l -16,0 z"
       style="opacity:0.05;fill:#ffffff;fill-opacity:1;stroke:none"
       inkscape:connector-curvature="0" />
    <path
       style="fill:#ffffff;fill-opacity:1;stroke:none;opacity:0.02"
       d="M 4 2 C 2.892 2 2 2.892 2 4 L 2 20 C 2 21.108 2.892 22 4 22 L 20 22 C 21.108 22 22 21.108 22 20 L 22 4 C 22 2.892 21.108 2 20 2 L 4 2 z M 4.8125 3 L 19.1875 3 C 20.1847 3 21 3.8153 21 4.8125 L 21 19.1875 C 21 20.1847 20.1847 21 19.1875 21 L 4.8125 21 C 3.8153 21 3 20.1847 3 19.1875 L 3 4.8125 C 3 3.8153 3.8153 3 4.8125 3 z "
       transform="translate(0,276)"
       id="rect4266" />
    <path
       style="fill:#668000;fill-opacity:1"
       d="m 2.0241062,16.911552 0,-1.239536 0.4892904,0 0.4892904,0 0,-0.815484 0,-0.815484 8.981917,0 8.981916,0 0.02079,0.220181 c 0.01144,0.1211 0.0209,0.488067 0.02103,0.815484 l 2.32e-4,0.595303 0.48929,0 0.489291,0 0,1.239536 0,1.239536 -0.489291,0 -0.48929,0 -3.59e-4,-0.644233 c -1.96e-4,-0.354327 -0.0095,-0.699277 -0.02058,-0.766555 l -0.02022,-0.122322 -8.982366,0 -8.982365,0 0,0.766555 0,0.766555 -0.4892904,0 -0.4892904,0 0,-1.239536 z"
       id="path2992"
       inkscape:connector-curvature="0"
       transform="translate(0,276)" />
    <path
       style="fill:#668000;fill-opacity:1"
       d="M 3.4488862,20.920897 C 3.1674759,20.840659 3.0351401,20.77272 2.7915988,20.583457 2.2777722,20.184148 2.0241062,19.653413 2.0241062,18.977663 l 0,-0.304666 0.4892904,0 0.4892904,0 0,-0.945961 0,-0.945961 8.981511,0 8.98151,0 0.02143,0.543429 c 0.01179,0.298886 0.02143,0.724568 0.02143,0.945961 l 0,0.402532 0.48929,0 0.489291,0 -5.68e-4,0.26911 c -0.0013,0.606462 -0.185087,1.066558 -0.583302,1.460064 -0.431682,0.426578 -0.836615,0.586004 -1.487461,0.585631 l -0.358813,-1.96e-4 0.212778,-0.07512 c 0.688247,-0.243 1.203318,-0.93146 1.205683,-1.611564 l 4.83e-4,-0.138632 -8.986634,0 c -4.9426481,0 -8.986633,0.0063 -8.986633,0.01395 0,0.119052 0.085209,0.558591 0.1327255,0.68465 0.1801044,0.477803 0.6366446,0.906347 1.1355983,1.06596 l 0.1832376,0.05862 -0.3914323,-5.61e-4 c -0.2883507,-4.15e-4 -0.4500258,-0.01727 -0.6139299,-0.064 l 0,-2e-6 z"
       id="path2994"
       inkscape:connector-curvature="0"
       transform="translate(0,276)" />
    <path
       style="fill:#668000;fill-opacity:1"
       d="M 4.2835087,20.910016 C 3.8318638,20.74221 3.4256823,20.39601 3.2332928,20.014889 3.1459792,19.841921 3.0353063,19.420795 3.0353063,19.261521 c 0,-0.06629 0.00901,-0.06661 1.8511486,-0.06663 1.0181318,-8e-6 5.0561383,-0.0098 8.9733481,-0.02173 l 7.122199,-0.02171 -0.02224,0.192979 c -0.03153,0.273514 -0.07473,0.425758 -0.180018,0.634326 -0.209715,0.415443 -0.599293,0.758971 -1.052222,0.927844 l -0.220925,0.08237 -7.509863,-0.0017 -7.5098622,-0.0017 -0.2033591,-0.07556 z"
       id="path2996"
       inkscape:connector-curvature="0"
       transform="translate(0,276)" />
    <path
       style="fill:#668000;fill-opacity:1"
       d="m 2.0241062,18.412043 0,-0.260955 0.4892904,0 0.4892904,0 0,0.260955 0,0.260954 -0.4892904,0 -0.4892904,0 0,-0.260954 z"
       id="path2998"
       inkscape:connector-curvature="0"
       transform="translate(0,276)" />
    <path
       style="fill:#668000;fill-opacity:1"
       d="M 10.276804,20.956353 4.3563903,20.940043 4.146114,20.830327 C 3.7136034,20.604656 3.4148185,20.327394 3.2571903,20.005438 3.1599935,19.806913 3.0679257,19.4783 3.0679257,19.329905 l 0,-0.10023 0.8399485,-0.0102 c 0.4619716,-0.0056 3.6204161,-0.01351 7.0187658,-0.01755 3.398349,-0.004 6.186081,-0.01462 6.194959,-0.02349 0.0089,-0.0089 -3.166265,-0.01614 -7.055875,-0.01614 l -7.0720192,0 0.022033,0.187561 c 0.071139,0.605595 0.298421,1.005713 0.7572765,1.333146 0.1154921,0.08241 0.2793198,0.177981 0.3640615,0.212372 l 0.154076,0.06253 -0.3914323,-0.01232 C 3.5910831,20.935861 3.466889,20.917407 3.3125709,20.858331 2.7337518,20.636746 2.2391552,20.076599 2.0886259,19.472172 2.0596336,19.355758 2.0438393,18.788559 2.033445,17.490546 l -0.014563,-1.81853 0.4919023,0 0.4919023,0 0,-0.815484 0,-0.815484 8.966519,0 8.966519,0 0.01967,0.07339 c 0.01082,0.04037 0.01992,0.198163 0.02023,0.350658 3.27e-4,0.152496 0.01013,0.486436 0.02183,0.742091 l 0.02126,0.464825 0.484216,0 0.484217,0 0,1.239536 0,1.239536 -0.489291,0 -0.48929,0 0,-0.714958 c 0,-0.393227 -0.0089,-0.738177 -0.0198,-0.766555 -0.01799,-0.04688 -0.841582,-0.0516 -9.002943,-0.0516 l -8.983143,0 0,0.08155 0,0.08155 8.96578,0 8.96578,0 0.02057,0.171251 c 0.01131,0.09419 0.0207,0.363461 0.02085,0.598384 1.63e-4,0.234923 0.0099,0.583542 0.02155,0.77471 l 0.02127,0.347577 0.484992,0 0.484992,0 -0.02033,0.318039 c -0.03857,0.603268 -0.203214,1.010429 -0.551821,1.364652 -0.412455,0.419101 -0.742467,0.566971 -1.321084,0.591947 l -0.375123,0.01619 0.263138,-0.135773 c 0.577444,-0.297948 0.996009,-0.913403 0.988675,-1.45374 l -0.0027,-0.195717 -0.04235,0.244646 c -0.02329,0.134555 -0.07419,0.32641 -0.113107,0.426344 -0.161751,0.415347 -0.602663,0.835006 -1.090794,1.038216 l -0.250224,0.104168 -1.637787,-0.0097 c -0.900785,-0.0053 -4.301976,-0.01699 -7.558203,-0.02596 z"
       id="path3000"
       inkscape:connector-curvature="0"
       transform="translate(0,276)" />
    <path
       style="fill:#668000;fill-opacity:1"
       d="m 3.002687,16.694764 0,-0.08631 8.91324,0.02337 c 4.902282,0.01285 8.946267,0.03126 8.986633,0.04092 0.04037,0.0097 0.07339,0.03798 0.07339,0.06294 0,0.03867 -1.331407,0.04539 -8.986634,0.04539 l -8.986633,0 0,-0.08631 z"
       id="path3002"
       inkscape:connector-curvature="0"
       transform="translate(0,276)" />
    <path
       style="fill:#668000;fill-opacity:1"
       d="M 9.1351264,20.956353 4.3563903,20.940043 4.146114,20.830327 C 3.7140804,20.604905 3.399225,20.312272 3.2507142,19.998126 3.158136,19.802294 3.0679257,19.472539 3.0679257,19.32996 l 0,-0.100175 0.7910194,-0.01031 c 0.4350607,-0.0057 3.3586516,-0.0136 6.4968689,-0.01762 3.138217,-0.004 5.713108,-0.01457 5.721979,-0.02344 0.0089,-0.0089 -2.929398,-0.01613 -6.529488,-0.01613 l -6.545618,0 0,0.08292 c 0,0.178644 0.1080014,0.596145 0.2059779,0.796249 0.1476723,0.301601 0.4679751,0.611702 0.8071968,0.781488 l 0.2665346,0.133405 -0.3068078,0 c -0.5753692,0 -0.9163865,-0.141772 -1.3392606,-0.556773 C 2.4062787,20.173814 2.3301487,20.073465 2.2403808,19.87767 2.0489378,19.460111 2.0492454,19.463659 2.033445,17.490546 l -0.014563,-1.81853 0.4919023,0 0.4919023,0 0,-0.815484 0,-0.815484 8.966519,0 8.966519,0 0.01967,0.07339 c 0.01082,0.04037 0.01987,0.18482 0.02011,0.321007 2.61e-4,0.136188 0.01008,0.470129 0.02185,0.742091 l 0.0214,0.494476 0.484197,0 0.484198,0 0,1.239536 0,1.239536 -0.489291,0 -0.48929,0 0,-0.734743 0,-0.734743 -0.08367,-0.03181 c -0.05362,-0.02039 -2.604728,-0.02946 -7.102865,-0.02527 l -7.0191938,0.0065 5.2680268,0.02135 c 2.897414,0.01174 6.071686,0.02348 7.053936,0.02608 1.161046,0.0031 1.78591,0.0161 1.78591,0.03722 0,0.02136 -1.394392,0.03537 -4.069265,0.0409 l -4.069265,0.0084 4.081031,0.008 4.081031,0.008 0.02057,0.171251 c 0.01131,0.09419 0.02076,0.354736 0.021,0.578994 2.28e-4,0.224258 0.0099,0.572877 0.02158,0.77471 l 0.02115,0.366967 0.48735,0 0.487351,0 -0.02226,0.318039 c -0.02637,0.376831 -0.08841,0.64375 -0.202278,0.870239 -0.270123,0.537308 -0.809704,0.966612 -1.330972,1.058953 -0.21497,0.03808 -0.702399,0.0637 -0.69948,0.03676 0.001,-0.0093 0.10743,-0.06692 0.23649,-0.128007 0.543882,-0.257424 1.008075,-0.934672 0.997043,-1.454665 l -0.0035,-0.163097 -0.02862,0.179406 c -0.107232,0.672165 -0.55337,1.22104 -1.217071,1.497339 l -0.250605,0.104327 -2.779084,-0.0098 c -1.528496,-0.0054 -4.929515,-0.01715 -7.5578196,-0.02612 z"
       id="path3004"
       inkscape:connector-curvature="0"
       transform="translate(0,276)" />
    <path
       style="fill:#668000;fill-opacity:1"
       d="m 21.02951,18.550675 c -0.01112,-0.06728 -0.02038,-0.184707 -0.02058,-0.260955 l -3.59e-4,-0.138632 0.48929,0 0.489291,0 0,0.260955 0,0.260954 -0.468713,0 -0.468713,0 -0.02022,-0.122322 z"
       id="path3006"
       inkscape:connector-curvature="0"
       transform="translate(0,276)" />
    <path
       style="fill:#668000;fill-opacity:1"
       d="m 2.0241062,14.350932 0,-1.321084 0.4892904,0 0.4892904,0 0,-0.521909 0,-0.52191 9.002943,0 9.002943,0 0,0.52191 0,0.521909 0.48929,0 0.489291,0 0,1.321084 0,1.321084 -0.468437,0 -0.468438,0 -0.02057,-0.171251 c -0.01131,-0.09419 -0.0209,-0.428129 -0.0213,-0.742091 -4.01e-4,-0.313961 -0.0096,-0.603865 -0.0204,-0.644232 l -0.01967,-0.07339 -8.982829,0 -8.982829,0 0,0.815484 0,0.815484 -0.4892904,0 -0.4892904,0 0,-1.321084 z"
       id="path3008"
       inkscape:connector-curvature="0"
       transform="translate(0,276)" />
    <path
       style="fill:#668000;fill-opacity:1"
       d="m 2.0241062,12.344842 0,-0.685007 0.4892904,0 0.4892904,0 0,-0.668697 0,-0.668696 8.982556,0 8.982556,0 0.02039,0.101935 c 0.01121,0.05607 0.02039,0.356978 0.02039,0.668697 l 0,0.566761 0.48929,0 0.489291,0 0,0.685007 0,0.685006 -0.489291,0 -0.48929,0 0,-0.521909 0,-0.52191 -9.002943,0 -9.002943,0 0,0.52191 0,0.521909 -0.4892904,0 -0.4892904,0 0,-0.685006 z"
       id="path3010"
       inkscape:connector-curvature="0"
       transform="translate(0,276)" />
    <path
       style="fill:#668000;fill-opacity:1"
       d="m 2.0241062,9.6537448 0,-1.3210841 0.4892904,0 0.4892904,0 0,-0.6686968 0,-0.6686969 8.98209,0 8.982089,0 0.02057,0.1712517 c 0.01131,0.094188 0.0207,0.3951019 0.02085,0.6686968 l 2.84e-4,0.4974452 0.48929,0 0.489291,0 0,1.3210841 0,1.3210842 -0.489291,0 -0.48929,0 -2.94e-4,-0.595304 c -1.63e-4,-0.327416 -0.0095,-0.672366 -0.02085,-0.7665544 l -0.02056,-0.1712517 -8.982089,0 -8.98209,0 0,0.7665551 0,0.766555 -0.4892904,0 -0.4892904,0 0,-1.3210842 z"
       id="path3012"
       inkscape:connector-curvature="0"
       transform="translate(0,276)" />
    <path
       style="fill:#668000;fill-opacity:1"
       d="m 2.0241062,7.3051509 0,-1.0275098 0.4892904,0 0.4892904,0 0,-0.7339355 0,-0.7339356 8.9822,0 8.982199,0 0.02074,0.1513398 c 0.01141,0.083237 0.02074,0.4135079 0.02074,0.7339356 l 0,0.5825957 0.48929,0 0.489291,0 0,1.0275098 0,1.0275098 -0.489291,0 -0.48929,0 0,-0.6170999 c 0,-0.339405 -0.0089,-0.6403186 -0.0198,-0.6686969 -0.01799,-0.046877 -0.841582,-0.051597 -9.002943,-0.051597 l -8.983143,0 0,0.6686969 0,0.6686968 -0.4892904,0 -0.4892904,0 0,-1.0275098 z"
       id="path3014"
       inkscape:connector-curvature="0"
       transform="translate(0,276)" />
    <path
       style="fill:#668000;fill-opacity:1"
       d="M 8.4175005,20.956353 4.3563903,20.940043 4.0791258,20.793727 C 3.7346644,20.611951 3.3782481,20.272952 3.255543,20.010391 3.1583866,19.802498 3.0679257,19.474454 3.0679257,19.330022 l 0,-0.100114 0.7420904,-0.01042 c 0.4081497,-0.0057 3.0601929,-0.01369 5.8934292,-0.0177 2.8332367,-0.004 5.1585887,-0.01453 5.1674497,-0.02339 0.0089,-0.0089 -2.65786,-0.01611 -5.9260481,-0.01611 l -5.9421599,0 0,0.07942 c 0,0.160474 0.1024482,0.562066 0.1919358,0.752377 0.1708018,0.363242 0.4940816,0.675083 0.9008127,0.868938 l 0.1957161,0.09328 -0.3111854,2.6e-5 C 3.4004077,20.956375 3.0594349,20.81531 2.6396526,20.401823 2.3345327,20.101279 2.1961262,19.873839 2.0989403,19.513281 2.0490925,19.328347 2.0428333,18.948128 2.0326168,15.484455 l -0.011281,-3.82462 0.4906756,0 0.4906757,0 0,-0.342503 0,-0.342503 -0.4892904,0 -0.4892904,0 0,-2.348594 0,-2.3485939 0.4892904,0 0.4892904,0 0,-0.7339355 0,-0.7339356 8.966834,0 c 8.146488,0 8.968645,0.00472 8.986633,0.051597 0.01089,0.028378 0.01985,0.1494776 0.01992,0.2691097 6.5e-5,0.119632 0.0097,0.4266845 0.02138,0.6823387 l 0.02126,0.4648258 0.484216,0 0.484217,0 0,2.3485939 0,2.348594 -0.489291,0 -0.48929,0 -4.44e-4,-0.693162 c -2.61e-4,-0.3812383 -0.0093,-0.7261881 -0.02011,-0.7665545 l -0.01967,-0.073394 -8.982829,0 -8.982829,0 0,0.440303 0,0.4403031 8.978478,0.0082 8.978479,0.0082 0.02075,0.424052 c 0.01141,0.233228 0.02242,0.530472 0.02446,0.660542 l 0.0037,0.23649 0.490676,0 0.490675,0 -0.01122,3.82462 c -0.01044,3.557614 -0.01529,3.838283 -0.06948,4.020336 -0.10009,0.336262 -0.277812,0.634111 -0.525516,0.880723 -0.287101,0.285835 -0.57531,0.456104 -0.878431,0.518961 -0.275645,0.05716 -0.769691,0.09633 -0.766815,0.0608 0.0011,-0.01388 0.107016,-0.0766 0.235315,-0.139396 0.543615,-0.266054 1.00917,-0.942699 0.998726,-1.451561 -0.0024,-0.115357 -0.0076,-0.105906 -0.04544,0.08155 -0.13389,0.663856 -0.525391,1.134143 -1.185151,1.42365 l -0.250137,0.109762 -3.506581,-0.0083 c -1.92862,-0.0046 -5.334081,-0.01564 -7.5676915,-0.02462 z M 21.048483,18.534365 c -0.01771,-0.2285 -0.03211,-0.248009 -0.03613,-0.04893 -0.0021,0.103159 0.0076,0.187561 0.02154,0.187561 0.01393,0 0.02049,-0.06238 0.01458,-0.138632 z m -0.0735,-1.865175 c -0.02454,-0.02454 -1.953843,-0.03547 -6.50006,-0.03681 l -6.4651605,-0.0019 4.6971875,0.02164 c 2.583453,0.0119 5.486169,0.02377 6.450478,0.02637 1.137665,0.0031 1.753291,0.01612 1.753291,0.03717 0,0.02121 -1.013799,0.03539 -2.927588,0.04095 l -2.927587,0.0085 2.939463,0.008 2.939464,0.008 0.02074,0.151339 c 0.01141,0.08324 0.02411,0.387821 0.02823,0.676852 0.0067,0.472014 0.0084,0.452689 0.01696,-0.189831 0.0063,-0.476779 -0.0022,-0.726982 -0.02542,-0.750245 z m -5.960213,0.09028 c -0.02243,-0.009 -0.05912,-0.009 -0.08155,0 -0.02243,0.009 -0.0041,0.01645 0.04078,0.01645 0.04485,0 0.0632,-0.0074 0.04077,-0.01645 z m 6.047349,-1.144538 c -0.0089,-0.0314 -0.02616,-0.391171 -0.03846,-0.7995 -0.0123,-0.408329 -0.03454,-0.749938 -0.04941,-0.759131 -0.01487,-0.0092 -0.02089,0.03132 -0.01337,0.09003 0.0075,0.05871 0.02295,0.426006 0.0343,0.816215 0.01208,0.415453 0.03356,0.709471 0.05183,0.709471 0.01716,0 0.02396,-0.02569 0.01511,-0.05708 l 0,0 z m -0.05354,-8.1956143 c 0,-0.2152878 -0.01101,-0.3914601 -0.02446,-0.391494 -0.01346,-3.27e-5 -0.01993,0.1761105 -0.01439,0.3914323 0.0055,0.2153217 0.01655,0.391494 0.02446,0.391494 0.0079,0 0.01439,-0.1761445 0.01439,-0.3914323 z"
       id="path3016"
       inkscape:connector-curvature="0"
       transform="translate(0,276)" />
    <path
       style="fill:#668000;fill-opacity:1"
       d="m 3.002687,9.8820803 0,-0.4403614 8.966834,0 c 8.146488,0 8.968645,0.00472 8.986633,0.051597 0.01089,0.028378 0.0198,0.2265409 0.0198,0.4403613 l 0,0.3887649 -8.986634,0 -8.986633,0 0,-0.4403617 z"
       id="path3018"
       inkscape:connector-curvature="0"
       transform="translate(0,276)" />
    <path
       style="fill:#668000;fill-opacity:1"
       d="m 2.0241062,11.317332 0,-0.342503 0.4892904,0 0.4892904,0 0,0.342503 0,0.342503 -0.4892904,0 -0.4892904,0 0,-0.342503 z"
       id="path3020"
       inkscape:connector-curvature="0"
       transform="translate(0,276)" />
    <path
       style="fill:#668000;fill-opacity:1"
       d="m 21.008573,11.317332 0,-0.342503 0.48929,0 0.489291,0 0,0.342503 0,0.342503 -0.489291,0 -0.48929,0 0,-0.342503 z"
       id="path3022"
       inkscape:connector-curvature="0"
       transform="translate(0,276)" />
    <path
       style="fill:#668000;fill-opacity:1"
       d="m 2.0241062,5.0397111 c 0,-0.3836401 0.043442,-0.5794827 0.2029545,-0.9149476 C 2.4771736,3.59876 3.008528,3.1836503 3.5857835,3.0632891 3.7876574,3.0211972 4.8880826,3.0160598 12.111345,3.023487 l 8.29377,0.00853 0.188386,0.071921 c 0.485383,0.1853052 0.798809,0.4198318 1.047509,0.7838164 0.223551,0.3271785 0.318557,0.6292496 0.338718,1.07696 l 0.01653,0.3669678 -0.493841,0 -0.49384,0 -2.61e-4,-0.2854194 C 21.007956,4.6329042 20.956258,4.3740129 20.813051,4.068417 l -0.12644,-0.2698471 -8.678113,0 -8.6781135,0 -0.052929,0.08078 c -0.029111,0.044429 -0.097403,0.1875465 -0.15176,0.3180387 -0.08924,0.2142342 -0.1004096,0.2807839 -0.1151009,0.6857747 l -0.01627,0.4485161 -0.485109,0 -0.485109,0 0,-0.2919686 z"
       id="path3024"
       inkscape:connector-curvature="0"
       transform="translate(0,276)" />
    <path
       style="fill:#668000;fill-opacity:1"
       d="m 3.0462586,4.5914597 c 0.014918,-0.1597474 0.05701,-0.2953772 0.1569133,-0.5056 l 0.1365271,-0.2872898 8.666973,0 8.666973,0 0.103157,0.2307062 c 0.102843,0.2300042 0.197754,0.5678108 0.198669,0.7071003 l 4.83e-4,0.073394 -8.975041,0 -8.9750405,0 0.020386,-0.2183103 z"
       id="path3026"
       inkscape:connector-curvature="0"
       transform="translate(0,276)" />
    <path
       style="fill:#668000;fill-opacity:1"
       d="m 2.0241062,5.8046604 0,-0.4729807 0.4892904,0 0.4892904,0 0,0.4729807 0,0.4729807 -0.4892904,0 -0.4892904,0 0,-0.4729807 z"
       id="path3028"
       inkscape:connector-curvature="0"
       transform="translate(0,276)" />
    <path
       style="fill:#668000;fill-opacity:1"
       d="m 21.029316,6.1263013 c -0.01141,-0.083237 -0.02074,-0.2960782 -0.02074,-0.4729807 l 0,-0.3216409 0.48929,0 0.489291,0 0,0.4729807 0,0.4729807 -0.468547,0 -0.468547,0 -0.02074,-0.1513398 z"
       id="path3030"
       inkscape:connector-curvature="0"
       transform="translate(0,276)" />
    <path
       style="fill:#222b00;fill-opacity:1"
       d="M 2.484562,22.912081 C 1.8537484,22.746877 1.3438437,22.26585 1.1202644,21.625049 l -0.091049,-0.260954 0,-9.378066 0,-9.3780657 L 1.1317149,2.342238 C 1.2603433,2.0087739 1.4452345,1.7345623 1.6883483,1.5166969 1.9002554,1.3267973 2.3111047,1.1151683 2.572086,1.0614824 2.6945,1.0363009 5.4454871,1.0260651 11.999081,1.0264065 c 10.161576,5.295e-4 9.437984,-0.013739 9.871028,0.1946463 0.464439,0.2234928 0.845425,0.6652988 1.021179,1.1841973 l 0.09076,0.2679519 0,9.329137 0,9.329136 -0.08935,0.263513 c -0.08829,0.260362 -0.260024,0.554431 -0.438554,0.75094 -0.24312,0.267604 -0.688244,0.521072 -1.047581,0.596528 -0.124693,0.02618 -2.751436,0.0358 -9.426995,0.0345 -9.040682,-0.0018 -9.2596933,-0.0033 -9.494998,-0.06488 l 0,0 z m 18.19393,-1.016137 c 0.586274,-0.214093 1.04376,-0.688367 1.252442,-1.298404 l 0.07253,-0.212026 0.0086,-8.277164 c 0.0096,-9.2359061 0.02756,-8.5139549 -0.224679,-9.0255118 -0.252817,-0.5127337 -0.754867,-0.9082995 -1.33333,-1.0505307 -0.148379,-0.036483 -1.612297,-0.044112 -8.464724,-0.044112 -7.9133251,0 -8.2947095,0.00266 -8.4945184,0.059358 C 3.1243657,2.1526601 2.8457251,2.3168011 2.5775378,2.5878939 2.2951649,2.8733258 2.149586,3.1256051 2.0559246,3.4918178 1.9925808,3.7394895 1.991495,3.8839237 1.991969,11.999402 c 5.351e-4,9.162626 -0.017283,8.4404 0.2201694,8.924331 0.1658996,0.338106 0.5219018,0.694987 0.8565103,0.858623 0.4741147,0.231861 -0.2805274,0.214423 8.9859103,0.207642 l 8.383175,-0.0061 0.240758,-0.08792 z"
       id="path3032"
       inkscape:connector-curvature="0"
       transform="translate(0,276)" />
    <path
       style="fill:#88aa00;fill-opacity:1"
       d="M 2.0246726,4.0513699 C 2.0266743,3.1002744 2.5974795,2.3347122 3.4943063,2.0803014 3.6947634,2.023436 4.0705128,2.0208148 12.02194,2.0208148 l 8.317936,0 0.260955,0.088972 c 0.501604,0.1710216 0.957088,0.5663073 1.175283,1.0199518 0.129119,0.268451 0.166619,0.4366375 0.194582,0.8727018 0.02524,0.3936305 -0.01702,0.416102 -0.173215,0.092103 C 21.533639,3.547251 20.928878,3.1068732 20.310811,3.0119733 20.18951,2.9933485 16.882448,2.9849019 11.858843,2.9903862 l -8.2526979,0.00901 -0.2392605,0.087401 C 3.0189196,3.2139059 2.798593,3.359174 2.5347123,3.6354731 2.3709968,3.8068932 2.2718189,3.9457584 2.2033587,4.099422 2.0691273,4.4007138 2.0239629,4.3885683 2.0246726,4.0513699 z"
       id="path3034"
       inkscape:connector-curvature="0"
       transform="translate(0,276)" />
    <path
       style="fill:#88aa00;fill-opacity:1"
       d="M 3.7692419,21.935626 C 3.4158151,21.909023 3.2004181,21.841442 2.9476627,21.677856 2.5683078,21.432333 2.2775479,21.072658 2.1374406,20.675597 2.01761,20.336 2.0173654,20.336585 2.2793751,20.336585 c 0.1979986,0 0.2314049,0.0094 0.301729,0.08508 0.1443826,0.155338 0.4906532,0.381049 0.710383,0.463051 0.2025271,0.07558 0.2769291,0.08283 1.130142,0.110108 0.5023381,0.01606 4.2821063,0.02403 8.3994849,0.01771 6.93767,-0.01065 7.501454,-0.01558 7.695133,-0.06727 0.285727,-0.07626 0.549551,-0.223154 0.787465,-0.438453 l 0.199892,-0.180892 0.217129,0.0079 c 0.119421,0.0043 0.222238,0.01298 0.228483,0.01923 0.02512,0.02512 -0.104682,0.403376 -0.201439,0.58703 -0.149996,0.284707 -0.537934,0.665844 -0.823577,0.80914 -0.472489,0.237028 0.269593,0.218912 -8.743872,0.213455 -4.4646317,-0.0027 -8.2496203,-0.01486 -8.4110861,-0.02701 z"
       id="path3036"
       inkscape:connector-curvature="0"
       transform="translate(0,276)" />
    <path
       style="fill:#88aa00;fill-opacity:1"
       d="m 2.0454461,20.067475 c -0.011522,-0.14801 -0.02084,-0.357182 -0.020708,-0.464826 l 2.407e-4,-0.195716 0.092763,0.266483 c 0.05102,0.146565 0.1536878,0.355737 0.2281511,0.464826 l 0.1353876,0.198343 -0.2074428,0 -0.2074429,0 -0.020949,-0.26911 z"
       id="path3038"
       inkscape:connector-curvature="0"
       transform="translate(0,276)" />
    <path
       style="fill:#88aa00;fill-opacity:1"
       d="m 21.65686,20.313064 -0.118268,-0.01255 0.13914,-0.207493 c 0.119877,-0.178769 0.235537,-0.455016 0.287253,-0.686085 0.008,-0.03588 0.0161,0.125585 0.01794,0.358813 0.0018,0.233228 -0.0055,0.457079 -0.01633,0.497445 -0.02041,0.07617 -0.03692,0.07883 -0.309734,0.04987 l 0,0 z"
       id="path3040"
       inkscape:connector-curvature="0"
       transform="translate(0,276)" />
  </g>
</svg>
